%TF.GenerationSoftware,KiCad,Pcbnew,7.0.7*%
%TF.CreationDate,2023-12-21T17:24:57+09:00*%
%TF.ProjectId,pocket_sdr_v2.1,706f636b-6574-45f7-9364-725f76322e31,rev?*%
%TF.SameCoordinates,Original*%
%TF.FileFunction,Paste,Top*%
%TF.FilePolarity,Positive*%
%FSLAX46Y46*%
G04 Gerber Fmt 4.6, Leading zero omitted, Abs format (unit mm)*
G04 Created by KiCad (PCBNEW 7.0.7) date 2023-12-21 17:24:57*
%MOMM*%
%LPD*%
G01*
G04 APERTURE LIST*
G04 Aperture macros list*
%AMRoundRect*
0 Rectangle with rounded corners*
0 $1 Rounding radius*
0 $2 $3 $4 $5 $6 $7 $8 $9 X,Y pos of 4 corners*
0 Add a 4 corners polygon primitive as box body*
4,1,4,$2,$3,$4,$5,$6,$7,$8,$9,$2,$3,0*
0 Add four circle primitives for the rounded corners*
1,1,$1+$1,$2,$3*
1,1,$1+$1,$4,$5*
1,1,$1+$1,$6,$7*
1,1,$1+$1,$8,$9*
0 Add four rect primitives between the rounded corners*
20,1,$1+$1,$2,$3,$4,$5,0*
20,1,$1+$1,$4,$5,$6,$7,0*
20,1,$1+$1,$6,$7,$8,$9,0*
20,1,$1+$1,$8,$9,$2,$3,0*%
G04 Aperture macros list end*
%ADD10R,0.450000X0.600000*%
%ADD11R,0.800000X0.800000*%
%ADD12R,1.450000X0.400000*%
%ADD13R,0.330000X0.410000*%
%ADD14R,0.600000X0.450000*%
%ADD15R,1.200000X1.600000*%
%ADD16R,1.600000X1.200000*%
%ADD17R,0.950000X0.260000*%
%ADD18R,0.260000X0.950000*%
%ADD19R,1.400000X1.400000*%
%ADD20R,0.900000X1.000000*%
%ADD21R,2.050000X2.400000*%
%ADD22R,0.800000X0.250000*%
%ADD23R,0.250000X0.800000*%
%ADD24R,0.350000X0.500000*%
%ADD25R,0.250000X0.500000*%
%ADD26R,1.016000X0.508000*%
%ADD27R,2.500000X1.000000*%
%ADD28R,0.762000X1.270000*%
%ADD29R,1.150000X1.400000*%
%ADD30R,1.450000X0.600000*%
%ADD31R,1.450000X0.300000*%
%ADD32RoundRect,0.225000X0.250000X-0.225000X0.250000X0.225000X-0.250000X0.225000X-0.250000X-0.225000X0*%
G04 APERTURE END LIST*
D10*
%TO.C,C33*%
X138207400Y-111953600D03*
X137207400Y-111953600D03*
%TD*%
%TO.C,R11*%
X173206300Y-111200000D03*
X174206300Y-111200000D03*
%TD*%
D11*
%TO.C,LED2*%
X169107400Y-98003600D03*
X169107400Y-96403600D03*
%TD*%
D10*
%TO.C,C36*%
X146457400Y-105003600D03*
X147457400Y-105003600D03*
%TD*%
%TO.C,C9*%
X141957400Y-111953600D03*
X142957400Y-111953600D03*
%TD*%
%TO.C,C17*%
X143507400Y-99053600D03*
X144507400Y-99053600D03*
%TD*%
D11*
%TO.C,L3*%
X136107400Y-109103600D03*
X137707400Y-109103600D03*
%TD*%
D10*
%TO.C,C32*%
X137007400Y-105903600D03*
X136007400Y-105903600D03*
%TD*%
%TO.C,R12*%
X173206300Y-98900000D03*
X174206300Y-98900000D03*
%TD*%
D12*
%TO.C,U4*%
X156607400Y-96628600D03*
X156607400Y-97278600D03*
X156607400Y-97928600D03*
X156607400Y-98578600D03*
X162507400Y-98578600D03*
X162507400Y-97928600D03*
X162507400Y-97278600D03*
X162507400Y-96628600D03*
%TD*%
D13*
%TO.C,RF_DIVIDER1*%
X129900000Y-104340000D03*
X129900000Y-105000000D03*
X129900000Y-105660000D03*
X130900000Y-105660000D03*
X130900000Y-105000000D03*
X130900000Y-104340000D03*
%TD*%
D10*
%TO.C,R1*%
X145107400Y-102703600D03*
X144107400Y-102703600D03*
%TD*%
%TO.C,C10*%
X148157400Y-110753600D03*
X147157400Y-110753600D03*
%TD*%
D14*
%TO.C,C6*%
X146207400Y-102653600D03*
X146207400Y-103653600D03*
%TD*%
D11*
%TO.C,L1*%
X134507400Y-102303600D03*
X136107400Y-102303600D03*
%TD*%
D10*
%TO.C,R4*%
X138207400Y-107153600D03*
X137207400Y-107153600D03*
%TD*%
%TO.C,C27*%
X156957400Y-111053600D03*
X157957400Y-111053600D03*
%TD*%
D14*
%TO.C,C29*%
X155057400Y-103053600D03*
X155057400Y-102053600D03*
%TD*%
%TO.C,C2*%
X134607400Y-100103600D03*
X134607400Y-101103600D03*
%TD*%
D11*
%TO.C,LED3*%
X166757400Y-98003600D03*
X166757400Y-96403600D03*
%TD*%
%TO.C,LED1*%
X169107400Y-99903600D03*
X169107400Y-101503600D03*
%TD*%
D15*
%TO.C,C24*%
X161807400Y-113603600D03*
X158607400Y-113603600D03*
%TD*%
D10*
%TO.C,C37*%
X161457400Y-111053600D03*
X160457400Y-111053600D03*
%TD*%
%TO.C,C35*%
X145357400Y-111953600D03*
X144357400Y-111953600D03*
%TD*%
%TO.C,C18*%
X146407400Y-111953600D03*
X147407400Y-111953600D03*
%TD*%
%TO.C,C11*%
X147157400Y-108453600D03*
X148157400Y-108453600D03*
%TD*%
D14*
%TO.C,C3*%
X132100000Y-106900000D03*
X132100000Y-107900000D03*
%TD*%
D16*
%TO.C,C22*%
X168807400Y-110703600D03*
X168807400Y-113903600D03*
%TD*%
D10*
%TO.C,C38*%
X146457400Y-106153600D03*
X147457400Y-106153600D03*
%TD*%
D14*
%TO.C,C1*%
X132100000Y-103050000D03*
X132100000Y-102050000D03*
%TD*%
D10*
%TO.C,R8*%
X153557400Y-111053600D03*
X152557400Y-111053600D03*
%TD*%
%TO.C,C12*%
X148157400Y-107303600D03*
X147157400Y-107303600D03*
%TD*%
D17*
%TO.C,U2*%
X145047400Y-109953600D03*
X145047400Y-109453600D03*
X145047400Y-108953600D03*
X145047400Y-108453600D03*
X145047400Y-107953600D03*
X145047400Y-107453600D03*
X145047400Y-106953600D03*
D18*
X144207400Y-106113600D03*
X143707400Y-106113600D03*
X143207400Y-106113600D03*
X142707400Y-106113600D03*
X142207400Y-106113600D03*
X141707400Y-106113600D03*
X141207400Y-106113600D03*
D17*
X140367400Y-106953600D03*
X140367400Y-107453600D03*
X140367400Y-107953600D03*
X140367400Y-108453600D03*
X140367400Y-108953600D03*
X140367400Y-109453600D03*
X140367400Y-109953600D03*
D18*
X141207400Y-110793600D03*
X141707400Y-110793600D03*
X142207400Y-110793600D03*
X142707400Y-110793600D03*
X143207400Y-110793600D03*
X143707400Y-110793600D03*
X144207400Y-110793600D03*
D19*
X143557400Y-109303600D03*
X143557400Y-107603600D03*
X141857400Y-109303600D03*
X141857400Y-107603600D03*
%TD*%
D10*
%TO.C,C8*%
X145107400Y-100403600D03*
X144107400Y-100403600D03*
%TD*%
%TO.C,C30*%
X136957400Y-97853600D03*
X135957400Y-97853600D03*
%TD*%
%TO.C,C31*%
X137007400Y-104753600D03*
X136007400Y-104753600D03*
%TD*%
%TO.C,C16*%
X144107400Y-103853600D03*
X145107400Y-103853600D03*
%TD*%
D20*
%TO.C,TCXO1*%
X148406300Y-100450000D03*
X148406300Y-98050000D03*
X146606300Y-98050000D03*
X146606300Y-100450000D03*
%TD*%
D21*
%TO.C,U3*%
X159032400Y-106303600D03*
X159032400Y-103603600D03*
X161382400Y-106303600D03*
X161382400Y-103603600D03*
D22*
X164207400Y-108203600D03*
X164207400Y-107703600D03*
X164207400Y-107203600D03*
X164207400Y-106703600D03*
X164207400Y-106203600D03*
X164207400Y-105703600D03*
X164207400Y-105203600D03*
X164207400Y-104703600D03*
X164207400Y-104203600D03*
X164207400Y-103703600D03*
X164207400Y-103203600D03*
X164207400Y-102703600D03*
X164207400Y-102203600D03*
X164207400Y-101703600D03*
D23*
X163457400Y-100953600D03*
X162957400Y-100953600D03*
X162457400Y-100953600D03*
X161957400Y-100953600D03*
X161457400Y-100953600D03*
X160957400Y-100953600D03*
X160457400Y-100953600D03*
X159957400Y-100953600D03*
X159457400Y-100953600D03*
X158957400Y-100953600D03*
X158457400Y-100953600D03*
X157957400Y-100953600D03*
X157457400Y-100953600D03*
X156957400Y-100953600D03*
D22*
X156207400Y-101703600D03*
X156207400Y-102203600D03*
X156207400Y-102703600D03*
X156207400Y-103203600D03*
X156207400Y-103703600D03*
X156207400Y-104203600D03*
X156207400Y-104703600D03*
X156207400Y-105203600D03*
X156207400Y-105703600D03*
X156207400Y-106203600D03*
X156207400Y-106703600D03*
X156207400Y-107203600D03*
X156207400Y-107703600D03*
X156207400Y-108203600D03*
D23*
X156957400Y-108953600D03*
X157457400Y-108953600D03*
X157957400Y-108953600D03*
X158457400Y-108953600D03*
X158957400Y-108953600D03*
X159457400Y-108953600D03*
X159957400Y-108953600D03*
X160457400Y-108953600D03*
X160957400Y-108953600D03*
X161457400Y-108953600D03*
X161957400Y-108953600D03*
X162457400Y-108953600D03*
X162957400Y-108953600D03*
X163457400Y-108953600D03*
%TD*%
D24*
%TO.C,AR1*%
X167557400Y-99503600D03*
X167557400Y-100503600D03*
D25*
X167007400Y-99503600D03*
X167007400Y-100503600D03*
X166507400Y-99503600D03*
X166507400Y-100503600D03*
D24*
X165957400Y-99503600D03*
X165957400Y-100503600D03*
%TD*%
D10*
%TO.C,C20*%
X168057400Y-104103600D03*
X167057400Y-104103600D03*
%TD*%
D26*
%TO.C,U5*%
X166757400Y-113953600D03*
X166757400Y-113003600D03*
X166757400Y-112053600D03*
X163757400Y-112053600D03*
X163757400Y-113953600D03*
%TD*%
D10*
%TO.C,R5*%
X164257400Y-97353600D03*
X165257400Y-97353600D03*
%TD*%
%TO.C,R3*%
X148157400Y-109603600D03*
X147157400Y-109603600D03*
%TD*%
%TO.C,C34*%
X139207400Y-111953600D03*
X140207400Y-111953600D03*
%TD*%
%TO.C,C28*%
X164257400Y-96203600D03*
X165257400Y-96203600D03*
%TD*%
D14*
%TO.C,C4*%
X134657400Y-108553600D03*
X134657400Y-109553600D03*
%TD*%
D10*
%TO.C,C41*%
X155907400Y-111053600D03*
X154907400Y-111053600D03*
%TD*%
%TO.C,C39*%
X143507400Y-97903600D03*
X144507400Y-97903600D03*
%TD*%
D17*
%TO.C,U1*%
X142047400Y-103053600D03*
X142047400Y-102553600D03*
X142047400Y-102053600D03*
X142047400Y-101553600D03*
X142047400Y-101053600D03*
X142047400Y-100553600D03*
X142047400Y-100053600D03*
D18*
X141207400Y-99213600D03*
X140707400Y-99213600D03*
X140207400Y-99213600D03*
X139707400Y-99213600D03*
X139207400Y-99213600D03*
X138707400Y-99213600D03*
X138207400Y-99213600D03*
D17*
X137367400Y-100053600D03*
X137367400Y-100553600D03*
X137367400Y-101053600D03*
X137367400Y-101553600D03*
X137367400Y-102053600D03*
X137367400Y-102553600D03*
X137367400Y-103053600D03*
D18*
X138207400Y-103893600D03*
X138707400Y-103893600D03*
X139207400Y-103893600D03*
X139707400Y-103893600D03*
X140207400Y-103893600D03*
X140707400Y-103893600D03*
X141207400Y-103893600D03*
D19*
X140557400Y-102403600D03*
X140557400Y-100703600D03*
X138857400Y-102403600D03*
X138857400Y-100703600D03*
%TD*%
D14*
%TO.C,R10*%
X155057400Y-105053600D03*
X155057400Y-104053600D03*
%TD*%
D27*
%TO.C,F1*%
X129780000Y-111050000D03*
X129780000Y-114050000D03*
%TD*%
D28*
%TO.C,BIAS_T1*%
X128820000Y-107800000D03*
X126280000Y-107800000D03*
X126280000Y-105006000D03*
X128820000Y-105006000D03*
%TD*%
D10*
%TO.C,R9*%
X154857400Y-113553600D03*
X155857400Y-113553600D03*
%TD*%
%TO.C,C40*%
X162507400Y-111053600D03*
X163507400Y-111053600D03*
%TD*%
D14*
%TO.C,C23*%
X171307400Y-106453600D03*
X171307400Y-107453600D03*
%TD*%
D10*
%TO.C,R7*%
X164257400Y-98503600D03*
X165257400Y-98503600D03*
%TD*%
%TO.C,C5*%
X138957400Y-105053600D03*
X139957400Y-105053600D03*
%TD*%
%TO.C,C19*%
X167107400Y-109203600D03*
X168107400Y-109203600D03*
%TD*%
D14*
%TO.C,R6*%
X165357400Y-108403600D03*
X165357400Y-107403600D03*
%TD*%
D10*
%TO.C,C26*%
X162507400Y-99803600D03*
X163507400Y-99803600D03*
%TD*%
D29*
%TO.C,XTAL1*%
X168356300Y-107750000D03*
X168356300Y-105550000D03*
X166756300Y-105550000D03*
X166756300Y-107750000D03*
%TD*%
D10*
%TO.C,C42*%
X136307400Y-99003600D03*
X135307400Y-99003600D03*
%TD*%
D30*
%TO.C,J2*%
X173811300Y-108270000D03*
X173811300Y-107470000D03*
D31*
X173811300Y-106270000D03*
X173811300Y-105270000D03*
X173811300Y-104770000D03*
X173811300Y-103770000D03*
D30*
X173811300Y-101770000D03*
X173811300Y-102570000D03*
D31*
X173811300Y-103270000D03*
X173811300Y-104270000D03*
X173811300Y-105770000D03*
X173811300Y-106770000D03*
%TD*%
D32*
%TO.C,R13*%
X132105400Y-105766200D03*
X132105400Y-104216200D03*
%TD*%
D10*
%TO.C,C13*%
X147357400Y-101553600D03*
X148357400Y-101553600D03*
%TD*%
%TO.C,C7*%
X144107400Y-101553600D03*
X145107400Y-101553600D03*
%TD*%
%TO.C,C25*%
X157407400Y-99803600D03*
X156407400Y-99803600D03*
%TD*%
%TO.C,C21*%
X153507400Y-113553600D03*
X152507400Y-113553600D03*
%TD*%
%TO.C,C14*%
X127901100Y-109453600D03*
X128901100Y-109453600D03*
%TD*%
D14*
%TO.C,R2*%
X135957400Y-101103600D03*
X135957400Y-100103600D03*
%TD*%
M02*
