M48
; DRILL file {KiCad 7.0.7} date Thu Dec 21 17:25:01 2023
; FORMAT={-:-/ absolute / metric / decimal}
; #@! TF.CreationDate,2023-12-21T17:25:01+09:00
; #@! TF.GenerationSoftware,Kicad,Pcbnew,7.0.7
; #@! TF.FileFunction,Plated,1,2,PTH
FMAT,2
METRIC
; #@! TA.AperFunction,Plated,PTH,ViaDrill
T1C0.350
; #@! TA.AperFunction,Plated,PTH,ComponentDrill
T2C0.350
; #@! TA.AperFunction,Plated,PTH,ViaDrill
T3C0.400
; #@! TA.AperFunction,Plated,PTH,ComponentDrill
T4C0.650
; #@! TA.AperFunction,Plated,PTH,ComponentDrill
T5C0.800
; #@! TA.AperFunction,Plated,PTH,ComponentDrill
T6C2.200
%
G90
G05
T1
X121.651Y-103.854
X121.651Y-106.154
X122.451Y-103.854
X122.451Y-106.154
X123.051Y-109.554
X123.251Y-103.854
X123.251Y-106.154
X124.051Y-103.854
X124.051Y-106.154
X124.851Y-103.854
X124.851Y-106.154
X125.651Y-103.854
X125.651Y-106.154
X126.501Y-103.854
X126.501Y-106.154
X127.301Y-109.454
X127.351Y-103.854
X127.351Y-106.154
X127.601Y-104.604
X127.601Y-105.404
X127.601Y-106.954
X127.601Y-107.754
X127.601Y-108.604
X128.201Y-103.854
X128.201Y-106.154
X128.6Y-115.4
X129.001Y-103.854
X129.001Y-106.204
X129.751Y-103.6
X129.751Y-106.4
X130.6Y-106.4
X130.7Y-103.6
X131.25Y-101.954
X131.25Y-102.854
X131.25Y-106.8
X131.25Y-107.6
X131.25Y-108.45
X131.8Y-101.25
X131.9Y-108.95
X132.55Y-100.9
X132.65Y-109.2
X132.958Y-102.554
X133.045Y-107.594
X133.457Y-96.804
X133.457Y-97.654
X133.457Y-98.554
X133.457Y-99.454
X133.457Y-100.304
X133.457Y-103.304
X133.457Y-104.154
X133.457Y-105.004
X133.457Y-105.854
X133.457Y-106.704
X133.457Y-109.554
X133.457Y-110.404
X133.457Y-111.254
X133.457Y-112.204
X133.457Y-113.104
X133.857Y-107.604
X134.307Y-96.804
X134.357Y-103.304
X134.357Y-113.104
X134.657Y-99.004
X134.657Y-110.154
X134.807Y-107.604
X135.257Y-96.804
X135.3Y-114.4
X135.307Y-97.854
X135.307Y-103.304
X135.307Y-113.104
X135.407Y-104.754
X135.407Y-105.904
X135.607Y-107.954
X135.657Y-110.204
X136.157Y-96.804
X136.207Y-103.304
X136.207Y-113.104
X136.557Y-108.054
X136.557Y-110.204
X136.557Y-111.954
X137.007Y-96.804
X137.057Y-113.104
X137.237Y-99.21
X137.457Y-108.054
X137.457Y-110.204
X137.807Y-113.104
X138.107Y-105.054
X138.207Y-94.804
X138.307Y-110.204
X138.357Y-108.054
X138.457Y-105.754
X138.507Y-96.754
X138.607Y-98.304
X138.607Y-113.104
X139.157Y-108.504
X139.163Y-97.704
X139.207Y-110.154
X139.413Y-107.147
X139.457Y-105.754
X139.719Y-98.304
X140.157Y-113.104
X140.313Y-97.733
X140.857Y-111.954
X140.913Y-98.281
X141.007Y-113.104
X141.69Y-105.204
X141.837Y-98.315
X141.881Y-103.677
X141.907Y-113.104
X142.263Y-104.537
X142.513Y-99.504
X142.757Y-113.104
X142.813Y-105.154
X142.919Y-102.642
X143.007Y-101.354
X143.425Y-104.537
X143.657Y-113.104
X143.757Y-111.954
X144.007Y-105.159
X144.157Y-94.804
X144.507Y-113.104
X144.607Y-96.804
X144.857Y-105.209
X144.857Y-110.613
X145.157Y-97.904
X145.407Y-96.804
X145.557Y-106.354
X145.907Y-109.51
X145.99Y-108.124
X146.207Y-96.804
X146.207Y-101.704
X146.257Y-113.104
X146.507Y-110.804
X146.757Y-103.454
X147.057Y-96.804
X147.107Y-113.104
X147.457Y-102.642
X148.007Y-96.804
X148.007Y-111.954
X148.007Y-113.104
X148.057Y-104.554
X148.157Y-103.504
X148.907Y-96.804
X148.907Y-113.104
X149.757Y-96.804
X149.757Y-97.904
X149.757Y-101.804
X149.757Y-103.454
X149.757Y-104.504
X149.757Y-108.504
X149.757Y-109.554
X149.757Y-110.354
X149.757Y-111.254
X149.757Y-112.204
X149.757Y-113.104
X150.757Y-102.654
X152.057Y-107.004
X152.057Y-109.404
X152.13Y-105.466
X152.131Y-104.328
X152.207Y-94.804
X152.257Y-100.093
X152.257Y-114.554
X152.413Y-106.258
X152.963Y-104.337
X153.057Y-99.748
X153.118Y-100.885
X153.215Y-102.048
X153.231Y-107.152
X153.257Y-106.304
X153.273Y-105.46
X153.307Y-108.954
X153.357Y-97.904
X153.582Y-110.279
X154.057Y-102.054
X154.074Y-107.961
X154.157Y-113.054
X154.307Y-111.054
X154.726Y-108.985
X154.907Y-107.804
X154.962Y-98.558
X155.057Y-101.504
X155.407Y-105.804
X155.507Y-110.254
X155.757Y-99.354
X156.907Y-110.004
X157.557Y-113.654
X157.757Y-110.004
X158.456Y-100.191
X158.565Y-110.004
X158.607Y-111.454
X158.76Y-108.074
X158.882Y-101.829
X159.263Y-100.048
X159.415Y-110.004
X159.617Y-108.074
X159.707Y-97.204
X159.707Y-101.833
X159.807Y-111.454
X159.886Y-99.074
X160.222Y-110.004
X160.507Y-99.654
X160.507Y-114.554
X160.557Y-94.804
X161.032Y-110.004
X161.457Y-108.054
X161.646Y-101.856
X161.707Y-99.954
X161.957Y-109.704
X163.557Y-97.929
X164.107Y-99.804
X164.157Y-111.054
X164.207Y-100.654
X164.257Y-95.004
X165.007Y-101.354
X165.007Y-102.204
X165.007Y-105.704
X165.356Y-109.75
X166.338Y-101.188
X166.507Y-115.104
X166.857Y-110.704
X167.157Y-101.204
X168.807Y-114.904
X169.106Y-94.5
X169.406Y-104.4
X169.556Y-106.1
X171.307Y-108.104
X171.307Y-115.104
T2
X138.607Y-100.454
X138.607Y-101.554
X138.607Y-102.654
X139.707Y-100.454
X139.707Y-101.554
X139.707Y-102.654
X140.807Y-100.454
X140.807Y-101.554
X140.807Y-102.654
X141.607Y-107.354
X141.607Y-108.454
X141.607Y-109.554
X142.707Y-107.354
X142.707Y-108.454
X142.707Y-109.554
X143.807Y-107.354
X143.807Y-108.454
X143.807Y-109.554
X158.407Y-102.754
X158.407Y-103.854
X158.407Y-104.954
X158.407Y-106.054
X158.407Y-107.154
X159.607Y-102.754
X159.607Y-103.854
X159.607Y-104.954
X159.607Y-106.054
X159.607Y-107.154
X160.807Y-102.754
X160.807Y-103.854
X160.807Y-104.954
X160.807Y-106.054
X160.807Y-107.154
X162.007Y-102.754
X162.007Y-103.854
X162.007Y-104.954
X162.007Y-106.054
X162.007Y-107.154
T3
X122.0Y-99.0
X123.0Y-101.0
X126.0Y-100.0
X126.0Y-102.0
X129.0Y-95.0
X129.0Y-97.0
X129.0Y-99.0
X129.0Y-101.0
X132.0Y-95.0
X132.0Y-97.0
X132.0Y-99.0
X135.0Y-95.0
X170.356Y-105.4
X170.506Y-103.2
X172.256Y-102.95
X172.256Y-107.1
X173.106Y-100.7
X173.106Y-109.35
X178.906Y-101.8
X178.906Y-108.25
T5
X129.78Y-111.55
X129.78Y-113.55
X152.357Y-97.104
X154.357Y-97.104
T6
X125.001Y-96.45
X125.001Y-113.5
X177.706Y-96.45
X177.706Y-113.5
T4
X174.176Y-100.7G85X175.276Y-100.7
G05
X174.176Y-109.34G85X175.276Y-109.34
G05
X178.606Y-100.7G85X179.206Y-100.7
G05
X178.606Y-109.34G85X179.206Y-109.34
G05
T0
M30
