%TF.GenerationSoftware,KiCad,Pcbnew,7.0.7*%
%TF.CreationDate,2023-12-21T17:25:02+09:00*%
%TF.ProjectId,pocket_sdr_v2.1,706f636b-6574-45f7-9364-725f76322e31,rev?*%
%TF.SameCoordinates,Original*%
%TF.FileFunction,Drillmap*%
%TF.FilePolarity,Positive*%
%FSLAX45Y45*%
G04 Gerber Fmt 4.5, Leading zero omitted, Abs format (unit mm)*
G04 Created by KiCad (PCBNEW 7.0.7) date 2023-12-21 17:25:02*
%MOMM*%
%LPD*%
G01*
G04 APERTURE LIST*
%ADD10C,0.050000*%
%ADD11C,0.200000*%
%ADD12C,0.070000*%
G04 APERTURE END LIST*
D10*
X18170630Y-9350000D02*
X18170630Y-11650000D01*
X12100110Y-9350000D02*
X18170630Y-9350000D01*
X18170630Y-11650000D02*
X12100110Y-11650000D01*
X12100110Y-11650000D02*
X12100110Y-9350000D01*
D11*
D12*
X17490630Y-10178000D02*
X17560630Y-10248000D01*
X17560630Y-10178000D02*
X17490630Y-10248000D01*
X17490630Y-10756000D02*
X17560630Y-10826000D01*
X17560630Y-10756000D02*
X17490630Y-10826000D01*
D11*
X12358387Y-11963984D02*
X12358387Y-11763984D01*
X12358387Y-11763984D02*
X12406006Y-11763984D01*
X12406006Y-11763984D02*
X12434577Y-11773508D01*
X12434577Y-11773508D02*
X12453625Y-11792555D01*
X12453625Y-11792555D02*
X12463149Y-11811603D01*
X12463149Y-11811603D02*
X12472672Y-11849698D01*
X12472672Y-11849698D02*
X12472672Y-11878269D01*
X12472672Y-11878269D02*
X12463149Y-11916365D01*
X12463149Y-11916365D02*
X12453625Y-11935412D01*
X12453625Y-11935412D02*
X12434577Y-11954460D01*
X12434577Y-11954460D02*
X12406006Y-11963984D01*
X12406006Y-11963984D02*
X12358387Y-11963984D01*
X12558387Y-11963984D02*
X12558387Y-11830650D01*
X12558387Y-11868746D02*
X12567911Y-11849698D01*
X12567911Y-11849698D02*
X12577434Y-11840174D01*
X12577434Y-11840174D02*
X12596482Y-11830650D01*
X12596482Y-11830650D02*
X12615530Y-11830650D01*
X12682196Y-11963984D02*
X12682196Y-11830650D01*
X12682196Y-11763984D02*
X12672672Y-11773508D01*
X12672672Y-11773508D02*
X12682196Y-11783031D01*
X12682196Y-11783031D02*
X12691720Y-11773508D01*
X12691720Y-11773508D02*
X12682196Y-11763984D01*
X12682196Y-11763984D02*
X12682196Y-11783031D01*
X12806006Y-11963984D02*
X12786958Y-11954460D01*
X12786958Y-11954460D02*
X12777434Y-11935412D01*
X12777434Y-11935412D02*
X12777434Y-11763984D01*
X12910768Y-11963984D02*
X12891720Y-11954460D01*
X12891720Y-11954460D02*
X12882196Y-11935412D01*
X12882196Y-11935412D02*
X12882196Y-11763984D01*
X13139339Y-11963984D02*
X13139339Y-11763984D01*
X13139339Y-11763984D02*
X13206006Y-11906841D01*
X13206006Y-11906841D02*
X13272672Y-11763984D01*
X13272672Y-11763984D02*
X13272672Y-11963984D01*
X13453625Y-11963984D02*
X13453625Y-11859222D01*
X13453625Y-11859222D02*
X13444101Y-11840174D01*
X13444101Y-11840174D02*
X13425053Y-11830650D01*
X13425053Y-11830650D02*
X13386958Y-11830650D01*
X13386958Y-11830650D02*
X13367911Y-11840174D01*
X13453625Y-11954460D02*
X13434577Y-11963984D01*
X13434577Y-11963984D02*
X13386958Y-11963984D01*
X13386958Y-11963984D02*
X13367911Y-11954460D01*
X13367911Y-11954460D02*
X13358387Y-11935412D01*
X13358387Y-11935412D02*
X13358387Y-11916365D01*
X13358387Y-11916365D02*
X13367911Y-11897317D01*
X13367911Y-11897317D02*
X13386958Y-11887793D01*
X13386958Y-11887793D02*
X13434577Y-11887793D01*
X13434577Y-11887793D02*
X13453625Y-11878269D01*
X13548863Y-11830650D02*
X13548863Y-12030650D01*
X13548863Y-11840174D02*
X13567911Y-11830650D01*
X13567911Y-11830650D02*
X13606006Y-11830650D01*
X13606006Y-11830650D02*
X13625053Y-11840174D01*
X13625053Y-11840174D02*
X13634577Y-11849698D01*
X13634577Y-11849698D02*
X13644101Y-11868746D01*
X13644101Y-11868746D02*
X13644101Y-11925888D01*
X13644101Y-11925888D02*
X13634577Y-11944936D01*
X13634577Y-11944936D02*
X13625053Y-11954460D01*
X13625053Y-11954460D02*
X13606006Y-11963984D01*
X13606006Y-11963984D02*
X13567911Y-11963984D01*
X13567911Y-11963984D02*
X13548863Y-11954460D01*
X13729815Y-11944936D02*
X13739339Y-11954460D01*
X13739339Y-11954460D02*
X13729815Y-11963984D01*
X13729815Y-11963984D02*
X13720292Y-11954460D01*
X13720292Y-11954460D02*
X13729815Y-11944936D01*
X13729815Y-11944936D02*
X13729815Y-11963984D01*
X13729815Y-11840174D02*
X13739339Y-11849698D01*
X13739339Y-11849698D02*
X13729815Y-11859222D01*
X13729815Y-11859222D02*
X13720292Y-11849698D01*
X13720292Y-11849698D02*
X13729815Y-11840174D01*
X13729815Y-11840174D02*
X13729815Y-11859222D01*
D12*
X12027610Y-12257500D02*
X12097610Y-12327500D01*
X12097610Y-12257500D02*
X12027610Y-12327500D01*
D11*
X12396482Y-12183984D02*
X12415530Y-12183984D01*
X12415530Y-12183984D02*
X12434577Y-12193508D01*
X12434577Y-12193508D02*
X12444101Y-12203031D01*
X12444101Y-12203031D02*
X12453625Y-12222079D01*
X12453625Y-12222079D02*
X12463149Y-12260174D01*
X12463149Y-12260174D02*
X12463149Y-12307793D01*
X12463149Y-12307793D02*
X12453625Y-12345888D01*
X12453625Y-12345888D02*
X12444101Y-12364936D01*
X12444101Y-12364936D02*
X12434577Y-12374460D01*
X12434577Y-12374460D02*
X12415530Y-12383984D01*
X12415530Y-12383984D02*
X12396482Y-12383984D01*
X12396482Y-12383984D02*
X12377434Y-12374460D01*
X12377434Y-12374460D02*
X12367911Y-12364936D01*
X12367911Y-12364936D02*
X12358387Y-12345888D01*
X12358387Y-12345888D02*
X12348863Y-12307793D01*
X12348863Y-12307793D02*
X12348863Y-12260174D01*
X12348863Y-12260174D02*
X12358387Y-12222079D01*
X12358387Y-12222079D02*
X12367911Y-12203031D01*
X12367911Y-12203031D02*
X12377434Y-12193508D01*
X12377434Y-12193508D02*
X12396482Y-12183984D01*
X12548863Y-12364936D02*
X12558387Y-12374460D01*
X12558387Y-12374460D02*
X12548863Y-12383984D01*
X12548863Y-12383984D02*
X12539339Y-12374460D01*
X12539339Y-12374460D02*
X12548863Y-12364936D01*
X12548863Y-12364936D02*
X12548863Y-12383984D01*
X12625053Y-12183984D02*
X12758387Y-12183984D01*
X12758387Y-12183984D02*
X12672672Y-12383984D01*
X12872672Y-12183984D02*
X12891720Y-12183984D01*
X12891720Y-12183984D02*
X12910768Y-12193508D01*
X12910768Y-12193508D02*
X12920292Y-12203031D01*
X12920292Y-12203031D02*
X12929815Y-12222079D01*
X12929815Y-12222079D02*
X12939339Y-12260174D01*
X12939339Y-12260174D02*
X12939339Y-12307793D01*
X12939339Y-12307793D02*
X12929815Y-12345888D01*
X12929815Y-12345888D02*
X12920292Y-12364936D01*
X12920292Y-12364936D02*
X12910768Y-12374460D01*
X12910768Y-12374460D02*
X12891720Y-12383984D01*
X12891720Y-12383984D02*
X12872672Y-12383984D01*
X12872672Y-12383984D02*
X12853625Y-12374460D01*
X12853625Y-12374460D02*
X12844101Y-12364936D01*
X12844101Y-12364936D02*
X12834577Y-12345888D01*
X12834577Y-12345888D02*
X12825053Y-12307793D01*
X12825053Y-12307793D02*
X12825053Y-12260174D01*
X12825053Y-12260174D02*
X12834577Y-12222079D01*
X12834577Y-12222079D02*
X12844101Y-12203031D01*
X12844101Y-12203031D02*
X12853625Y-12193508D01*
X12853625Y-12193508D02*
X12872672Y-12183984D01*
X13063149Y-12183984D02*
X13082196Y-12183984D01*
X13082196Y-12183984D02*
X13101244Y-12193508D01*
X13101244Y-12193508D02*
X13110768Y-12203031D01*
X13110768Y-12203031D02*
X13120292Y-12222079D01*
X13120292Y-12222079D02*
X13129815Y-12260174D01*
X13129815Y-12260174D02*
X13129815Y-12307793D01*
X13129815Y-12307793D02*
X13120292Y-12345888D01*
X13120292Y-12345888D02*
X13110768Y-12364936D01*
X13110768Y-12364936D02*
X13101244Y-12374460D01*
X13101244Y-12374460D02*
X13082196Y-12383984D01*
X13082196Y-12383984D02*
X13063149Y-12383984D01*
X13063149Y-12383984D02*
X13044101Y-12374460D01*
X13044101Y-12374460D02*
X13034577Y-12364936D01*
X13034577Y-12364936D02*
X13025053Y-12345888D01*
X13025053Y-12345888D02*
X13015530Y-12307793D01*
X13015530Y-12307793D02*
X13015530Y-12260174D01*
X13015530Y-12260174D02*
X13025053Y-12222079D01*
X13025053Y-12222079D02*
X13034577Y-12203031D01*
X13034577Y-12203031D02*
X13044101Y-12193508D01*
X13044101Y-12193508D02*
X13063149Y-12183984D01*
X13215530Y-12383984D02*
X13215530Y-12250650D01*
X13215530Y-12269698D02*
X13225053Y-12260174D01*
X13225053Y-12260174D02*
X13244101Y-12250650D01*
X13244101Y-12250650D02*
X13272673Y-12250650D01*
X13272673Y-12250650D02*
X13291720Y-12260174D01*
X13291720Y-12260174D02*
X13301244Y-12279222D01*
X13301244Y-12279222D02*
X13301244Y-12383984D01*
X13301244Y-12279222D02*
X13310768Y-12260174D01*
X13310768Y-12260174D02*
X13329815Y-12250650D01*
X13329815Y-12250650D02*
X13358387Y-12250650D01*
X13358387Y-12250650D02*
X13377434Y-12260174D01*
X13377434Y-12260174D02*
X13386958Y-12279222D01*
X13386958Y-12279222D02*
X13386958Y-12383984D01*
X13482196Y-12383984D02*
X13482196Y-12250650D01*
X13482196Y-12269698D02*
X13491720Y-12260174D01*
X13491720Y-12260174D02*
X13510768Y-12250650D01*
X13510768Y-12250650D02*
X13539339Y-12250650D01*
X13539339Y-12250650D02*
X13558387Y-12260174D01*
X13558387Y-12260174D02*
X13567911Y-12279222D01*
X13567911Y-12279222D02*
X13567911Y-12383984D01*
X13567911Y-12279222D02*
X13577434Y-12260174D01*
X13577434Y-12260174D02*
X13596482Y-12250650D01*
X13596482Y-12250650D02*
X13625053Y-12250650D01*
X13625053Y-12250650D02*
X13644101Y-12260174D01*
X13644101Y-12260174D02*
X13653625Y-12279222D01*
X13653625Y-12279222D02*
X13653625Y-12383984D01*
X14044101Y-12174460D02*
X13872673Y-12431603D01*
X14301244Y-12183984D02*
X14320292Y-12183984D01*
X14320292Y-12183984D02*
X14339339Y-12193508D01*
X14339339Y-12193508D02*
X14348863Y-12203031D01*
X14348863Y-12203031D02*
X14358387Y-12222079D01*
X14358387Y-12222079D02*
X14367911Y-12260174D01*
X14367911Y-12260174D02*
X14367911Y-12307793D01*
X14367911Y-12307793D02*
X14358387Y-12345888D01*
X14358387Y-12345888D02*
X14348863Y-12364936D01*
X14348863Y-12364936D02*
X14339339Y-12374460D01*
X14339339Y-12374460D02*
X14320292Y-12383984D01*
X14320292Y-12383984D02*
X14301244Y-12383984D01*
X14301244Y-12383984D02*
X14282196Y-12374460D01*
X14282196Y-12374460D02*
X14272673Y-12364936D01*
X14272673Y-12364936D02*
X14263149Y-12345888D01*
X14263149Y-12345888D02*
X14253625Y-12307793D01*
X14253625Y-12307793D02*
X14253625Y-12260174D01*
X14253625Y-12260174D02*
X14263149Y-12222079D01*
X14263149Y-12222079D02*
X14272673Y-12203031D01*
X14272673Y-12203031D02*
X14282196Y-12193508D01*
X14282196Y-12193508D02*
X14301244Y-12183984D01*
X14453625Y-12364936D02*
X14463149Y-12374460D01*
X14463149Y-12374460D02*
X14453625Y-12383984D01*
X14453625Y-12383984D02*
X14444101Y-12374460D01*
X14444101Y-12374460D02*
X14453625Y-12364936D01*
X14453625Y-12364936D02*
X14453625Y-12383984D01*
X14586958Y-12183984D02*
X14606006Y-12183984D01*
X14606006Y-12183984D02*
X14625054Y-12193508D01*
X14625054Y-12193508D02*
X14634577Y-12203031D01*
X14634577Y-12203031D02*
X14644101Y-12222079D01*
X14644101Y-12222079D02*
X14653625Y-12260174D01*
X14653625Y-12260174D02*
X14653625Y-12307793D01*
X14653625Y-12307793D02*
X14644101Y-12345888D01*
X14644101Y-12345888D02*
X14634577Y-12364936D01*
X14634577Y-12364936D02*
X14625054Y-12374460D01*
X14625054Y-12374460D02*
X14606006Y-12383984D01*
X14606006Y-12383984D02*
X14586958Y-12383984D01*
X14586958Y-12383984D02*
X14567911Y-12374460D01*
X14567911Y-12374460D02*
X14558387Y-12364936D01*
X14558387Y-12364936D02*
X14548863Y-12345888D01*
X14548863Y-12345888D02*
X14539339Y-12307793D01*
X14539339Y-12307793D02*
X14539339Y-12260174D01*
X14539339Y-12260174D02*
X14548863Y-12222079D01*
X14548863Y-12222079D02*
X14558387Y-12203031D01*
X14558387Y-12203031D02*
X14567911Y-12193508D01*
X14567911Y-12193508D02*
X14586958Y-12183984D01*
X14729816Y-12203031D02*
X14739339Y-12193508D01*
X14739339Y-12193508D02*
X14758387Y-12183984D01*
X14758387Y-12183984D02*
X14806006Y-12183984D01*
X14806006Y-12183984D02*
X14825054Y-12193508D01*
X14825054Y-12193508D02*
X14834577Y-12203031D01*
X14834577Y-12203031D02*
X14844101Y-12222079D01*
X14844101Y-12222079D02*
X14844101Y-12241127D01*
X14844101Y-12241127D02*
X14834577Y-12269698D01*
X14834577Y-12269698D02*
X14720292Y-12383984D01*
X14720292Y-12383984D02*
X14844101Y-12383984D01*
X14910768Y-12183984D02*
X15044101Y-12183984D01*
X15044101Y-12183984D02*
X14958387Y-12383984D01*
X15206006Y-12183984D02*
X15167911Y-12183984D01*
X15167911Y-12183984D02*
X15148863Y-12193508D01*
X15148863Y-12193508D02*
X15139339Y-12203031D01*
X15139339Y-12203031D02*
X15120292Y-12231603D01*
X15120292Y-12231603D02*
X15110768Y-12269698D01*
X15110768Y-12269698D02*
X15110768Y-12345888D01*
X15110768Y-12345888D02*
X15120292Y-12364936D01*
X15120292Y-12364936D02*
X15129816Y-12374460D01*
X15129816Y-12374460D02*
X15148863Y-12383984D01*
X15148863Y-12383984D02*
X15186958Y-12383984D01*
X15186958Y-12383984D02*
X15206006Y-12374460D01*
X15206006Y-12374460D02*
X15215530Y-12364936D01*
X15215530Y-12364936D02*
X15225054Y-12345888D01*
X15225054Y-12345888D02*
X15225054Y-12298269D01*
X15225054Y-12298269D02*
X15215530Y-12279222D01*
X15215530Y-12279222D02*
X15206006Y-12269698D01*
X15206006Y-12269698D02*
X15186958Y-12260174D01*
X15186958Y-12260174D02*
X15148863Y-12260174D01*
X15148863Y-12260174D02*
X15129816Y-12269698D01*
X15129816Y-12269698D02*
X15120292Y-12279222D01*
X15120292Y-12279222D02*
X15110768Y-12298269D01*
X15301244Y-12183984D02*
X15301244Y-12222079D01*
X15377435Y-12183984D02*
X15377435Y-12222079D01*
X15672673Y-12460174D02*
X15663149Y-12450650D01*
X15663149Y-12450650D02*
X15644101Y-12422079D01*
X15644101Y-12422079D02*
X15634578Y-12403031D01*
X15634578Y-12403031D02*
X15625054Y-12374460D01*
X15625054Y-12374460D02*
X15615530Y-12326841D01*
X15615530Y-12326841D02*
X15615530Y-12288746D01*
X15615530Y-12288746D02*
X15625054Y-12241127D01*
X15625054Y-12241127D02*
X15634578Y-12212555D01*
X15634578Y-12212555D02*
X15644101Y-12193508D01*
X15644101Y-12193508D02*
X15663149Y-12164936D01*
X15663149Y-12164936D02*
X15672673Y-12155412D01*
X15739339Y-12203031D02*
X15748863Y-12193508D01*
X15748863Y-12193508D02*
X15767911Y-12183984D01*
X15767911Y-12183984D02*
X15815530Y-12183984D01*
X15815530Y-12183984D02*
X15834578Y-12193508D01*
X15834578Y-12193508D02*
X15844101Y-12203031D01*
X15844101Y-12203031D02*
X15853625Y-12222079D01*
X15853625Y-12222079D02*
X15853625Y-12241127D01*
X15853625Y-12241127D02*
X15844101Y-12269698D01*
X15844101Y-12269698D02*
X15729816Y-12383984D01*
X15729816Y-12383984D02*
X15853625Y-12383984D01*
X16091720Y-12383984D02*
X16091720Y-12183984D01*
X16177435Y-12383984D02*
X16177435Y-12279222D01*
X16177435Y-12279222D02*
X16167911Y-12260174D01*
X16167911Y-12260174D02*
X16148863Y-12250650D01*
X16148863Y-12250650D02*
X16120292Y-12250650D01*
X16120292Y-12250650D02*
X16101244Y-12260174D01*
X16101244Y-12260174D02*
X16091720Y-12269698D01*
X16301244Y-12383984D02*
X16282197Y-12374460D01*
X16282197Y-12374460D02*
X16272673Y-12364936D01*
X16272673Y-12364936D02*
X16263149Y-12345888D01*
X16263149Y-12345888D02*
X16263149Y-12288746D01*
X16263149Y-12288746D02*
X16272673Y-12269698D01*
X16272673Y-12269698D02*
X16282197Y-12260174D01*
X16282197Y-12260174D02*
X16301244Y-12250650D01*
X16301244Y-12250650D02*
X16329816Y-12250650D01*
X16329816Y-12250650D02*
X16348863Y-12260174D01*
X16348863Y-12260174D02*
X16358387Y-12269698D01*
X16358387Y-12269698D02*
X16367911Y-12288746D01*
X16367911Y-12288746D02*
X16367911Y-12345888D01*
X16367911Y-12345888D02*
X16358387Y-12364936D01*
X16358387Y-12364936D02*
X16348863Y-12374460D01*
X16348863Y-12374460D02*
X16329816Y-12383984D01*
X16329816Y-12383984D02*
X16301244Y-12383984D01*
X16482197Y-12383984D02*
X16463149Y-12374460D01*
X16463149Y-12374460D02*
X16453625Y-12355412D01*
X16453625Y-12355412D02*
X16453625Y-12183984D01*
X16634578Y-12374460D02*
X16615530Y-12383984D01*
X16615530Y-12383984D02*
X16577435Y-12383984D01*
X16577435Y-12383984D02*
X16558387Y-12374460D01*
X16558387Y-12374460D02*
X16548863Y-12355412D01*
X16548863Y-12355412D02*
X16548863Y-12279222D01*
X16548863Y-12279222D02*
X16558387Y-12260174D01*
X16558387Y-12260174D02*
X16577435Y-12250650D01*
X16577435Y-12250650D02*
X16615530Y-12250650D01*
X16615530Y-12250650D02*
X16634578Y-12260174D01*
X16634578Y-12260174D02*
X16644101Y-12279222D01*
X16644101Y-12279222D02*
X16644101Y-12298269D01*
X16644101Y-12298269D02*
X16548863Y-12317317D01*
X16720292Y-12374460D02*
X16739340Y-12383984D01*
X16739340Y-12383984D02*
X16777435Y-12383984D01*
X16777435Y-12383984D02*
X16796483Y-12374460D01*
X16796483Y-12374460D02*
X16806006Y-12355412D01*
X16806006Y-12355412D02*
X16806006Y-12345888D01*
X16806006Y-12345888D02*
X16796483Y-12326841D01*
X16796483Y-12326841D02*
X16777435Y-12317317D01*
X16777435Y-12317317D02*
X16748863Y-12317317D01*
X16748863Y-12317317D02*
X16729816Y-12307793D01*
X16729816Y-12307793D02*
X16720292Y-12288746D01*
X16720292Y-12288746D02*
X16720292Y-12279222D01*
X16720292Y-12279222D02*
X16729816Y-12260174D01*
X16729816Y-12260174D02*
X16748863Y-12250650D01*
X16748863Y-12250650D02*
X16777435Y-12250650D01*
X16777435Y-12250650D02*
X16796483Y-12260174D01*
X16872673Y-12460174D02*
X16882197Y-12450650D01*
X16882197Y-12450650D02*
X16901244Y-12422079D01*
X16901244Y-12422079D02*
X16910768Y-12403031D01*
X16910768Y-12403031D02*
X16920292Y-12374460D01*
X16920292Y-12374460D02*
X16929816Y-12326841D01*
X16929816Y-12326841D02*
X16929816Y-12288746D01*
X16929816Y-12288746D02*
X16920292Y-12241127D01*
X16920292Y-12241127D02*
X16910768Y-12212555D01*
X16910768Y-12212555D02*
X16901244Y-12193508D01*
X16901244Y-12193508D02*
X16882197Y-12164936D01*
X16882197Y-12164936D02*
X16872673Y-12155412D01*
X17234578Y-12460174D02*
X17225054Y-12450650D01*
X17225054Y-12450650D02*
X17206006Y-12422079D01*
X17206006Y-12422079D02*
X17196483Y-12403031D01*
X17196483Y-12403031D02*
X17186959Y-12374460D01*
X17186959Y-12374460D02*
X17177435Y-12326841D01*
X17177435Y-12326841D02*
X17177435Y-12288746D01*
X17177435Y-12288746D02*
X17186959Y-12241127D01*
X17186959Y-12241127D02*
X17196483Y-12212555D01*
X17196483Y-12212555D02*
X17206006Y-12193508D01*
X17206006Y-12193508D02*
X17225054Y-12164936D01*
X17225054Y-12164936D02*
X17234578Y-12155412D01*
X17310768Y-12250650D02*
X17310768Y-12383984D01*
X17310768Y-12269698D02*
X17320292Y-12260174D01*
X17320292Y-12260174D02*
X17339340Y-12250650D01*
X17339340Y-12250650D02*
X17367911Y-12250650D01*
X17367911Y-12250650D02*
X17386959Y-12260174D01*
X17386959Y-12260174D02*
X17396483Y-12279222D01*
X17396483Y-12279222D02*
X17396483Y-12383984D01*
X17520292Y-12383984D02*
X17501244Y-12374460D01*
X17501244Y-12374460D02*
X17491721Y-12364936D01*
X17491721Y-12364936D02*
X17482197Y-12345888D01*
X17482197Y-12345888D02*
X17482197Y-12288746D01*
X17482197Y-12288746D02*
X17491721Y-12269698D01*
X17491721Y-12269698D02*
X17501244Y-12260174D01*
X17501244Y-12260174D02*
X17520292Y-12250650D01*
X17520292Y-12250650D02*
X17548864Y-12250650D01*
X17548864Y-12250650D02*
X17567911Y-12260174D01*
X17567911Y-12260174D02*
X17577435Y-12269698D01*
X17577435Y-12269698D02*
X17586959Y-12288746D01*
X17586959Y-12288746D02*
X17586959Y-12345888D01*
X17586959Y-12345888D02*
X17577435Y-12364936D01*
X17577435Y-12364936D02*
X17567911Y-12374460D01*
X17567911Y-12374460D02*
X17548864Y-12383984D01*
X17548864Y-12383984D02*
X17520292Y-12383984D01*
X17644102Y-12250650D02*
X17720292Y-12250650D01*
X17672673Y-12183984D02*
X17672673Y-12355412D01*
X17672673Y-12355412D02*
X17682197Y-12374460D01*
X17682197Y-12374460D02*
X17701244Y-12383984D01*
X17701244Y-12383984D02*
X17720292Y-12383984D01*
X17939340Y-12250650D02*
X17939340Y-12450650D01*
X17939340Y-12260174D02*
X17958387Y-12250650D01*
X17958387Y-12250650D02*
X17996483Y-12250650D01*
X17996483Y-12250650D02*
X18015530Y-12260174D01*
X18015530Y-12260174D02*
X18025054Y-12269698D01*
X18025054Y-12269698D02*
X18034578Y-12288746D01*
X18034578Y-12288746D02*
X18034578Y-12345888D01*
X18034578Y-12345888D02*
X18025054Y-12364936D01*
X18025054Y-12364936D02*
X18015530Y-12374460D01*
X18015530Y-12374460D02*
X17996483Y-12383984D01*
X17996483Y-12383984D02*
X17958387Y-12383984D01*
X17958387Y-12383984D02*
X17939340Y-12374460D01*
X18148864Y-12383984D02*
X18129816Y-12374460D01*
X18129816Y-12374460D02*
X18120292Y-12355412D01*
X18120292Y-12355412D02*
X18120292Y-12183984D01*
X18310768Y-12383984D02*
X18310768Y-12279222D01*
X18310768Y-12279222D02*
X18301245Y-12260174D01*
X18301245Y-12260174D02*
X18282197Y-12250650D01*
X18282197Y-12250650D02*
X18244102Y-12250650D01*
X18244102Y-12250650D02*
X18225054Y-12260174D01*
X18310768Y-12374460D02*
X18291721Y-12383984D01*
X18291721Y-12383984D02*
X18244102Y-12383984D01*
X18244102Y-12383984D02*
X18225054Y-12374460D01*
X18225054Y-12374460D02*
X18215530Y-12355412D01*
X18215530Y-12355412D02*
X18215530Y-12336365D01*
X18215530Y-12336365D02*
X18225054Y-12317317D01*
X18225054Y-12317317D02*
X18244102Y-12307793D01*
X18244102Y-12307793D02*
X18291721Y-12307793D01*
X18291721Y-12307793D02*
X18310768Y-12298269D01*
X18377435Y-12250650D02*
X18453625Y-12250650D01*
X18406006Y-12183984D02*
X18406006Y-12355412D01*
X18406006Y-12355412D02*
X18415530Y-12374460D01*
X18415530Y-12374460D02*
X18434578Y-12383984D01*
X18434578Y-12383984D02*
X18453625Y-12383984D01*
X18596483Y-12374460D02*
X18577435Y-12383984D01*
X18577435Y-12383984D02*
X18539340Y-12383984D01*
X18539340Y-12383984D02*
X18520292Y-12374460D01*
X18520292Y-12374460D02*
X18510768Y-12355412D01*
X18510768Y-12355412D02*
X18510768Y-12279222D01*
X18510768Y-12279222D02*
X18520292Y-12260174D01*
X18520292Y-12260174D02*
X18539340Y-12250650D01*
X18539340Y-12250650D02*
X18577435Y-12250650D01*
X18577435Y-12250650D02*
X18596483Y-12260174D01*
X18596483Y-12260174D02*
X18606006Y-12279222D01*
X18606006Y-12279222D02*
X18606006Y-12298269D01*
X18606006Y-12298269D02*
X18510768Y-12317317D01*
X18777435Y-12383984D02*
X18777435Y-12183984D01*
X18777435Y-12374460D02*
X18758387Y-12383984D01*
X18758387Y-12383984D02*
X18720292Y-12383984D01*
X18720292Y-12383984D02*
X18701245Y-12374460D01*
X18701245Y-12374460D02*
X18691721Y-12364936D01*
X18691721Y-12364936D02*
X18682197Y-12345888D01*
X18682197Y-12345888D02*
X18682197Y-12288746D01*
X18682197Y-12288746D02*
X18691721Y-12269698D01*
X18691721Y-12269698D02*
X18701245Y-12260174D01*
X18701245Y-12260174D02*
X18720292Y-12250650D01*
X18720292Y-12250650D02*
X18758387Y-12250650D01*
X18758387Y-12250650D02*
X18777435Y-12260174D01*
X18853626Y-12460174D02*
X18863149Y-12450650D01*
X18863149Y-12450650D02*
X18882197Y-12422079D01*
X18882197Y-12422079D02*
X18891721Y-12403031D01*
X18891721Y-12403031D02*
X18901245Y-12374460D01*
X18901245Y-12374460D02*
X18910768Y-12326841D01*
X18910768Y-12326841D02*
X18910768Y-12288746D01*
X18910768Y-12288746D02*
X18901245Y-12241127D01*
X18901245Y-12241127D02*
X18891721Y-12212555D01*
X18891721Y-12212555D02*
X18882197Y-12193508D01*
X18882197Y-12193508D02*
X18863149Y-12164936D01*
X18863149Y-12164936D02*
X18853626Y-12155412D01*
M02*
