%TF.GenerationSoftware,KiCad,Pcbnew,7.0.7*%
%TF.CreationDate,2023-12-21T17:25:02+09:00*%
%TF.ProjectId,pocket_sdr_v2.1,706f636b-6574-45f7-9364-725f76322e31,rev?*%
%TF.SameCoordinates,Original*%
%TF.FileFunction,Drillmap*%
%TF.FilePolarity,Positive*%
%FSLAX45Y45*%
G04 Gerber Fmt 4.5, Leading zero omitted, Abs format (unit mm)*
G04 Created by KiCad (PCBNEW 7.0.7) date 2023-12-21 17:25:02*
%MOMM*%
%LPD*%
G01*
G04 APERTURE LIST*
%ADD10C,0.050000*%
%ADD11C,0.200000*%
%ADD12C,0.035000*%
%ADD13C,0.040000*%
%ADD14C,0.065000*%
%ADD15C,0.080000*%
%ADD16C,0.220000*%
G04 APERTURE END LIST*
D10*
X18170630Y-9350000D02*
X18170630Y-11650000D01*
X12100110Y-9350000D02*
X18170630Y-9350000D01*
X18170630Y-11650000D02*
X12100110Y-11650000D01*
X12100110Y-11650000D02*
X12100110Y-9350000D01*
D11*
D12*
X12147610Y-10367860D02*
X12182610Y-10402860D01*
X12182610Y-10367860D02*
X12147610Y-10402860D01*
X12147610Y-10597860D02*
X12182610Y-10632860D01*
X12182610Y-10597860D02*
X12147610Y-10632860D01*
X12227610Y-10367860D02*
X12262610Y-10402860D01*
X12262610Y-10367860D02*
X12227610Y-10402860D01*
X12227610Y-10597860D02*
X12262610Y-10632860D01*
X12262610Y-10597860D02*
X12227610Y-10632860D01*
X12287610Y-10937860D02*
X12322610Y-10972860D01*
X12322610Y-10937860D02*
X12287610Y-10972860D01*
X12307610Y-10367860D02*
X12342610Y-10402860D01*
X12342610Y-10367860D02*
X12307610Y-10402860D01*
X12307610Y-10597860D02*
X12342610Y-10632860D01*
X12342610Y-10597860D02*
X12307610Y-10632860D01*
X12387610Y-10367860D02*
X12422610Y-10402860D01*
X12422610Y-10367860D02*
X12387610Y-10402860D01*
X12387610Y-10597860D02*
X12422610Y-10632860D01*
X12422610Y-10597860D02*
X12387610Y-10632860D01*
X12467610Y-10367860D02*
X12502610Y-10402860D01*
X12502610Y-10367860D02*
X12467610Y-10402860D01*
X12467610Y-10597860D02*
X12502610Y-10632860D01*
X12502610Y-10597860D02*
X12467610Y-10632860D01*
X12547610Y-10367860D02*
X12582610Y-10402860D01*
X12582610Y-10367860D02*
X12547610Y-10402860D01*
X12547610Y-10597860D02*
X12582610Y-10632860D01*
X12582610Y-10597860D02*
X12547610Y-10632860D01*
X12632610Y-10367860D02*
X12667610Y-10402860D01*
X12667610Y-10367860D02*
X12632610Y-10402860D01*
X12632610Y-10597860D02*
X12667610Y-10632860D01*
X12667610Y-10597860D02*
X12632610Y-10632860D01*
X12712610Y-10927860D02*
X12747610Y-10962860D01*
X12747610Y-10927860D02*
X12712610Y-10962860D01*
X12717610Y-10367860D02*
X12752610Y-10402860D01*
X12752610Y-10367860D02*
X12717610Y-10402860D01*
X12717610Y-10597860D02*
X12752610Y-10632860D01*
X12752610Y-10597860D02*
X12717610Y-10632860D01*
X12742610Y-10442860D02*
X12777610Y-10477860D01*
X12777610Y-10442860D02*
X12742610Y-10477860D01*
X12742610Y-10522860D02*
X12777610Y-10557860D01*
X12777610Y-10522860D02*
X12742610Y-10557860D01*
X12742610Y-10677860D02*
X12777610Y-10712860D01*
X12777610Y-10677860D02*
X12742610Y-10712860D01*
X12742610Y-10757860D02*
X12777610Y-10792860D01*
X12777610Y-10757860D02*
X12742610Y-10792860D01*
X12742610Y-10842860D02*
X12777610Y-10877860D01*
X12777610Y-10842860D02*
X12742610Y-10877860D01*
X12802610Y-10367860D02*
X12837610Y-10402860D01*
X12837610Y-10367860D02*
X12802610Y-10402860D01*
X12802610Y-10597860D02*
X12837610Y-10632860D01*
X12837610Y-10597860D02*
X12802610Y-10632860D01*
X12842500Y-11522500D02*
X12877500Y-11557500D01*
X12877500Y-11522500D02*
X12842500Y-11557500D01*
X12882610Y-10367860D02*
X12917610Y-10402860D01*
X12917610Y-10367860D02*
X12882610Y-10402860D01*
X12882610Y-10602860D02*
X12917610Y-10637860D01*
X12917610Y-10602860D02*
X12882610Y-10637860D01*
X12957610Y-10342500D02*
X12992610Y-10377500D01*
X12992610Y-10342500D02*
X12957610Y-10377500D01*
X12957610Y-10622500D02*
X12992610Y-10657500D01*
X12992610Y-10622500D02*
X12957610Y-10657500D01*
X13042500Y-10622500D02*
X13077500Y-10657500D01*
X13077500Y-10622500D02*
X13042500Y-10657500D01*
X13052500Y-10342500D02*
X13087500Y-10377500D01*
X13087500Y-10342500D02*
X13052500Y-10377500D01*
X13107500Y-10177860D02*
X13142500Y-10212860D01*
X13142500Y-10177860D02*
X13107500Y-10212860D01*
X13107500Y-10267860D02*
X13142500Y-10302860D01*
X13142500Y-10267860D02*
X13107500Y-10302860D01*
X13107500Y-10662500D02*
X13142500Y-10697500D01*
X13142500Y-10662500D02*
X13107500Y-10697500D01*
X13107500Y-10742500D02*
X13142500Y-10777500D01*
X13142500Y-10742500D02*
X13107500Y-10777500D01*
X13107500Y-10827500D02*
X13142500Y-10862500D01*
X13142500Y-10827500D02*
X13107500Y-10862500D01*
X13162500Y-10107500D02*
X13197500Y-10142500D01*
X13197500Y-10107500D02*
X13162500Y-10142500D01*
X13172500Y-10877500D02*
X13207500Y-10912500D01*
X13207500Y-10877500D02*
X13172500Y-10912500D01*
X13237500Y-10072500D02*
X13272500Y-10107500D01*
X13272500Y-10072500D02*
X13237500Y-10107500D01*
X13247500Y-10902500D02*
X13282500Y-10937500D01*
X13282500Y-10902500D02*
X13247500Y-10937500D01*
X13278320Y-10237860D02*
X13313320Y-10272860D01*
X13313320Y-10237860D02*
X13278320Y-10272860D01*
X13287020Y-10741940D02*
X13322020Y-10776940D01*
X13322020Y-10741940D02*
X13287020Y-10776940D01*
X13328240Y-9662860D02*
X13363240Y-9697860D01*
X13363240Y-9662860D02*
X13328240Y-9697860D01*
X13328240Y-9747860D02*
X13363240Y-9782860D01*
X13363240Y-9747860D02*
X13328240Y-9782860D01*
X13328240Y-9837860D02*
X13363240Y-9872860D01*
X13363240Y-9837860D02*
X13328240Y-9872860D01*
X13328240Y-9927860D02*
X13363240Y-9962860D01*
X13363240Y-9927860D02*
X13328240Y-9962860D01*
X13328240Y-10012860D02*
X13363240Y-10047860D01*
X13363240Y-10012860D02*
X13328240Y-10047860D01*
X13328240Y-10312860D02*
X13363240Y-10347860D01*
X13363240Y-10312860D02*
X13328240Y-10347860D01*
X13328240Y-10397860D02*
X13363240Y-10432860D01*
X13363240Y-10397860D02*
X13328240Y-10432860D01*
X13328240Y-10482860D02*
X13363240Y-10517860D01*
X13363240Y-10482860D02*
X13328240Y-10517860D01*
X13328240Y-10567860D02*
X13363240Y-10602860D01*
X13363240Y-10567860D02*
X13328240Y-10602860D01*
X13328240Y-10652860D02*
X13363240Y-10687860D01*
X13363240Y-10652860D02*
X13328240Y-10687860D01*
X13328240Y-10937860D02*
X13363240Y-10972860D01*
X13363240Y-10937860D02*
X13328240Y-10972860D01*
X13328240Y-11022860D02*
X13363240Y-11057860D01*
X13363240Y-11022860D02*
X13328240Y-11057860D01*
X13328240Y-11107860D02*
X13363240Y-11142860D01*
X13363240Y-11107860D02*
X13328240Y-11142860D01*
X13328240Y-11202860D02*
X13363240Y-11237860D01*
X13363240Y-11202860D02*
X13328240Y-11237860D01*
X13328240Y-11292860D02*
X13363240Y-11327860D01*
X13363240Y-11292860D02*
X13328240Y-11327860D01*
X13368240Y-10742860D02*
X13403240Y-10777860D01*
X13403240Y-10742860D02*
X13368240Y-10777860D01*
X13413240Y-9662860D02*
X13448240Y-9697860D01*
X13448240Y-9662860D02*
X13413240Y-9697860D01*
X13418240Y-10312860D02*
X13453240Y-10347860D01*
X13453240Y-10312860D02*
X13418240Y-10347860D01*
X13418240Y-11292860D02*
X13453240Y-11327860D01*
X13453240Y-11292860D02*
X13418240Y-11327860D01*
X13448240Y-9882860D02*
X13483240Y-9917860D01*
X13483240Y-9882860D02*
X13448240Y-9917860D01*
X13448240Y-10997860D02*
X13483240Y-11032860D01*
X13483240Y-10997860D02*
X13448240Y-11032860D01*
X13463240Y-10742860D02*
X13498240Y-10777860D01*
X13498240Y-10742860D02*
X13463240Y-10777860D01*
X13508240Y-9662860D02*
X13543240Y-9697860D01*
X13543240Y-9662860D02*
X13508240Y-9697860D01*
X13512500Y-11422500D02*
X13547500Y-11457500D01*
X13547500Y-11422500D02*
X13512500Y-11457500D01*
X13513240Y-9767860D02*
X13548240Y-9802860D01*
X13548240Y-9767860D02*
X13513240Y-9802860D01*
X13513240Y-10312860D02*
X13548240Y-10347860D01*
X13548240Y-10312860D02*
X13513240Y-10347860D01*
X13513240Y-11292860D02*
X13548240Y-11327860D01*
X13548240Y-11292860D02*
X13513240Y-11327860D01*
X13523240Y-10457860D02*
X13558240Y-10492860D01*
X13558240Y-10457860D02*
X13523240Y-10492860D01*
X13523240Y-10572860D02*
X13558240Y-10607860D01*
X13558240Y-10572860D02*
X13523240Y-10607860D01*
X13543240Y-10777860D02*
X13578240Y-10812860D01*
X13578240Y-10777860D02*
X13543240Y-10812860D01*
X13548240Y-11002860D02*
X13583240Y-11037860D01*
X13583240Y-11002860D02*
X13548240Y-11037860D01*
X13598240Y-9662860D02*
X13633240Y-9697860D01*
X13633240Y-9662860D02*
X13598240Y-9697860D01*
X13603240Y-10312860D02*
X13638240Y-10347860D01*
X13638240Y-10312860D02*
X13603240Y-10347860D01*
X13603240Y-11292860D02*
X13638240Y-11327860D01*
X13638240Y-11292860D02*
X13603240Y-11327860D01*
X13638240Y-10787860D02*
X13673240Y-10822860D01*
X13673240Y-10787860D02*
X13638240Y-10822860D01*
X13638240Y-11002860D02*
X13673240Y-11037860D01*
X13673240Y-11002860D02*
X13638240Y-11037860D01*
X13638240Y-11177860D02*
X13673240Y-11212860D01*
X13673240Y-11177860D02*
X13638240Y-11212860D01*
X13683240Y-9662860D02*
X13718240Y-9697860D01*
X13718240Y-9662860D02*
X13683240Y-9697860D01*
X13688240Y-11292860D02*
X13723240Y-11327860D01*
X13723240Y-11292860D02*
X13688240Y-11327860D01*
X13706220Y-9903460D02*
X13741220Y-9938460D01*
X13741220Y-9903460D02*
X13706220Y-9938460D01*
X13728240Y-10787860D02*
X13763240Y-10822860D01*
X13763240Y-10787860D02*
X13728240Y-10822860D01*
X13728240Y-11002860D02*
X13763240Y-11037860D01*
X13763240Y-11002860D02*
X13728240Y-11037860D01*
X13763240Y-11292860D02*
X13798240Y-11327860D01*
X13798240Y-11292860D02*
X13763240Y-11327860D01*
X13793240Y-10487860D02*
X13828240Y-10522860D01*
X13828240Y-10487860D02*
X13793240Y-10522860D01*
X13803240Y-9462860D02*
X13838240Y-9497860D01*
X13838240Y-9462860D02*
X13803240Y-9497860D01*
X13813240Y-11002860D02*
X13848240Y-11037860D01*
X13848240Y-11002860D02*
X13813240Y-11037860D01*
X13818240Y-10787860D02*
X13853240Y-10822860D01*
X13853240Y-10787860D02*
X13818240Y-10822860D01*
X13828240Y-10557860D02*
X13863240Y-10592860D01*
X13863240Y-10557860D02*
X13828240Y-10592860D01*
X13833240Y-9657860D02*
X13868240Y-9692860D01*
X13868240Y-9657860D02*
X13833240Y-9692860D01*
X13843240Y-9812860D02*
X13878240Y-9847860D01*
X13878240Y-9812860D02*
X13843240Y-9847860D01*
X13843240Y-11292860D02*
X13878240Y-11327860D01*
X13878240Y-11292860D02*
X13843240Y-11327860D01*
X13898240Y-10832860D02*
X13933240Y-10867860D01*
X13933240Y-10832860D02*
X13898240Y-10867860D01*
X13898840Y-9752860D02*
X13933840Y-9787860D01*
X13933840Y-9752860D02*
X13898840Y-9787860D01*
X13903240Y-10997860D02*
X13938240Y-11032860D01*
X13938240Y-10997860D02*
X13903240Y-11032860D01*
X13923760Y-10697160D02*
X13958760Y-10732160D01*
X13958760Y-10697160D02*
X13923760Y-10732160D01*
X13928240Y-10557860D02*
X13963240Y-10592860D01*
X13963240Y-10557860D02*
X13928240Y-10592860D01*
X13954440Y-9812860D02*
X13989440Y-9847860D01*
X13989440Y-9812860D02*
X13954440Y-9847860D01*
X13998240Y-11292860D02*
X14033240Y-11327860D01*
X14033240Y-11292860D02*
X13998240Y-11327860D01*
X14013840Y-9755840D02*
X14048840Y-9790840D01*
X14048840Y-9755840D02*
X14013840Y-9790840D01*
X14068240Y-11177860D02*
X14103240Y-11212860D01*
X14103240Y-11177860D02*
X14068240Y-11212860D01*
X14073760Y-9810644D02*
X14108760Y-9845644D01*
X14108760Y-9810644D02*
X14073760Y-9845644D01*
X14083240Y-11292860D02*
X14118240Y-11327860D01*
X14118240Y-11292860D02*
X14083240Y-11327860D01*
X14151540Y-10502860D02*
X14186540Y-10537860D01*
X14186540Y-10502860D02*
X14151540Y-10537860D01*
X14166220Y-9814029D02*
X14201220Y-9849029D01*
X14201220Y-9814029D02*
X14166220Y-9849029D01*
X14170612Y-10350232D02*
X14205612Y-10385232D01*
X14205612Y-10350232D02*
X14170612Y-10385232D01*
X14173240Y-11292860D02*
X14208240Y-11327860D01*
X14208240Y-11292860D02*
X14173240Y-11327860D01*
X14208840Y-10436160D02*
X14243840Y-10471160D01*
X14243840Y-10436160D02*
X14208840Y-10471160D01*
X14233840Y-9932860D02*
X14268840Y-9967860D01*
X14268840Y-9932860D02*
X14233840Y-9967860D01*
X14258240Y-11292860D02*
X14293240Y-11327860D01*
X14293240Y-11292860D02*
X14258240Y-11327860D01*
X14263840Y-10497860D02*
X14298840Y-10532860D01*
X14298840Y-10497860D02*
X14263840Y-10532860D01*
X14274417Y-10246683D02*
X14309417Y-10281683D01*
X14309417Y-10246683D02*
X14274417Y-10281683D01*
X14283240Y-10117860D02*
X14318240Y-10152860D01*
X14318240Y-10117860D02*
X14283240Y-10152860D01*
X14325040Y-10436160D02*
X14360040Y-10471160D01*
X14360040Y-10436160D02*
X14325040Y-10471160D01*
X14348240Y-11292860D02*
X14383240Y-11327860D01*
X14383240Y-11292860D02*
X14348240Y-11327860D01*
X14358240Y-11177860D02*
X14393240Y-11212860D01*
X14393240Y-11177860D02*
X14358240Y-11212860D01*
X14383235Y-10498380D02*
X14418235Y-10533380D01*
X14418235Y-10498380D02*
X14383235Y-10533380D01*
X14398240Y-9462860D02*
X14433240Y-9497860D01*
X14433240Y-9462860D02*
X14398240Y-9497860D01*
X14433240Y-11292860D02*
X14468240Y-11327860D01*
X14468240Y-11292860D02*
X14433240Y-11327860D01*
X14443240Y-9662860D02*
X14478240Y-9697860D01*
X14478240Y-9662860D02*
X14443240Y-9697860D01*
X14468240Y-10503380D02*
X14503240Y-10538380D01*
X14503240Y-10503380D02*
X14468240Y-10538380D01*
X14468240Y-11043840D02*
X14503240Y-11078840D01*
X14503240Y-11043840D02*
X14468240Y-11078840D01*
X14498240Y-9772860D02*
X14533240Y-9807860D01*
X14533240Y-9772860D02*
X14498240Y-9807860D01*
X14523240Y-9662860D02*
X14558240Y-9697860D01*
X14558240Y-9662860D02*
X14523240Y-9697860D01*
X14538240Y-10617860D02*
X14573240Y-10652860D01*
X14573240Y-10617860D02*
X14538240Y-10652860D01*
X14573240Y-10933460D02*
X14608240Y-10968460D01*
X14608240Y-10933460D02*
X14573240Y-10968460D01*
X14581540Y-10794880D02*
X14616540Y-10829880D01*
X14616540Y-10794880D02*
X14581540Y-10829880D01*
X14603240Y-9662860D02*
X14638240Y-9697860D01*
X14638240Y-9662860D02*
X14603240Y-9697860D01*
X14603240Y-10152860D02*
X14638240Y-10187860D01*
X14638240Y-10152860D02*
X14603240Y-10187860D01*
X14608240Y-11292860D02*
X14643240Y-11327860D01*
X14643240Y-11292860D02*
X14608240Y-11327860D01*
X14633240Y-11062860D02*
X14668240Y-11097860D01*
X14668240Y-11062860D02*
X14633240Y-11097860D01*
X14658240Y-10327860D02*
X14693240Y-10362860D01*
X14693240Y-10327860D02*
X14658240Y-10362860D01*
X14688240Y-9662860D02*
X14723240Y-9697860D01*
X14723240Y-9662860D02*
X14688240Y-9697860D01*
X14693240Y-11292860D02*
X14728240Y-11327860D01*
X14728240Y-11292860D02*
X14693240Y-11327860D01*
X14728240Y-10246683D02*
X14763240Y-10281683D01*
X14763240Y-10246683D02*
X14728240Y-10281683D01*
X14783240Y-9662860D02*
X14818240Y-9697860D01*
X14818240Y-9662860D02*
X14783240Y-9697860D01*
X14783240Y-11177860D02*
X14818240Y-11212860D01*
X14818240Y-11177860D02*
X14783240Y-11212860D01*
X14783240Y-11292860D02*
X14818240Y-11327860D01*
X14818240Y-11292860D02*
X14783240Y-11327860D01*
X14788240Y-10437860D02*
X14823240Y-10472860D01*
X14823240Y-10437860D02*
X14788240Y-10472860D01*
X14798240Y-10332860D02*
X14833240Y-10367860D01*
X14833240Y-10332860D02*
X14798240Y-10367860D01*
X14873240Y-9662860D02*
X14908240Y-9697860D01*
X14908240Y-9662860D02*
X14873240Y-9697860D01*
X14873240Y-11292860D02*
X14908240Y-11327860D01*
X14908240Y-11292860D02*
X14873240Y-11327860D01*
X14958240Y-9662860D02*
X14993240Y-9697860D01*
X14993240Y-9662860D02*
X14958240Y-9697860D01*
X14958240Y-9772860D02*
X14993240Y-9807860D01*
X14993240Y-9772860D02*
X14958240Y-9807860D01*
X14958240Y-10162860D02*
X14993240Y-10197860D01*
X14993240Y-10162860D02*
X14958240Y-10197860D01*
X14958240Y-10327860D02*
X14993240Y-10362860D01*
X14993240Y-10327860D02*
X14958240Y-10362860D01*
X14958240Y-10432860D02*
X14993240Y-10467860D01*
X14993240Y-10432860D02*
X14958240Y-10467860D01*
X14958240Y-10832860D02*
X14993240Y-10867860D01*
X14993240Y-10832860D02*
X14958240Y-10867860D01*
X14958240Y-10937860D02*
X14993240Y-10972860D01*
X14993240Y-10937860D02*
X14958240Y-10972860D01*
X14958240Y-11017860D02*
X14993240Y-11052860D01*
X14993240Y-11017860D02*
X14958240Y-11052860D01*
X14958240Y-11107860D02*
X14993240Y-11142860D01*
X14993240Y-11107860D02*
X14958240Y-11142860D01*
X14958240Y-11202860D02*
X14993240Y-11237860D01*
X14993240Y-11202860D02*
X14958240Y-11237860D01*
X14958240Y-11292860D02*
X14993240Y-11327860D01*
X14993240Y-11292860D02*
X14958240Y-11327860D01*
X15058240Y-10247860D02*
X15093240Y-10282860D01*
X15093240Y-10247860D02*
X15058240Y-10282860D01*
X15188240Y-10682860D02*
X15223240Y-10717860D01*
X15223240Y-10682860D02*
X15188240Y-10717860D01*
X15188240Y-10922860D02*
X15223240Y-10957860D01*
X15223240Y-10922860D02*
X15188240Y-10957860D01*
X15195500Y-10529060D02*
X15230500Y-10564060D01*
X15230500Y-10529060D02*
X15195500Y-10564060D01*
X15195569Y-10415275D02*
X15230569Y-10450275D01*
X15230569Y-10415275D02*
X15195569Y-10450275D01*
X15203240Y-9462860D02*
X15238240Y-9497860D01*
X15238240Y-9462860D02*
X15203240Y-9497860D01*
X15208240Y-9991760D02*
X15243240Y-10026760D01*
X15243240Y-9991760D02*
X15208240Y-10026760D01*
X15208240Y-11437860D02*
X15243240Y-11472860D01*
X15243240Y-11437860D02*
X15208240Y-11472860D01*
X15223840Y-10608340D02*
X15258840Y-10643340D01*
X15258840Y-10608340D02*
X15223840Y-10643340D01*
X15278840Y-10416160D02*
X15313840Y-10451160D01*
X15313840Y-10416160D02*
X15278840Y-10451160D01*
X15288240Y-9957260D02*
X15323240Y-9992260D01*
X15323240Y-9957260D02*
X15288240Y-9992260D01*
X15294320Y-10071020D02*
X15329320Y-10106020D01*
X15329320Y-10071020D02*
X15294320Y-10106020D01*
X15304009Y-10187260D02*
X15339009Y-10222260D01*
X15339009Y-10187260D02*
X15304009Y-10222260D01*
X15305621Y-10697740D02*
X15340621Y-10732740D01*
X15340621Y-10697740D02*
X15305621Y-10732740D01*
X15308240Y-10612860D02*
X15343240Y-10647860D01*
X15343240Y-10612860D02*
X15308240Y-10647860D01*
X15309780Y-10528460D02*
X15344780Y-10563460D01*
X15344780Y-10528460D02*
X15309780Y-10563460D01*
X15313240Y-10877860D02*
X15348240Y-10912860D01*
X15348240Y-10877860D02*
X15313240Y-10912860D01*
X15318240Y-9772860D02*
X15353240Y-9807860D01*
X15353240Y-9772860D02*
X15318240Y-9807860D01*
X15340740Y-11010360D02*
X15375740Y-11045360D01*
X15375740Y-11010360D02*
X15340740Y-11045360D01*
X15388240Y-10187860D02*
X15423240Y-10222860D01*
X15423240Y-10187860D02*
X15388240Y-10222860D01*
X15389853Y-10778628D02*
X15424853Y-10813628D01*
X15424853Y-10778628D02*
X15389853Y-10813628D01*
X15398240Y-11287860D02*
X15433240Y-11322860D01*
X15433240Y-11287860D02*
X15398240Y-11322860D01*
X15413240Y-11087860D02*
X15448240Y-11122860D01*
X15448240Y-11087860D02*
X15413240Y-11122860D01*
X15455055Y-10881045D02*
X15490055Y-10916045D01*
X15490055Y-10881045D02*
X15455055Y-10916045D01*
X15473240Y-10762860D02*
X15508240Y-10797860D01*
X15508240Y-10762860D02*
X15473240Y-10797860D01*
X15478662Y-9838282D02*
X15513662Y-9873282D01*
X15513662Y-9838282D02*
X15478662Y-9873282D01*
X15488240Y-10132860D02*
X15523240Y-10167860D01*
X15523240Y-10132860D02*
X15488240Y-10167860D01*
X15523240Y-10562860D02*
X15558240Y-10597860D01*
X15558240Y-10562860D02*
X15523240Y-10597860D01*
X15533240Y-11007860D02*
X15568240Y-11042860D01*
X15568240Y-11007860D02*
X15533240Y-11042860D01*
X15558240Y-9917860D02*
X15593240Y-9952860D01*
X15593240Y-9917860D02*
X15558240Y-9952860D01*
X15673240Y-10982860D02*
X15708240Y-11017860D01*
X15708240Y-10982860D02*
X15673240Y-11017860D01*
X15738240Y-11347860D02*
X15773240Y-11382860D01*
X15773240Y-11347860D02*
X15738240Y-11382860D01*
X15758240Y-10982860D02*
X15793240Y-11017860D01*
X15793240Y-10982860D02*
X15758240Y-11017860D01*
X15828119Y-10001611D02*
X15863119Y-10036611D01*
X15863119Y-10001611D02*
X15828119Y-10036611D01*
X15838960Y-10982860D02*
X15873960Y-11017860D01*
X15873960Y-10982860D02*
X15838960Y-11017860D01*
X15843240Y-11127860D02*
X15878240Y-11162860D01*
X15878240Y-11127860D02*
X15843240Y-11162860D01*
X15858469Y-10789880D02*
X15893469Y-10824880D01*
X15893469Y-10789880D02*
X15858469Y-10824880D01*
X15870740Y-10165360D02*
X15905740Y-10200360D01*
X15905740Y-10165360D02*
X15870740Y-10200360D01*
X15908839Y-9987261D02*
X15943839Y-10022261D01*
X15943839Y-9987261D02*
X15908839Y-10022261D01*
X15923960Y-10982860D02*
X15958960Y-11017860D01*
X15958960Y-10982860D02*
X15923960Y-11017860D01*
X15944189Y-10789880D02*
X15979189Y-10824880D01*
X15979189Y-10789880D02*
X15944189Y-10824880D01*
X15953240Y-9702860D02*
X15988240Y-9737860D01*
X15988240Y-9702860D02*
X15953240Y-9737860D01*
X15953240Y-10165840D02*
X15988240Y-10200840D01*
X15988240Y-10165840D02*
X15953240Y-10200840D01*
X15963240Y-11127860D02*
X15998240Y-11162860D01*
X15998240Y-11127860D02*
X15963240Y-11162860D01*
X15971104Y-9889880D02*
X16006104Y-9924880D01*
X16006104Y-9889880D02*
X15971104Y-9924880D01*
X16004680Y-10982860D02*
X16039680Y-11017860D01*
X16039680Y-10982860D02*
X16004680Y-11017860D01*
X16033240Y-9947860D02*
X16068240Y-9982860D01*
X16068240Y-9947860D02*
X16033240Y-9982860D01*
X16033240Y-11437860D02*
X16068240Y-11472860D01*
X16068240Y-11437860D02*
X16033240Y-11472860D01*
X16038240Y-9462860D02*
X16073240Y-9497860D01*
X16073240Y-9462860D02*
X16038240Y-9497860D01*
X16085740Y-10982860D02*
X16120740Y-11017860D01*
X16120740Y-10982860D02*
X16085740Y-11017860D01*
X16128240Y-10787860D02*
X16163240Y-10822860D01*
X16163240Y-10787860D02*
X16128240Y-10822860D01*
X16147133Y-10168123D02*
X16182133Y-10203123D01*
X16182133Y-10168123D02*
X16147133Y-10203123D01*
X16153240Y-9977860D02*
X16188240Y-10012860D01*
X16188240Y-9977860D02*
X16153240Y-10012860D01*
X16178240Y-10952860D02*
X16213240Y-10987860D01*
X16213240Y-10952860D02*
X16178240Y-10987860D01*
X16338240Y-9775360D02*
X16373240Y-9810360D01*
X16373240Y-9775360D02*
X16338240Y-9810360D01*
X16393240Y-9962860D02*
X16428240Y-9997860D01*
X16428240Y-9962860D02*
X16393240Y-9997860D01*
X16398240Y-11087860D02*
X16433240Y-11122860D01*
X16433240Y-11087860D02*
X16398240Y-11122860D01*
X16403240Y-10047860D02*
X16438240Y-10082860D01*
X16438240Y-10047860D02*
X16403240Y-10082860D01*
X16408240Y-9482860D02*
X16443240Y-9517860D01*
X16443240Y-9482860D02*
X16408240Y-9517860D01*
X16483240Y-10117860D02*
X16518240Y-10152860D01*
X16518240Y-10117860D02*
X16483240Y-10152860D01*
X16483240Y-10202860D02*
X16518240Y-10237860D01*
X16518240Y-10202860D02*
X16483240Y-10237860D01*
X16483240Y-10552860D02*
X16518240Y-10587860D01*
X16518240Y-10552860D02*
X16483240Y-10587860D01*
X16518130Y-10957500D02*
X16553130Y-10992500D01*
X16553130Y-10957500D02*
X16518130Y-10992500D01*
X16616289Y-10101263D02*
X16651289Y-10136263D01*
X16651289Y-10101263D02*
X16616289Y-10136263D01*
X16633240Y-11492860D02*
X16668240Y-11527860D01*
X16668240Y-11492860D02*
X16633240Y-11527860D01*
X16668240Y-11052860D02*
X16703240Y-11087860D01*
X16703240Y-11052860D02*
X16668240Y-11087860D01*
X16698240Y-10102860D02*
X16733240Y-10137860D01*
X16733240Y-10102860D02*
X16698240Y-10137860D01*
X16863240Y-11472860D02*
X16898240Y-11507860D01*
X16898240Y-11472860D02*
X16863240Y-11507860D01*
X16893130Y-9432500D02*
X16928130Y-9467500D01*
X16928130Y-9432500D02*
X16893130Y-9467500D01*
X16923130Y-10422500D02*
X16958130Y-10457500D01*
X16958130Y-10422500D02*
X16923130Y-10457500D01*
X16938130Y-10592500D02*
X16973130Y-10627500D01*
X16973130Y-10592500D02*
X16938130Y-10627500D01*
X17113240Y-10792860D02*
X17148240Y-10827860D01*
X17148240Y-10792860D02*
X17113240Y-10827860D01*
X17113240Y-11492860D02*
X17148240Y-11527860D01*
X17148240Y-11492860D02*
X17113240Y-11527860D01*
X13878240Y-10045360D02*
G75*
G03*
X13878240Y-10045360I-17500J0D01*
G01*
X13878240Y-10155360D02*
G75*
G03*
X13878240Y-10155360I-17500J0D01*
G01*
X13878240Y-10265360D02*
G75*
G03*
X13878240Y-10265360I-17500J0D01*
G01*
X13988240Y-10045360D02*
G75*
G03*
X13988240Y-10045360I-17500J0D01*
G01*
X13988240Y-10155360D02*
G75*
G03*
X13988240Y-10155360I-17500J0D01*
G01*
X13988240Y-10265360D02*
G75*
G03*
X13988240Y-10265360I-17500J0D01*
G01*
X14098240Y-10045360D02*
G75*
G03*
X14098240Y-10045360I-17500J0D01*
G01*
X14098240Y-10155360D02*
G75*
G03*
X14098240Y-10155360I-17500J0D01*
G01*
X14098240Y-10265360D02*
G75*
G03*
X14098240Y-10265360I-17500J0D01*
G01*
X14178240Y-10735360D02*
G75*
G03*
X14178240Y-10735360I-17500J0D01*
G01*
X14178240Y-10845360D02*
G75*
G03*
X14178240Y-10845360I-17500J0D01*
G01*
X14178240Y-10955360D02*
G75*
G03*
X14178240Y-10955360I-17500J0D01*
G01*
X14288240Y-10735360D02*
G75*
G03*
X14288240Y-10735360I-17500J0D01*
G01*
X14288240Y-10845360D02*
G75*
G03*
X14288240Y-10845360I-17500J0D01*
G01*
X14288240Y-10955360D02*
G75*
G03*
X14288240Y-10955360I-17500J0D01*
G01*
X14398240Y-10735360D02*
G75*
G03*
X14398240Y-10735360I-17500J0D01*
G01*
X14398240Y-10845360D02*
G75*
G03*
X14398240Y-10845360I-17500J0D01*
G01*
X14398240Y-10955360D02*
G75*
G03*
X14398240Y-10955360I-17500J0D01*
G01*
X15858240Y-10275360D02*
G75*
G03*
X15858240Y-10275360I-17500J0D01*
G01*
X15858240Y-10385360D02*
G75*
G03*
X15858240Y-10385360I-17500J0D01*
G01*
X15858240Y-10495360D02*
G75*
G03*
X15858240Y-10495360I-17500J0D01*
G01*
X15858240Y-10605360D02*
G75*
G03*
X15858240Y-10605360I-17500J0D01*
G01*
X15858240Y-10715360D02*
G75*
G03*
X15858240Y-10715360I-17500J0D01*
G01*
X15978240Y-10275360D02*
G75*
G03*
X15978240Y-10275360I-17500J0D01*
G01*
X15978240Y-10385360D02*
G75*
G03*
X15978240Y-10385360I-17500J0D01*
G01*
X15978240Y-10495360D02*
G75*
G03*
X15978240Y-10495360I-17500J0D01*
G01*
X15978240Y-10605360D02*
G75*
G03*
X15978240Y-10605360I-17500J0D01*
G01*
X15978240Y-10715360D02*
G75*
G03*
X15978240Y-10715360I-17500J0D01*
G01*
X16098240Y-10275360D02*
G75*
G03*
X16098240Y-10275360I-17500J0D01*
G01*
X16098240Y-10385360D02*
G75*
G03*
X16098240Y-10385360I-17500J0D01*
G01*
X16098240Y-10495360D02*
G75*
G03*
X16098240Y-10495360I-17500J0D01*
G01*
X16098240Y-10605360D02*
G75*
G03*
X16098240Y-10605360I-17500J0D01*
G01*
X16098240Y-10715360D02*
G75*
G03*
X16098240Y-10715360I-17500J0D01*
G01*
X16218240Y-10275360D02*
G75*
G03*
X16218240Y-10275360I-17500J0D01*
G01*
X16218240Y-10385360D02*
G75*
G03*
X16218240Y-10385360I-17500J0D01*
G01*
X16218240Y-10495360D02*
G75*
G03*
X16218240Y-10495360I-17500J0D01*
G01*
X16218240Y-10605360D02*
G75*
G03*
X16218240Y-10605360I-17500J0D01*
G01*
X16218240Y-10715360D02*
G75*
G03*
X16218240Y-10715360I-17500J0D01*
G01*
D13*
X12200000Y-9880000D02*
X12200000Y-9920000D01*
X12180000Y-9900000D02*
X12220000Y-9900000D01*
X12300000Y-10080000D02*
X12300000Y-10120000D01*
X12280000Y-10100000D02*
X12320000Y-10100000D01*
X12600000Y-9980000D02*
X12600000Y-10020000D01*
X12580000Y-10000000D02*
X12620000Y-10000000D01*
X12600000Y-10180000D02*
X12600000Y-10220000D01*
X12580000Y-10200000D02*
X12620000Y-10200000D01*
X12900000Y-9480000D02*
X12900000Y-9520000D01*
X12880000Y-9500000D02*
X12920000Y-9500000D01*
X12900000Y-9680000D02*
X12900000Y-9720000D01*
X12880000Y-9700000D02*
X12920000Y-9700000D01*
X12900000Y-9880000D02*
X12900000Y-9920000D01*
X12880000Y-9900000D02*
X12920000Y-9900000D01*
X12900000Y-10080000D02*
X12900000Y-10120000D01*
X12880000Y-10100000D02*
X12920000Y-10100000D01*
X13200000Y-9480000D02*
X13200000Y-9520000D01*
X13180000Y-9500000D02*
X13220000Y-9500000D01*
X13200000Y-9680000D02*
X13200000Y-9720000D01*
X13180000Y-9700000D02*
X13220000Y-9700000D01*
X13200000Y-9880000D02*
X13200000Y-9920000D01*
X13180000Y-9900000D02*
X13220000Y-9900000D01*
X13500000Y-9480000D02*
X13500000Y-9520000D01*
X13480000Y-9500000D02*
X13520000Y-9500000D01*
X17035630Y-10520000D02*
X17035630Y-10560000D01*
X17015630Y-10540000D02*
X17055630Y-10540000D01*
X17050630Y-10300000D02*
X17050630Y-10340000D01*
X17030630Y-10320000D02*
X17070630Y-10320000D01*
X17225630Y-10275000D02*
X17225630Y-10315000D01*
X17205630Y-10295000D02*
X17245630Y-10295000D01*
X17225630Y-10690000D02*
X17225630Y-10730000D01*
X17205630Y-10710000D02*
X17245630Y-10710000D01*
X17310630Y-10050000D02*
X17310630Y-10090000D01*
X17290630Y-10070000D02*
X17330630Y-10070000D01*
X17310630Y-10915000D02*
X17310630Y-10955000D01*
X17290630Y-10935000D02*
X17330630Y-10935000D01*
X17890630Y-10160000D02*
X17890630Y-10200000D01*
X17870630Y-10180000D02*
X17910630Y-10180000D01*
X17890630Y-10805000D02*
X17890630Y-10845000D01*
X17870630Y-10825000D02*
X17910630Y-10825000D01*
D14*
X17495611Y-10092981D02*
X17495611Y-10047019D01*
X17449649Y-10047019D01*
X17449649Y-10092981D01*
X17495611Y-10092981D01*
D11*
X17417630Y-10102500D02*
X17527630Y-10102500D01*
X17527630Y-10102500D02*
G75*
G03*
X17527630Y-10037500I0J32500D01*
G01*
X17527630Y-10037500D02*
X17417630Y-10037500D01*
X17417630Y-10037500D02*
G75*
G03*
X17417630Y-10102500I0J-32500D01*
G01*
D14*
X17495611Y-10956981D02*
X17495611Y-10911019D01*
X17449649Y-10911019D01*
X17449649Y-10956981D01*
X17495611Y-10956981D01*
D11*
X17417630Y-10966500D02*
X17527630Y-10966500D01*
X17527630Y-10966500D02*
G75*
G03*
X17527630Y-10901500I0J32500D01*
G01*
X17527630Y-10901500D02*
X17417630Y-10901500D01*
X17417630Y-10901500D02*
G75*
G03*
X17417630Y-10966500I0J-32500D01*
G01*
D14*
X17913611Y-10092981D02*
X17913611Y-10047019D01*
X17867649Y-10047019D01*
X17867649Y-10092981D01*
X17913611Y-10092981D01*
D11*
X17860630Y-10102500D02*
X17920630Y-10102500D01*
X17920630Y-10102500D02*
G75*
G03*
X17920630Y-10037500I0J32500D01*
G01*
X17920630Y-10037500D02*
X17860630Y-10037500D01*
X17860630Y-10037500D02*
G75*
G03*
X17860630Y-10102500I0J-32500D01*
G01*
D14*
X17913611Y-10956981D02*
X17913611Y-10911019D01*
X17867649Y-10911019D01*
X17867649Y-10956981D01*
X17913611Y-10956981D01*
D11*
X17860630Y-10966500D02*
X17920630Y-10966500D01*
X17920630Y-10966500D02*
G75*
G03*
X17920630Y-10901500I0J32500D01*
G01*
X17920630Y-10901500D02*
X17860630Y-10901500D01*
X17860630Y-10901500D02*
G75*
G03*
X17860630Y-10966500I0J-32500D01*
G01*
D15*
X12978000Y-11195000D02*
X13018000Y-11155000D01*
X12978000Y-11115000D01*
X12938000Y-11155000D01*
X12978000Y-11195000D01*
X12978000Y-11395000D02*
X13018000Y-11355000D01*
X12978000Y-11315000D01*
X12938000Y-11355000D01*
X12978000Y-11395000D01*
X15235740Y-9750360D02*
X15275740Y-9710360D01*
X15235740Y-9670360D01*
X15195740Y-9710360D01*
X15235740Y-9750360D01*
X15435740Y-9750360D02*
X15475740Y-9710360D01*
X15435740Y-9670360D01*
X15395740Y-9710360D01*
X15435740Y-9750360D01*
D16*
X12390110Y-9535000D02*
X12610110Y-9755000D01*
X12610110Y-9535000D02*
X12390110Y-9755000D01*
X12610110Y-9645000D02*
G75*
G03*
X12610110Y-9645000I-110000J0D01*
G01*
X12390110Y-11240000D02*
X12610110Y-11460000D01*
X12610110Y-11240000D02*
X12390110Y-11460000D01*
X12610110Y-11350000D02*
G75*
G03*
X12610110Y-11350000I-110000J0D01*
G01*
X17660630Y-9535000D02*
X17880630Y-9755000D01*
X17880630Y-9535000D02*
X17660630Y-9755000D01*
X17880630Y-9645000D02*
G75*
G03*
X17880630Y-9645000I-110000J0D01*
G01*
X17660630Y-11240000D02*
X17880630Y-11460000D01*
X17880630Y-11240000D02*
X17660630Y-11460000D01*
X17880630Y-11350000D02*
G75*
G03*
X17880630Y-11350000I-110000J0D01*
G01*
D11*
X12358387Y-11963984D02*
X12358387Y-11763984D01*
X12358387Y-11763984D02*
X12406006Y-11763984D01*
X12406006Y-11763984D02*
X12434577Y-11773508D01*
X12434577Y-11773508D02*
X12453625Y-11792555D01*
X12453625Y-11792555D02*
X12463149Y-11811603D01*
X12463149Y-11811603D02*
X12472672Y-11849698D01*
X12472672Y-11849698D02*
X12472672Y-11878269D01*
X12472672Y-11878269D02*
X12463149Y-11916365D01*
X12463149Y-11916365D02*
X12453625Y-11935412D01*
X12453625Y-11935412D02*
X12434577Y-11954460D01*
X12434577Y-11954460D02*
X12406006Y-11963984D01*
X12406006Y-11963984D02*
X12358387Y-11963984D01*
X12558387Y-11963984D02*
X12558387Y-11830650D01*
X12558387Y-11868746D02*
X12567911Y-11849698D01*
X12567911Y-11849698D02*
X12577434Y-11840174D01*
X12577434Y-11840174D02*
X12596482Y-11830650D01*
X12596482Y-11830650D02*
X12615530Y-11830650D01*
X12682196Y-11963984D02*
X12682196Y-11830650D01*
X12682196Y-11763984D02*
X12672672Y-11773508D01*
X12672672Y-11773508D02*
X12682196Y-11783031D01*
X12682196Y-11783031D02*
X12691720Y-11773508D01*
X12691720Y-11773508D02*
X12682196Y-11763984D01*
X12682196Y-11763984D02*
X12682196Y-11783031D01*
X12806006Y-11963984D02*
X12786958Y-11954460D01*
X12786958Y-11954460D02*
X12777434Y-11935412D01*
X12777434Y-11935412D02*
X12777434Y-11763984D01*
X12910768Y-11963984D02*
X12891720Y-11954460D01*
X12891720Y-11954460D02*
X12882196Y-11935412D01*
X12882196Y-11935412D02*
X12882196Y-11763984D01*
X13139339Y-11963984D02*
X13139339Y-11763984D01*
X13139339Y-11763984D02*
X13206006Y-11906841D01*
X13206006Y-11906841D02*
X13272672Y-11763984D01*
X13272672Y-11763984D02*
X13272672Y-11963984D01*
X13453625Y-11963984D02*
X13453625Y-11859222D01*
X13453625Y-11859222D02*
X13444101Y-11840174D01*
X13444101Y-11840174D02*
X13425053Y-11830650D01*
X13425053Y-11830650D02*
X13386958Y-11830650D01*
X13386958Y-11830650D02*
X13367911Y-11840174D01*
X13453625Y-11954460D02*
X13434577Y-11963984D01*
X13434577Y-11963984D02*
X13386958Y-11963984D01*
X13386958Y-11963984D02*
X13367911Y-11954460D01*
X13367911Y-11954460D02*
X13358387Y-11935412D01*
X13358387Y-11935412D02*
X13358387Y-11916365D01*
X13358387Y-11916365D02*
X13367911Y-11897317D01*
X13367911Y-11897317D02*
X13386958Y-11887793D01*
X13386958Y-11887793D02*
X13434577Y-11887793D01*
X13434577Y-11887793D02*
X13453625Y-11878269D01*
X13548863Y-11830650D02*
X13548863Y-12030650D01*
X13548863Y-11840174D02*
X13567911Y-11830650D01*
X13567911Y-11830650D02*
X13606006Y-11830650D01*
X13606006Y-11830650D02*
X13625053Y-11840174D01*
X13625053Y-11840174D02*
X13634577Y-11849698D01*
X13634577Y-11849698D02*
X13644101Y-11868746D01*
X13644101Y-11868746D02*
X13644101Y-11925888D01*
X13644101Y-11925888D02*
X13634577Y-11944936D01*
X13634577Y-11944936D02*
X13625053Y-11954460D01*
X13625053Y-11954460D02*
X13606006Y-11963984D01*
X13606006Y-11963984D02*
X13567911Y-11963984D01*
X13567911Y-11963984D02*
X13548863Y-11954460D01*
X13729815Y-11944936D02*
X13739339Y-11954460D01*
X13739339Y-11954460D02*
X13729815Y-11963984D01*
X13729815Y-11963984D02*
X13720292Y-11954460D01*
X13720292Y-11954460D02*
X13729815Y-11944936D01*
X13729815Y-11944936D02*
X13729815Y-11963984D01*
X13729815Y-11840174D02*
X13739339Y-11849698D01*
X13739339Y-11849698D02*
X13729815Y-11859222D01*
X13729815Y-11859222D02*
X13720292Y-11849698D01*
X13720292Y-11849698D02*
X13729815Y-11840174D01*
X13729815Y-11840174D02*
X13729815Y-11859222D01*
D12*
X12062610Y-12275000D02*
X12097610Y-12310000D01*
X12097610Y-12275000D02*
X12062610Y-12310000D01*
D11*
X12396482Y-12183984D02*
X12415530Y-12183984D01*
X12415530Y-12183984D02*
X12434577Y-12193508D01*
X12434577Y-12193508D02*
X12444101Y-12203031D01*
X12444101Y-12203031D02*
X12453625Y-12222079D01*
X12453625Y-12222079D02*
X12463149Y-12260174D01*
X12463149Y-12260174D02*
X12463149Y-12307793D01*
X12463149Y-12307793D02*
X12453625Y-12345888D01*
X12453625Y-12345888D02*
X12444101Y-12364936D01*
X12444101Y-12364936D02*
X12434577Y-12374460D01*
X12434577Y-12374460D02*
X12415530Y-12383984D01*
X12415530Y-12383984D02*
X12396482Y-12383984D01*
X12396482Y-12383984D02*
X12377434Y-12374460D01*
X12377434Y-12374460D02*
X12367911Y-12364936D01*
X12367911Y-12364936D02*
X12358387Y-12345888D01*
X12358387Y-12345888D02*
X12348863Y-12307793D01*
X12348863Y-12307793D02*
X12348863Y-12260174D01*
X12348863Y-12260174D02*
X12358387Y-12222079D01*
X12358387Y-12222079D02*
X12367911Y-12203031D01*
X12367911Y-12203031D02*
X12377434Y-12193508D01*
X12377434Y-12193508D02*
X12396482Y-12183984D01*
X12548863Y-12364936D02*
X12558387Y-12374460D01*
X12558387Y-12374460D02*
X12548863Y-12383984D01*
X12548863Y-12383984D02*
X12539339Y-12374460D01*
X12539339Y-12374460D02*
X12548863Y-12364936D01*
X12548863Y-12364936D02*
X12548863Y-12383984D01*
X12625053Y-12183984D02*
X12748863Y-12183984D01*
X12748863Y-12183984D02*
X12682196Y-12260174D01*
X12682196Y-12260174D02*
X12710768Y-12260174D01*
X12710768Y-12260174D02*
X12729815Y-12269698D01*
X12729815Y-12269698D02*
X12739339Y-12279222D01*
X12739339Y-12279222D02*
X12748863Y-12298269D01*
X12748863Y-12298269D02*
X12748863Y-12345888D01*
X12748863Y-12345888D02*
X12739339Y-12364936D01*
X12739339Y-12364936D02*
X12729815Y-12374460D01*
X12729815Y-12374460D02*
X12710768Y-12383984D01*
X12710768Y-12383984D02*
X12653625Y-12383984D01*
X12653625Y-12383984D02*
X12634577Y-12374460D01*
X12634577Y-12374460D02*
X12625053Y-12364936D01*
X12929815Y-12183984D02*
X12834577Y-12183984D01*
X12834577Y-12183984D02*
X12825053Y-12279222D01*
X12825053Y-12279222D02*
X12834577Y-12269698D01*
X12834577Y-12269698D02*
X12853625Y-12260174D01*
X12853625Y-12260174D02*
X12901244Y-12260174D01*
X12901244Y-12260174D02*
X12920292Y-12269698D01*
X12920292Y-12269698D02*
X12929815Y-12279222D01*
X12929815Y-12279222D02*
X12939339Y-12298269D01*
X12939339Y-12298269D02*
X12939339Y-12345888D01*
X12939339Y-12345888D02*
X12929815Y-12364936D01*
X12929815Y-12364936D02*
X12920292Y-12374460D01*
X12920292Y-12374460D02*
X12901244Y-12383984D01*
X12901244Y-12383984D02*
X12853625Y-12383984D01*
X12853625Y-12383984D02*
X12834577Y-12374460D01*
X12834577Y-12374460D02*
X12825053Y-12364936D01*
X13063149Y-12183984D02*
X13082196Y-12183984D01*
X13082196Y-12183984D02*
X13101244Y-12193508D01*
X13101244Y-12193508D02*
X13110768Y-12203031D01*
X13110768Y-12203031D02*
X13120292Y-12222079D01*
X13120292Y-12222079D02*
X13129815Y-12260174D01*
X13129815Y-12260174D02*
X13129815Y-12307793D01*
X13129815Y-12307793D02*
X13120292Y-12345888D01*
X13120292Y-12345888D02*
X13110768Y-12364936D01*
X13110768Y-12364936D02*
X13101244Y-12374460D01*
X13101244Y-12374460D02*
X13082196Y-12383984D01*
X13082196Y-12383984D02*
X13063149Y-12383984D01*
X13063149Y-12383984D02*
X13044101Y-12374460D01*
X13044101Y-12374460D02*
X13034577Y-12364936D01*
X13034577Y-12364936D02*
X13025053Y-12345888D01*
X13025053Y-12345888D02*
X13015530Y-12307793D01*
X13015530Y-12307793D02*
X13015530Y-12260174D01*
X13015530Y-12260174D02*
X13025053Y-12222079D01*
X13025053Y-12222079D02*
X13034577Y-12203031D01*
X13034577Y-12203031D02*
X13044101Y-12193508D01*
X13044101Y-12193508D02*
X13063149Y-12183984D01*
X13215530Y-12383984D02*
X13215530Y-12250650D01*
X13215530Y-12269698D02*
X13225053Y-12260174D01*
X13225053Y-12260174D02*
X13244101Y-12250650D01*
X13244101Y-12250650D02*
X13272673Y-12250650D01*
X13272673Y-12250650D02*
X13291720Y-12260174D01*
X13291720Y-12260174D02*
X13301244Y-12279222D01*
X13301244Y-12279222D02*
X13301244Y-12383984D01*
X13301244Y-12279222D02*
X13310768Y-12260174D01*
X13310768Y-12260174D02*
X13329815Y-12250650D01*
X13329815Y-12250650D02*
X13358387Y-12250650D01*
X13358387Y-12250650D02*
X13377434Y-12260174D01*
X13377434Y-12260174D02*
X13386958Y-12279222D01*
X13386958Y-12279222D02*
X13386958Y-12383984D01*
X13482196Y-12383984D02*
X13482196Y-12250650D01*
X13482196Y-12269698D02*
X13491720Y-12260174D01*
X13491720Y-12260174D02*
X13510768Y-12250650D01*
X13510768Y-12250650D02*
X13539339Y-12250650D01*
X13539339Y-12250650D02*
X13558387Y-12260174D01*
X13558387Y-12260174D02*
X13567911Y-12279222D01*
X13567911Y-12279222D02*
X13567911Y-12383984D01*
X13567911Y-12279222D02*
X13577434Y-12260174D01*
X13577434Y-12260174D02*
X13596482Y-12250650D01*
X13596482Y-12250650D02*
X13625053Y-12250650D01*
X13625053Y-12250650D02*
X13644101Y-12260174D01*
X13644101Y-12260174D02*
X13653625Y-12279222D01*
X13653625Y-12279222D02*
X13653625Y-12383984D01*
X14044101Y-12174460D02*
X13872673Y-12431603D01*
X14301244Y-12183984D02*
X14320292Y-12183984D01*
X14320292Y-12183984D02*
X14339339Y-12193508D01*
X14339339Y-12193508D02*
X14348863Y-12203031D01*
X14348863Y-12203031D02*
X14358387Y-12222079D01*
X14358387Y-12222079D02*
X14367911Y-12260174D01*
X14367911Y-12260174D02*
X14367911Y-12307793D01*
X14367911Y-12307793D02*
X14358387Y-12345888D01*
X14358387Y-12345888D02*
X14348863Y-12364936D01*
X14348863Y-12364936D02*
X14339339Y-12374460D01*
X14339339Y-12374460D02*
X14320292Y-12383984D01*
X14320292Y-12383984D02*
X14301244Y-12383984D01*
X14301244Y-12383984D02*
X14282196Y-12374460D01*
X14282196Y-12374460D02*
X14272673Y-12364936D01*
X14272673Y-12364936D02*
X14263149Y-12345888D01*
X14263149Y-12345888D02*
X14253625Y-12307793D01*
X14253625Y-12307793D02*
X14253625Y-12260174D01*
X14253625Y-12260174D02*
X14263149Y-12222079D01*
X14263149Y-12222079D02*
X14272673Y-12203031D01*
X14272673Y-12203031D02*
X14282196Y-12193508D01*
X14282196Y-12193508D02*
X14301244Y-12183984D01*
X14453625Y-12364936D02*
X14463149Y-12374460D01*
X14463149Y-12374460D02*
X14453625Y-12383984D01*
X14453625Y-12383984D02*
X14444101Y-12374460D01*
X14444101Y-12374460D02*
X14453625Y-12364936D01*
X14453625Y-12364936D02*
X14453625Y-12383984D01*
X14586958Y-12183984D02*
X14606006Y-12183984D01*
X14606006Y-12183984D02*
X14625054Y-12193508D01*
X14625054Y-12193508D02*
X14634577Y-12203031D01*
X14634577Y-12203031D02*
X14644101Y-12222079D01*
X14644101Y-12222079D02*
X14653625Y-12260174D01*
X14653625Y-12260174D02*
X14653625Y-12307793D01*
X14653625Y-12307793D02*
X14644101Y-12345888D01*
X14644101Y-12345888D02*
X14634577Y-12364936D01*
X14634577Y-12364936D02*
X14625054Y-12374460D01*
X14625054Y-12374460D02*
X14606006Y-12383984D01*
X14606006Y-12383984D02*
X14586958Y-12383984D01*
X14586958Y-12383984D02*
X14567911Y-12374460D01*
X14567911Y-12374460D02*
X14558387Y-12364936D01*
X14558387Y-12364936D02*
X14548863Y-12345888D01*
X14548863Y-12345888D02*
X14539339Y-12307793D01*
X14539339Y-12307793D02*
X14539339Y-12260174D01*
X14539339Y-12260174D02*
X14548863Y-12222079D01*
X14548863Y-12222079D02*
X14558387Y-12203031D01*
X14558387Y-12203031D02*
X14567911Y-12193508D01*
X14567911Y-12193508D02*
X14586958Y-12183984D01*
X14844101Y-12383984D02*
X14729816Y-12383984D01*
X14786958Y-12383984D02*
X14786958Y-12183984D01*
X14786958Y-12183984D02*
X14767911Y-12212555D01*
X14767911Y-12212555D02*
X14748863Y-12231603D01*
X14748863Y-12231603D02*
X14729816Y-12241127D01*
X14910768Y-12183984D02*
X15034577Y-12183984D01*
X15034577Y-12183984D02*
X14967911Y-12260174D01*
X14967911Y-12260174D02*
X14996482Y-12260174D01*
X14996482Y-12260174D02*
X15015530Y-12269698D01*
X15015530Y-12269698D02*
X15025054Y-12279222D01*
X15025054Y-12279222D02*
X15034577Y-12298269D01*
X15034577Y-12298269D02*
X15034577Y-12345888D01*
X15034577Y-12345888D02*
X15025054Y-12364936D01*
X15025054Y-12364936D02*
X15015530Y-12374460D01*
X15015530Y-12374460D02*
X14996482Y-12383984D01*
X14996482Y-12383984D02*
X14939339Y-12383984D01*
X14939339Y-12383984D02*
X14920292Y-12374460D01*
X14920292Y-12374460D02*
X14910768Y-12364936D01*
X15148863Y-12269698D02*
X15129816Y-12260174D01*
X15129816Y-12260174D02*
X15120292Y-12250650D01*
X15120292Y-12250650D02*
X15110768Y-12231603D01*
X15110768Y-12231603D02*
X15110768Y-12222079D01*
X15110768Y-12222079D02*
X15120292Y-12203031D01*
X15120292Y-12203031D02*
X15129816Y-12193508D01*
X15129816Y-12193508D02*
X15148863Y-12183984D01*
X15148863Y-12183984D02*
X15186958Y-12183984D01*
X15186958Y-12183984D02*
X15206006Y-12193508D01*
X15206006Y-12193508D02*
X15215530Y-12203031D01*
X15215530Y-12203031D02*
X15225054Y-12222079D01*
X15225054Y-12222079D02*
X15225054Y-12231603D01*
X15225054Y-12231603D02*
X15215530Y-12250650D01*
X15215530Y-12250650D02*
X15206006Y-12260174D01*
X15206006Y-12260174D02*
X15186958Y-12269698D01*
X15186958Y-12269698D02*
X15148863Y-12269698D01*
X15148863Y-12269698D02*
X15129816Y-12279222D01*
X15129816Y-12279222D02*
X15120292Y-12288746D01*
X15120292Y-12288746D02*
X15110768Y-12307793D01*
X15110768Y-12307793D02*
X15110768Y-12345888D01*
X15110768Y-12345888D02*
X15120292Y-12364936D01*
X15120292Y-12364936D02*
X15129816Y-12374460D01*
X15129816Y-12374460D02*
X15148863Y-12383984D01*
X15148863Y-12383984D02*
X15186958Y-12383984D01*
X15186958Y-12383984D02*
X15206006Y-12374460D01*
X15206006Y-12374460D02*
X15215530Y-12364936D01*
X15215530Y-12364936D02*
X15225054Y-12345888D01*
X15225054Y-12345888D02*
X15225054Y-12307793D01*
X15225054Y-12307793D02*
X15215530Y-12288746D01*
X15215530Y-12288746D02*
X15206006Y-12279222D01*
X15206006Y-12279222D02*
X15186958Y-12269698D01*
X15301244Y-12183984D02*
X15301244Y-12222079D01*
X15377435Y-12183984D02*
X15377435Y-12222079D01*
X15672673Y-12460174D02*
X15663149Y-12450650D01*
X15663149Y-12450650D02*
X15644101Y-12422079D01*
X15644101Y-12422079D02*
X15634578Y-12403031D01*
X15634578Y-12403031D02*
X15625054Y-12374460D01*
X15625054Y-12374460D02*
X15615530Y-12326841D01*
X15615530Y-12326841D02*
X15615530Y-12288746D01*
X15615530Y-12288746D02*
X15625054Y-12241127D01*
X15625054Y-12241127D02*
X15634578Y-12212555D01*
X15634578Y-12212555D02*
X15644101Y-12193508D01*
X15644101Y-12193508D02*
X15663149Y-12164936D01*
X15663149Y-12164936D02*
X15672673Y-12155412D01*
X15739339Y-12203031D02*
X15748863Y-12193508D01*
X15748863Y-12193508D02*
X15767911Y-12183984D01*
X15767911Y-12183984D02*
X15815530Y-12183984D01*
X15815530Y-12183984D02*
X15834578Y-12193508D01*
X15834578Y-12193508D02*
X15844101Y-12203031D01*
X15844101Y-12203031D02*
X15853625Y-12222079D01*
X15853625Y-12222079D02*
X15853625Y-12241127D01*
X15853625Y-12241127D02*
X15844101Y-12269698D01*
X15844101Y-12269698D02*
X15729816Y-12383984D01*
X15729816Y-12383984D02*
X15853625Y-12383984D01*
X15929816Y-12203031D02*
X15939339Y-12193508D01*
X15939339Y-12193508D02*
X15958387Y-12183984D01*
X15958387Y-12183984D02*
X16006006Y-12183984D01*
X16006006Y-12183984D02*
X16025054Y-12193508D01*
X16025054Y-12193508D02*
X16034578Y-12203031D01*
X16034578Y-12203031D02*
X16044101Y-12222079D01*
X16044101Y-12222079D02*
X16044101Y-12241127D01*
X16044101Y-12241127D02*
X16034578Y-12269698D01*
X16034578Y-12269698D02*
X15920292Y-12383984D01*
X15920292Y-12383984D02*
X16044101Y-12383984D01*
X16158387Y-12269698D02*
X16139339Y-12260174D01*
X16139339Y-12260174D02*
X16129816Y-12250650D01*
X16129816Y-12250650D02*
X16120292Y-12231603D01*
X16120292Y-12231603D02*
X16120292Y-12222079D01*
X16120292Y-12222079D02*
X16129816Y-12203031D01*
X16129816Y-12203031D02*
X16139339Y-12193508D01*
X16139339Y-12193508D02*
X16158387Y-12183984D01*
X16158387Y-12183984D02*
X16196482Y-12183984D01*
X16196482Y-12183984D02*
X16215530Y-12193508D01*
X16215530Y-12193508D02*
X16225054Y-12203031D01*
X16225054Y-12203031D02*
X16234578Y-12222079D01*
X16234578Y-12222079D02*
X16234578Y-12231603D01*
X16234578Y-12231603D02*
X16225054Y-12250650D01*
X16225054Y-12250650D02*
X16215530Y-12260174D01*
X16215530Y-12260174D02*
X16196482Y-12269698D01*
X16196482Y-12269698D02*
X16158387Y-12269698D01*
X16158387Y-12269698D02*
X16139339Y-12279222D01*
X16139339Y-12279222D02*
X16129816Y-12288746D01*
X16129816Y-12288746D02*
X16120292Y-12307793D01*
X16120292Y-12307793D02*
X16120292Y-12345888D01*
X16120292Y-12345888D02*
X16129816Y-12364936D01*
X16129816Y-12364936D02*
X16139339Y-12374460D01*
X16139339Y-12374460D02*
X16158387Y-12383984D01*
X16158387Y-12383984D02*
X16196482Y-12383984D01*
X16196482Y-12383984D02*
X16215530Y-12374460D01*
X16215530Y-12374460D02*
X16225054Y-12364936D01*
X16225054Y-12364936D02*
X16234578Y-12345888D01*
X16234578Y-12345888D02*
X16234578Y-12307793D01*
X16234578Y-12307793D02*
X16225054Y-12288746D01*
X16225054Y-12288746D02*
X16215530Y-12279222D01*
X16215530Y-12279222D02*
X16196482Y-12269698D01*
X16472673Y-12383984D02*
X16472673Y-12183984D01*
X16558387Y-12383984D02*
X16558387Y-12279222D01*
X16558387Y-12279222D02*
X16548863Y-12260174D01*
X16548863Y-12260174D02*
X16529816Y-12250650D01*
X16529816Y-12250650D02*
X16501244Y-12250650D01*
X16501244Y-12250650D02*
X16482197Y-12260174D01*
X16482197Y-12260174D02*
X16472673Y-12269698D01*
X16682197Y-12383984D02*
X16663149Y-12374460D01*
X16663149Y-12374460D02*
X16653625Y-12364936D01*
X16653625Y-12364936D02*
X16644101Y-12345888D01*
X16644101Y-12345888D02*
X16644101Y-12288746D01*
X16644101Y-12288746D02*
X16653625Y-12269698D01*
X16653625Y-12269698D02*
X16663149Y-12260174D01*
X16663149Y-12260174D02*
X16682197Y-12250650D01*
X16682197Y-12250650D02*
X16710768Y-12250650D01*
X16710768Y-12250650D02*
X16729816Y-12260174D01*
X16729816Y-12260174D02*
X16739340Y-12269698D01*
X16739340Y-12269698D02*
X16748863Y-12288746D01*
X16748863Y-12288746D02*
X16748863Y-12345888D01*
X16748863Y-12345888D02*
X16739340Y-12364936D01*
X16739340Y-12364936D02*
X16729816Y-12374460D01*
X16729816Y-12374460D02*
X16710768Y-12383984D01*
X16710768Y-12383984D02*
X16682197Y-12383984D01*
X16863149Y-12383984D02*
X16844102Y-12374460D01*
X16844102Y-12374460D02*
X16834578Y-12355412D01*
X16834578Y-12355412D02*
X16834578Y-12183984D01*
X17015530Y-12374460D02*
X16996483Y-12383984D01*
X16996483Y-12383984D02*
X16958387Y-12383984D01*
X16958387Y-12383984D02*
X16939340Y-12374460D01*
X16939340Y-12374460D02*
X16929816Y-12355412D01*
X16929816Y-12355412D02*
X16929816Y-12279222D01*
X16929816Y-12279222D02*
X16939340Y-12260174D01*
X16939340Y-12260174D02*
X16958387Y-12250650D01*
X16958387Y-12250650D02*
X16996483Y-12250650D01*
X16996483Y-12250650D02*
X17015530Y-12260174D01*
X17015530Y-12260174D02*
X17025054Y-12279222D01*
X17025054Y-12279222D02*
X17025054Y-12298269D01*
X17025054Y-12298269D02*
X16929816Y-12317317D01*
X17101244Y-12374460D02*
X17120292Y-12383984D01*
X17120292Y-12383984D02*
X17158387Y-12383984D01*
X17158387Y-12383984D02*
X17177435Y-12374460D01*
X17177435Y-12374460D02*
X17186959Y-12355412D01*
X17186959Y-12355412D02*
X17186959Y-12345888D01*
X17186959Y-12345888D02*
X17177435Y-12326841D01*
X17177435Y-12326841D02*
X17158387Y-12317317D01*
X17158387Y-12317317D02*
X17129816Y-12317317D01*
X17129816Y-12317317D02*
X17110768Y-12307793D01*
X17110768Y-12307793D02*
X17101244Y-12288746D01*
X17101244Y-12288746D02*
X17101244Y-12279222D01*
X17101244Y-12279222D02*
X17110768Y-12260174D01*
X17110768Y-12260174D02*
X17129816Y-12250650D01*
X17129816Y-12250650D02*
X17158387Y-12250650D01*
X17158387Y-12250650D02*
X17177435Y-12260174D01*
X17253625Y-12460174D02*
X17263149Y-12450650D01*
X17263149Y-12450650D02*
X17282197Y-12422079D01*
X17282197Y-12422079D02*
X17291721Y-12403031D01*
X17291721Y-12403031D02*
X17301244Y-12374460D01*
X17301244Y-12374460D02*
X17310768Y-12326841D01*
X17310768Y-12326841D02*
X17310768Y-12288746D01*
X17310768Y-12288746D02*
X17301244Y-12241127D01*
X17301244Y-12241127D02*
X17291721Y-12212555D01*
X17291721Y-12212555D02*
X17282197Y-12193508D01*
X17282197Y-12193508D02*
X17263149Y-12164936D01*
X17263149Y-12164936D02*
X17253625Y-12155412D01*
D12*
X12097610Y-12556500D02*
G75*
G03*
X12097610Y-12556500I-17500J0D01*
G01*
D11*
X12396482Y-12447984D02*
X12415530Y-12447984D01*
X12415530Y-12447984D02*
X12434577Y-12457508D01*
X12434577Y-12457508D02*
X12444101Y-12467031D01*
X12444101Y-12467031D02*
X12453625Y-12486079D01*
X12453625Y-12486079D02*
X12463149Y-12524174D01*
X12463149Y-12524174D02*
X12463149Y-12571793D01*
X12463149Y-12571793D02*
X12453625Y-12609888D01*
X12453625Y-12609888D02*
X12444101Y-12628936D01*
X12444101Y-12628936D02*
X12434577Y-12638460D01*
X12434577Y-12638460D02*
X12415530Y-12647984D01*
X12415530Y-12647984D02*
X12396482Y-12647984D01*
X12396482Y-12647984D02*
X12377434Y-12638460D01*
X12377434Y-12638460D02*
X12367911Y-12628936D01*
X12367911Y-12628936D02*
X12358387Y-12609888D01*
X12358387Y-12609888D02*
X12348863Y-12571793D01*
X12348863Y-12571793D02*
X12348863Y-12524174D01*
X12348863Y-12524174D02*
X12358387Y-12486079D01*
X12358387Y-12486079D02*
X12367911Y-12467031D01*
X12367911Y-12467031D02*
X12377434Y-12457508D01*
X12377434Y-12457508D02*
X12396482Y-12447984D01*
X12548863Y-12628936D02*
X12558387Y-12638460D01*
X12558387Y-12638460D02*
X12548863Y-12647984D01*
X12548863Y-12647984D02*
X12539339Y-12638460D01*
X12539339Y-12638460D02*
X12548863Y-12628936D01*
X12548863Y-12628936D02*
X12548863Y-12647984D01*
X12625053Y-12447984D02*
X12748863Y-12447984D01*
X12748863Y-12447984D02*
X12682196Y-12524174D01*
X12682196Y-12524174D02*
X12710768Y-12524174D01*
X12710768Y-12524174D02*
X12729815Y-12533698D01*
X12729815Y-12533698D02*
X12739339Y-12543222D01*
X12739339Y-12543222D02*
X12748863Y-12562269D01*
X12748863Y-12562269D02*
X12748863Y-12609888D01*
X12748863Y-12609888D02*
X12739339Y-12628936D01*
X12739339Y-12628936D02*
X12729815Y-12638460D01*
X12729815Y-12638460D02*
X12710768Y-12647984D01*
X12710768Y-12647984D02*
X12653625Y-12647984D01*
X12653625Y-12647984D02*
X12634577Y-12638460D01*
X12634577Y-12638460D02*
X12625053Y-12628936D01*
X12929815Y-12447984D02*
X12834577Y-12447984D01*
X12834577Y-12447984D02*
X12825053Y-12543222D01*
X12825053Y-12543222D02*
X12834577Y-12533698D01*
X12834577Y-12533698D02*
X12853625Y-12524174D01*
X12853625Y-12524174D02*
X12901244Y-12524174D01*
X12901244Y-12524174D02*
X12920292Y-12533698D01*
X12920292Y-12533698D02*
X12929815Y-12543222D01*
X12929815Y-12543222D02*
X12939339Y-12562269D01*
X12939339Y-12562269D02*
X12939339Y-12609888D01*
X12939339Y-12609888D02*
X12929815Y-12628936D01*
X12929815Y-12628936D02*
X12920292Y-12638460D01*
X12920292Y-12638460D02*
X12901244Y-12647984D01*
X12901244Y-12647984D02*
X12853625Y-12647984D01*
X12853625Y-12647984D02*
X12834577Y-12638460D01*
X12834577Y-12638460D02*
X12825053Y-12628936D01*
X13063149Y-12447984D02*
X13082196Y-12447984D01*
X13082196Y-12447984D02*
X13101244Y-12457508D01*
X13101244Y-12457508D02*
X13110768Y-12467031D01*
X13110768Y-12467031D02*
X13120292Y-12486079D01*
X13120292Y-12486079D02*
X13129815Y-12524174D01*
X13129815Y-12524174D02*
X13129815Y-12571793D01*
X13129815Y-12571793D02*
X13120292Y-12609888D01*
X13120292Y-12609888D02*
X13110768Y-12628936D01*
X13110768Y-12628936D02*
X13101244Y-12638460D01*
X13101244Y-12638460D02*
X13082196Y-12647984D01*
X13082196Y-12647984D02*
X13063149Y-12647984D01*
X13063149Y-12647984D02*
X13044101Y-12638460D01*
X13044101Y-12638460D02*
X13034577Y-12628936D01*
X13034577Y-12628936D02*
X13025053Y-12609888D01*
X13025053Y-12609888D02*
X13015530Y-12571793D01*
X13015530Y-12571793D02*
X13015530Y-12524174D01*
X13015530Y-12524174D02*
X13025053Y-12486079D01*
X13025053Y-12486079D02*
X13034577Y-12467031D01*
X13034577Y-12467031D02*
X13044101Y-12457508D01*
X13044101Y-12457508D02*
X13063149Y-12447984D01*
X13215530Y-12647984D02*
X13215530Y-12514650D01*
X13215530Y-12533698D02*
X13225053Y-12524174D01*
X13225053Y-12524174D02*
X13244101Y-12514650D01*
X13244101Y-12514650D02*
X13272673Y-12514650D01*
X13272673Y-12514650D02*
X13291720Y-12524174D01*
X13291720Y-12524174D02*
X13301244Y-12543222D01*
X13301244Y-12543222D02*
X13301244Y-12647984D01*
X13301244Y-12543222D02*
X13310768Y-12524174D01*
X13310768Y-12524174D02*
X13329815Y-12514650D01*
X13329815Y-12514650D02*
X13358387Y-12514650D01*
X13358387Y-12514650D02*
X13377434Y-12524174D01*
X13377434Y-12524174D02*
X13386958Y-12543222D01*
X13386958Y-12543222D02*
X13386958Y-12647984D01*
X13482196Y-12647984D02*
X13482196Y-12514650D01*
X13482196Y-12533698D02*
X13491720Y-12524174D01*
X13491720Y-12524174D02*
X13510768Y-12514650D01*
X13510768Y-12514650D02*
X13539339Y-12514650D01*
X13539339Y-12514650D02*
X13558387Y-12524174D01*
X13558387Y-12524174D02*
X13567911Y-12543222D01*
X13567911Y-12543222D02*
X13567911Y-12647984D01*
X13567911Y-12543222D02*
X13577434Y-12524174D01*
X13577434Y-12524174D02*
X13596482Y-12514650D01*
X13596482Y-12514650D02*
X13625053Y-12514650D01*
X13625053Y-12514650D02*
X13644101Y-12524174D01*
X13644101Y-12524174D02*
X13653625Y-12543222D01*
X13653625Y-12543222D02*
X13653625Y-12647984D01*
X14044101Y-12438460D02*
X13872673Y-12695603D01*
X14301244Y-12447984D02*
X14320292Y-12447984D01*
X14320292Y-12447984D02*
X14339339Y-12457508D01*
X14339339Y-12457508D02*
X14348863Y-12467031D01*
X14348863Y-12467031D02*
X14358387Y-12486079D01*
X14358387Y-12486079D02*
X14367911Y-12524174D01*
X14367911Y-12524174D02*
X14367911Y-12571793D01*
X14367911Y-12571793D02*
X14358387Y-12609888D01*
X14358387Y-12609888D02*
X14348863Y-12628936D01*
X14348863Y-12628936D02*
X14339339Y-12638460D01*
X14339339Y-12638460D02*
X14320292Y-12647984D01*
X14320292Y-12647984D02*
X14301244Y-12647984D01*
X14301244Y-12647984D02*
X14282196Y-12638460D01*
X14282196Y-12638460D02*
X14272673Y-12628936D01*
X14272673Y-12628936D02*
X14263149Y-12609888D01*
X14263149Y-12609888D02*
X14253625Y-12571793D01*
X14253625Y-12571793D02*
X14253625Y-12524174D01*
X14253625Y-12524174D02*
X14263149Y-12486079D01*
X14263149Y-12486079D02*
X14272673Y-12467031D01*
X14272673Y-12467031D02*
X14282196Y-12457508D01*
X14282196Y-12457508D02*
X14301244Y-12447984D01*
X14453625Y-12628936D02*
X14463149Y-12638460D01*
X14463149Y-12638460D02*
X14453625Y-12647984D01*
X14453625Y-12647984D02*
X14444101Y-12638460D01*
X14444101Y-12638460D02*
X14453625Y-12628936D01*
X14453625Y-12628936D02*
X14453625Y-12647984D01*
X14586958Y-12447984D02*
X14606006Y-12447984D01*
X14606006Y-12447984D02*
X14625054Y-12457508D01*
X14625054Y-12457508D02*
X14634577Y-12467031D01*
X14634577Y-12467031D02*
X14644101Y-12486079D01*
X14644101Y-12486079D02*
X14653625Y-12524174D01*
X14653625Y-12524174D02*
X14653625Y-12571793D01*
X14653625Y-12571793D02*
X14644101Y-12609888D01*
X14644101Y-12609888D02*
X14634577Y-12628936D01*
X14634577Y-12628936D02*
X14625054Y-12638460D01*
X14625054Y-12638460D02*
X14606006Y-12647984D01*
X14606006Y-12647984D02*
X14586958Y-12647984D01*
X14586958Y-12647984D02*
X14567911Y-12638460D01*
X14567911Y-12638460D02*
X14558387Y-12628936D01*
X14558387Y-12628936D02*
X14548863Y-12609888D01*
X14548863Y-12609888D02*
X14539339Y-12571793D01*
X14539339Y-12571793D02*
X14539339Y-12524174D01*
X14539339Y-12524174D02*
X14548863Y-12486079D01*
X14548863Y-12486079D02*
X14558387Y-12467031D01*
X14558387Y-12467031D02*
X14567911Y-12457508D01*
X14567911Y-12457508D02*
X14586958Y-12447984D01*
X14844101Y-12647984D02*
X14729816Y-12647984D01*
X14786958Y-12647984D02*
X14786958Y-12447984D01*
X14786958Y-12447984D02*
X14767911Y-12476555D01*
X14767911Y-12476555D02*
X14748863Y-12495603D01*
X14748863Y-12495603D02*
X14729816Y-12505127D01*
X14910768Y-12447984D02*
X15034577Y-12447984D01*
X15034577Y-12447984D02*
X14967911Y-12524174D01*
X14967911Y-12524174D02*
X14996482Y-12524174D01*
X14996482Y-12524174D02*
X15015530Y-12533698D01*
X15015530Y-12533698D02*
X15025054Y-12543222D01*
X15025054Y-12543222D02*
X15034577Y-12562269D01*
X15034577Y-12562269D02*
X15034577Y-12609888D01*
X15034577Y-12609888D02*
X15025054Y-12628936D01*
X15025054Y-12628936D02*
X15015530Y-12638460D01*
X15015530Y-12638460D02*
X14996482Y-12647984D01*
X14996482Y-12647984D02*
X14939339Y-12647984D01*
X14939339Y-12647984D02*
X14920292Y-12638460D01*
X14920292Y-12638460D02*
X14910768Y-12628936D01*
X15148863Y-12533698D02*
X15129816Y-12524174D01*
X15129816Y-12524174D02*
X15120292Y-12514650D01*
X15120292Y-12514650D02*
X15110768Y-12495603D01*
X15110768Y-12495603D02*
X15110768Y-12486079D01*
X15110768Y-12486079D02*
X15120292Y-12467031D01*
X15120292Y-12467031D02*
X15129816Y-12457508D01*
X15129816Y-12457508D02*
X15148863Y-12447984D01*
X15148863Y-12447984D02*
X15186958Y-12447984D01*
X15186958Y-12447984D02*
X15206006Y-12457508D01*
X15206006Y-12457508D02*
X15215530Y-12467031D01*
X15215530Y-12467031D02*
X15225054Y-12486079D01*
X15225054Y-12486079D02*
X15225054Y-12495603D01*
X15225054Y-12495603D02*
X15215530Y-12514650D01*
X15215530Y-12514650D02*
X15206006Y-12524174D01*
X15206006Y-12524174D02*
X15186958Y-12533698D01*
X15186958Y-12533698D02*
X15148863Y-12533698D01*
X15148863Y-12533698D02*
X15129816Y-12543222D01*
X15129816Y-12543222D02*
X15120292Y-12552746D01*
X15120292Y-12552746D02*
X15110768Y-12571793D01*
X15110768Y-12571793D02*
X15110768Y-12609888D01*
X15110768Y-12609888D02*
X15120292Y-12628936D01*
X15120292Y-12628936D02*
X15129816Y-12638460D01*
X15129816Y-12638460D02*
X15148863Y-12647984D01*
X15148863Y-12647984D02*
X15186958Y-12647984D01*
X15186958Y-12647984D02*
X15206006Y-12638460D01*
X15206006Y-12638460D02*
X15215530Y-12628936D01*
X15215530Y-12628936D02*
X15225054Y-12609888D01*
X15225054Y-12609888D02*
X15225054Y-12571793D01*
X15225054Y-12571793D02*
X15215530Y-12552746D01*
X15215530Y-12552746D02*
X15206006Y-12543222D01*
X15206006Y-12543222D02*
X15186958Y-12533698D01*
X15301244Y-12447984D02*
X15301244Y-12486079D01*
X15377435Y-12447984D02*
X15377435Y-12486079D01*
X15672673Y-12724174D02*
X15663149Y-12714650D01*
X15663149Y-12714650D02*
X15644101Y-12686079D01*
X15644101Y-12686079D02*
X15634578Y-12667031D01*
X15634578Y-12667031D02*
X15625054Y-12638460D01*
X15625054Y-12638460D02*
X15615530Y-12590841D01*
X15615530Y-12590841D02*
X15615530Y-12552746D01*
X15615530Y-12552746D02*
X15625054Y-12505127D01*
X15625054Y-12505127D02*
X15634578Y-12476555D01*
X15634578Y-12476555D02*
X15644101Y-12457508D01*
X15644101Y-12457508D02*
X15663149Y-12428936D01*
X15663149Y-12428936D02*
X15672673Y-12419412D01*
X15729816Y-12447984D02*
X15853625Y-12447984D01*
X15853625Y-12447984D02*
X15786958Y-12524174D01*
X15786958Y-12524174D02*
X15815530Y-12524174D01*
X15815530Y-12524174D02*
X15834578Y-12533698D01*
X15834578Y-12533698D02*
X15844101Y-12543222D01*
X15844101Y-12543222D02*
X15853625Y-12562269D01*
X15853625Y-12562269D02*
X15853625Y-12609888D01*
X15853625Y-12609888D02*
X15844101Y-12628936D01*
X15844101Y-12628936D02*
X15834578Y-12638460D01*
X15834578Y-12638460D02*
X15815530Y-12647984D01*
X15815530Y-12647984D02*
X15758387Y-12647984D01*
X15758387Y-12647984D02*
X15739339Y-12638460D01*
X15739339Y-12638460D02*
X15729816Y-12628936D01*
X15967911Y-12533698D02*
X15948863Y-12524174D01*
X15948863Y-12524174D02*
X15939339Y-12514650D01*
X15939339Y-12514650D02*
X15929816Y-12495603D01*
X15929816Y-12495603D02*
X15929816Y-12486079D01*
X15929816Y-12486079D02*
X15939339Y-12467031D01*
X15939339Y-12467031D02*
X15948863Y-12457508D01*
X15948863Y-12457508D02*
X15967911Y-12447984D01*
X15967911Y-12447984D02*
X16006006Y-12447984D01*
X16006006Y-12447984D02*
X16025054Y-12457508D01*
X16025054Y-12457508D02*
X16034578Y-12467031D01*
X16034578Y-12467031D02*
X16044101Y-12486079D01*
X16044101Y-12486079D02*
X16044101Y-12495603D01*
X16044101Y-12495603D02*
X16034578Y-12514650D01*
X16034578Y-12514650D02*
X16025054Y-12524174D01*
X16025054Y-12524174D02*
X16006006Y-12533698D01*
X16006006Y-12533698D02*
X15967911Y-12533698D01*
X15967911Y-12533698D02*
X15948863Y-12543222D01*
X15948863Y-12543222D02*
X15939339Y-12552746D01*
X15939339Y-12552746D02*
X15929816Y-12571793D01*
X15929816Y-12571793D02*
X15929816Y-12609888D01*
X15929816Y-12609888D02*
X15939339Y-12628936D01*
X15939339Y-12628936D02*
X15948863Y-12638460D01*
X15948863Y-12638460D02*
X15967911Y-12647984D01*
X15967911Y-12647984D02*
X16006006Y-12647984D01*
X16006006Y-12647984D02*
X16025054Y-12638460D01*
X16025054Y-12638460D02*
X16034578Y-12628936D01*
X16034578Y-12628936D02*
X16044101Y-12609888D01*
X16044101Y-12609888D02*
X16044101Y-12571793D01*
X16044101Y-12571793D02*
X16034578Y-12552746D01*
X16034578Y-12552746D02*
X16025054Y-12543222D01*
X16025054Y-12543222D02*
X16006006Y-12533698D01*
X16282197Y-12647984D02*
X16282197Y-12447984D01*
X16367911Y-12647984D02*
X16367911Y-12543222D01*
X16367911Y-12543222D02*
X16358387Y-12524174D01*
X16358387Y-12524174D02*
X16339340Y-12514650D01*
X16339340Y-12514650D02*
X16310768Y-12514650D01*
X16310768Y-12514650D02*
X16291720Y-12524174D01*
X16291720Y-12524174D02*
X16282197Y-12533698D01*
X16491720Y-12647984D02*
X16472673Y-12638460D01*
X16472673Y-12638460D02*
X16463149Y-12628936D01*
X16463149Y-12628936D02*
X16453625Y-12609888D01*
X16453625Y-12609888D02*
X16453625Y-12552746D01*
X16453625Y-12552746D02*
X16463149Y-12533698D01*
X16463149Y-12533698D02*
X16472673Y-12524174D01*
X16472673Y-12524174D02*
X16491720Y-12514650D01*
X16491720Y-12514650D02*
X16520292Y-12514650D01*
X16520292Y-12514650D02*
X16539340Y-12524174D01*
X16539340Y-12524174D02*
X16548863Y-12533698D01*
X16548863Y-12533698D02*
X16558387Y-12552746D01*
X16558387Y-12552746D02*
X16558387Y-12609888D01*
X16558387Y-12609888D02*
X16548863Y-12628936D01*
X16548863Y-12628936D02*
X16539340Y-12638460D01*
X16539340Y-12638460D02*
X16520292Y-12647984D01*
X16520292Y-12647984D02*
X16491720Y-12647984D01*
X16672673Y-12647984D02*
X16653625Y-12638460D01*
X16653625Y-12638460D02*
X16644101Y-12619412D01*
X16644101Y-12619412D02*
X16644101Y-12447984D01*
X16825054Y-12638460D02*
X16806006Y-12647984D01*
X16806006Y-12647984D02*
X16767911Y-12647984D01*
X16767911Y-12647984D02*
X16748863Y-12638460D01*
X16748863Y-12638460D02*
X16739340Y-12619412D01*
X16739340Y-12619412D02*
X16739340Y-12543222D01*
X16739340Y-12543222D02*
X16748863Y-12524174D01*
X16748863Y-12524174D02*
X16767911Y-12514650D01*
X16767911Y-12514650D02*
X16806006Y-12514650D01*
X16806006Y-12514650D02*
X16825054Y-12524174D01*
X16825054Y-12524174D02*
X16834578Y-12543222D01*
X16834578Y-12543222D02*
X16834578Y-12562269D01*
X16834578Y-12562269D02*
X16739340Y-12581317D01*
X16910768Y-12638460D02*
X16929816Y-12647984D01*
X16929816Y-12647984D02*
X16967911Y-12647984D01*
X16967911Y-12647984D02*
X16986959Y-12638460D01*
X16986959Y-12638460D02*
X16996483Y-12619412D01*
X16996483Y-12619412D02*
X16996483Y-12609888D01*
X16996483Y-12609888D02*
X16986959Y-12590841D01*
X16986959Y-12590841D02*
X16967911Y-12581317D01*
X16967911Y-12581317D02*
X16939340Y-12581317D01*
X16939340Y-12581317D02*
X16920292Y-12571793D01*
X16920292Y-12571793D02*
X16910768Y-12552746D01*
X16910768Y-12552746D02*
X16910768Y-12543222D01*
X16910768Y-12543222D02*
X16920292Y-12524174D01*
X16920292Y-12524174D02*
X16939340Y-12514650D01*
X16939340Y-12514650D02*
X16967911Y-12514650D01*
X16967911Y-12514650D02*
X16986959Y-12524174D01*
X17063149Y-12724174D02*
X17072673Y-12714650D01*
X17072673Y-12714650D02*
X17091721Y-12686079D01*
X17091721Y-12686079D02*
X17101244Y-12667031D01*
X17101244Y-12667031D02*
X17110768Y-12638460D01*
X17110768Y-12638460D02*
X17120292Y-12590841D01*
X17120292Y-12590841D02*
X17120292Y-12552746D01*
X17120292Y-12552746D02*
X17110768Y-12505127D01*
X17110768Y-12505127D02*
X17101244Y-12476555D01*
X17101244Y-12476555D02*
X17091721Y-12457508D01*
X17091721Y-12457508D02*
X17072673Y-12428936D01*
X17072673Y-12428936D02*
X17063149Y-12419412D01*
D13*
X12077610Y-12800500D02*
X12077610Y-12840500D01*
X12057610Y-12820500D02*
X12097610Y-12820500D01*
D11*
X12396482Y-12711984D02*
X12415530Y-12711984D01*
X12415530Y-12711984D02*
X12434577Y-12721508D01*
X12434577Y-12721508D02*
X12444101Y-12731031D01*
X12444101Y-12731031D02*
X12453625Y-12750079D01*
X12453625Y-12750079D02*
X12463149Y-12788174D01*
X12463149Y-12788174D02*
X12463149Y-12835793D01*
X12463149Y-12835793D02*
X12453625Y-12873888D01*
X12453625Y-12873888D02*
X12444101Y-12892936D01*
X12444101Y-12892936D02*
X12434577Y-12902460D01*
X12434577Y-12902460D02*
X12415530Y-12911984D01*
X12415530Y-12911984D02*
X12396482Y-12911984D01*
X12396482Y-12911984D02*
X12377434Y-12902460D01*
X12377434Y-12902460D02*
X12367911Y-12892936D01*
X12367911Y-12892936D02*
X12358387Y-12873888D01*
X12358387Y-12873888D02*
X12348863Y-12835793D01*
X12348863Y-12835793D02*
X12348863Y-12788174D01*
X12348863Y-12788174D02*
X12358387Y-12750079D01*
X12358387Y-12750079D02*
X12367911Y-12731031D01*
X12367911Y-12731031D02*
X12377434Y-12721508D01*
X12377434Y-12721508D02*
X12396482Y-12711984D01*
X12548863Y-12892936D02*
X12558387Y-12902460D01*
X12558387Y-12902460D02*
X12548863Y-12911984D01*
X12548863Y-12911984D02*
X12539339Y-12902460D01*
X12539339Y-12902460D02*
X12548863Y-12892936D01*
X12548863Y-12892936D02*
X12548863Y-12911984D01*
X12729815Y-12778650D02*
X12729815Y-12911984D01*
X12682196Y-12702460D02*
X12634577Y-12845317D01*
X12634577Y-12845317D02*
X12758387Y-12845317D01*
X12872672Y-12711984D02*
X12891720Y-12711984D01*
X12891720Y-12711984D02*
X12910768Y-12721508D01*
X12910768Y-12721508D02*
X12920292Y-12731031D01*
X12920292Y-12731031D02*
X12929815Y-12750079D01*
X12929815Y-12750079D02*
X12939339Y-12788174D01*
X12939339Y-12788174D02*
X12939339Y-12835793D01*
X12939339Y-12835793D02*
X12929815Y-12873888D01*
X12929815Y-12873888D02*
X12920292Y-12892936D01*
X12920292Y-12892936D02*
X12910768Y-12902460D01*
X12910768Y-12902460D02*
X12891720Y-12911984D01*
X12891720Y-12911984D02*
X12872672Y-12911984D01*
X12872672Y-12911984D02*
X12853625Y-12902460D01*
X12853625Y-12902460D02*
X12844101Y-12892936D01*
X12844101Y-12892936D02*
X12834577Y-12873888D01*
X12834577Y-12873888D02*
X12825053Y-12835793D01*
X12825053Y-12835793D02*
X12825053Y-12788174D01*
X12825053Y-12788174D02*
X12834577Y-12750079D01*
X12834577Y-12750079D02*
X12844101Y-12731031D01*
X12844101Y-12731031D02*
X12853625Y-12721508D01*
X12853625Y-12721508D02*
X12872672Y-12711984D01*
X13063149Y-12711984D02*
X13082196Y-12711984D01*
X13082196Y-12711984D02*
X13101244Y-12721508D01*
X13101244Y-12721508D02*
X13110768Y-12731031D01*
X13110768Y-12731031D02*
X13120292Y-12750079D01*
X13120292Y-12750079D02*
X13129815Y-12788174D01*
X13129815Y-12788174D02*
X13129815Y-12835793D01*
X13129815Y-12835793D02*
X13120292Y-12873888D01*
X13120292Y-12873888D02*
X13110768Y-12892936D01*
X13110768Y-12892936D02*
X13101244Y-12902460D01*
X13101244Y-12902460D02*
X13082196Y-12911984D01*
X13082196Y-12911984D02*
X13063149Y-12911984D01*
X13063149Y-12911984D02*
X13044101Y-12902460D01*
X13044101Y-12902460D02*
X13034577Y-12892936D01*
X13034577Y-12892936D02*
X13025053Y-12873888D01*
X13025053Y-12873888D02*
X13015530Y-12835793D01*
X13015530Y-12835793D02*
X13015530Y-12788174D01*
X13015530Y-12788174D02*
X13025053Y-12750079D01*
X13025053Y-12750079D02*
X13034577Y-12731031D01*
X13034577Y-12731031D02*
X13044101Y-12721508D01*
X13044101Y-12721508D02*
X13063149Y-12711984D01*
X13215530Y-12911984D02*
X13215530Y-12778650D01*
X13215530Y-12797698D02*
X13225053Y-12788174D01*
X13225053Y-12788174D02*
X13244101Y-12778650D01*
X13244101Y-12778650D02*
X13272673Y-12778650D01*
X13272673Y-12778650D02*
X13291720Y-12788174D01*
X13291720Y-12788174D02*
X13301244Y-12807222D01*
X13301244Y-12807222D02*
X13301244Y-12911984D01*
X13301244Y-12807222D02*
X13310768Y-12788174D01*
X13310768Y-12788174D02*
X13329815Y-12778650D01*
X13329815Y-12778650D02*
X13358387Y-12778650D01*
X13358387Y-12778650D02*
X13377434Y-12788174D01*
X13377434Y-12788174D02*
X13386958Y-12807222D01*
X13386958Y-12807222D02*
X13386958Y-12911984D01*
X13482196Y-12911984D02*
X13482196Y-12778650D01*
X13482196Y-12797698D02*
X13491720Y-12788174D01*
X13491720Y-12788174D02*
X13510768Y-12778650D01*
X13510768Y-12778650D02*
X13539339Y-12778650D01*
X13539339Y-12778650D02*
X13558387Y-12788174D01*
X13558387Y-12788174D02*
X13567911Y-12807222D01*
X13567911Y-12807222D02*
X13567911Y-12911984D01*
X13567911Y-12807222D02*
X13577434Y-12788174D01*
X13577434Y-12788174D02*
X13596482Y-12778650D01*
X13596482Y-12778650D02*
X13625053Y-12778650D01*
X13625053Y-12778650D02*
X13644101Y-12788174D01*
X13644101Y-12788174D02*
X13653625Y-12807222D01*
X13653625Y-12807222D02*
X13653625Y-12911984D01*
X14044101Y-12702460D02*
X13872673Y-12959603D01*
X14301244Y-12711984D02*
X14320292Y-12711984D01*
X14320292Y-12711984D02*
X14339339Y-12721508D01*
X14339339Y-12721508D02*
X14348863Y-12731031D01*
X14348863Y-12731031D02*
X14358387Y-12750079D01*
X14358387Y-12750079D02*
X14367911Y-12788174D01*
X14367911Y-12788174D02*
X14367911Y-12835793D01*
X14367911Y-12835793D02*
X14358387Y-12873888D01*
X14358387Y-12873888D02*
X14348863Y-12892936D01*
X14348863Y-12892936D02*
X14339339Y-12902460D01*
X14339339Y-12902460D02*
X14320292Y-12911984D01*
X14320292Y-12911984D02*
X14301244Y-12911984D01*
X14301244Y-12911984D02*
X14282196Y-12902460D01*
X14282196Y-12902460D02*
X14272673Y-12892936D01*
X14272673Y-12892936D02*
X14263149Y-12873888D01*
X14263149Y-12873888D02*
X14253625Y-12835793D01*
X14253625Y-12835793D02*
X14253625Y-12788174D01*
X14253625Y-12788174D02*
X14263149Y-12750079D01*
X14263149Y-12750079D02*
X14272673Y-12731031D01*
X14272673Y-12731031D02*
X14282196Y-12721508D01*
X14282196Y-12721508D02*
X14301244Y-12711984D01*
X14453625Y-12892936D02*
X14463149Y-12902460D01*
X14463149Y-12902460D02*
X14453625Y-12911984D01*
X14453625Y-12911984D02*
X14444101Y-12902460D01*
X14444101Y-12902460D02*
X14453625Y-12892936D01*
X14453625Y-12892936D02*
X14453625Y-12911984D01*
X14586958Y-12711984D02*
X14606006Y-12711984D01*
X14606006Y-12711984D02*
X14625054Y-12721508D01*
X14625054Y-12721508D02*
X14634577Y-12731031D01*
X14634577Y-12731031D02*
X14644101Y-12750079D01*
X14644101Y-12750079D02*
X14653625Y-12788174D01*
X14653625Y-12788174D02*
X14653625Y-12835793D01*
X14653625Y-12835793D02*
X14644101Y-12873888D01*
X14644101Y-12873888D02*
X14634577Y-12892936D01*
X14634577Y-12892936D02*
X14625054Y-12902460D01*
X14625054Y-12902460D02*
X14606006Y-12911984D01*
X14606006Y-12911984D02*
X14586958Y-12911984D01*
X14586958Y-12911984D02*
X14567911Y-12902460D01*
X14567911Y-12902460D02*
X14558387Y-12892936D01*
X14558387Y-12892936D02*
X14548863Y-12873888D01*
X14548863Y-12873888D02*
X14539339Y-12835793D01*
X14539339Y-12835793D02*
X14539339Y-12788174D01*
X14539339Y-12788174D02*
X14548863Y-12750079D01*
X14548863Y-12750079D02*
X14558387Y-12731031D01*
X14558387Y-12731031D02*
X14567911Y-12721508D01*
X14567911Y-12721508D02*
X14586958Y-12711984D01*
X14844101Y-12911984D02*
X14729816Y-12911984D01*
X14786958Y-12911984D02*
X14786958Y-12711984D01*
X14786958Y-12711984D02*
X14767911Y-12740555D01*
X14767911Y-12740555D02*
X14748863Y-12759603D01*
X14748863Y-12759603D02*
X14729816Y-12769127D01*
X15025054Y-12711984D02*
X14929816Y-12711984D01*
X14929816Y-12711984D02*
X14920292Y-12807222D01*
X14920292Y-12807222D02*
X14929816Y-12797698D01*
X14929816Y-12797698D02*
X14948863Y-12788174D01*
X14948863Y-12788174D02*
X14996482Y-12788174D01*
X14996482Y-12788174D02*
X15015530Y-12797698D01*
X15015530Y-12797698D02*
X15025054Y-12807222D01*
X15025054Y-12807222D02*
X15034577Y-12826269D01*
X15034577Y-12826269D02*
X15034577Y-12873888D01*
X15034577Y-12873888D02*
X15025054Y-12892936D01*
X15025054Y-12892936D02*
X15015530Y-12902460D01*
X15015530Y-12902460D02*
X14996482Y-12911984D01*
X14996482Y-12911984D02*
X14948863Y-12911984D01*
X14948863Y-12911984D02*
X14929816Y-12902460D01*
X14929816Y-12902460D02*
X14920292Y-12892936D01*
X15101244Y-12711984D02*
X15234577Y-12711984D01*
X15234577Y-12711984D02*
X15148863Y-12911984D01*
X15301244Y-12711984D02*
X15301244Y-12750079D01*
X15377435Y-12711984D02*
X15377435Y-12750079D01*
X15672673Y-12988174D02*
X15663149Y-12978650D01*
X15663149Y-12978650D02*
X15644101Y-12950079D01*
X15644101Y-12950079D02*
X15634578Y-12931031D01*
X15634578Y-12931031D02*
X15625054Y-12902460D01*
X15625054Y-12902460D02*
X15615530Y-12854841D01*
X15615530Y-12854841D02*
X15615530Y-12816746D01*
X15615530Y-12816746D02*
X15625054Y-12769127D01*
X15625054Y-12769127D02*
X15634578Y-12740555D01*
X15634578Y-12740555D02*
X15644101Y-12721508D01*
X15644101Y-12721508D02*
X15663149Y-12692936D01*
X15663149Y-12692936D02*
X15672673Y-12683412D01*
X15739339Y-12731031D02*
X15748863Y-12721508D01*
X15748863Y-12721508D02*
X15767911Y-12711984D01*
X15767911Y-12711984D02*
X15815530Y-12711984D01*
X15815530Y-12711984D02*
X15834578Y-12721508D01*
X15834578Y-12721508D02*
X15844101Y-12731031D01*
X15844101Y-12731031D02*
X15853625Y-12750079D01*
X15853625Y-12750079D02*
X15853625Y-12769127D01*
X15853625Y-12769127D02*
X15844101Y-12797698D01*
X15844101Y-12797698D02*
X15729816Y-12911984D01*
X15729816Y-12911984D02*
X15853625Y-12911984D01*
X15977435Y-12711984D02*
X15996482Y-12711984D01*
X15996482Y-12711984D02*
X16015530Y-12721508D01*
X16015530Y-12721508D02*
X16025054Y-12731031D01*
X16025054Y-12731031D02*
X16034578Y-12750079D01*
X16034578Y-12750079D02*
X16044101Y-12788174D01*
X16044101Y-12788174D02*
X16044101Y-12835793D01*
X16044101Y-12835793D02*
X16034578Y-12873888D01*
X16034578Y-12873888D02*
X16025054Y-12892936D01*
X16025054Y-12892936D02*
X16015530Y-12902460D01*
X16015530Y-12902460D02*
X15996482Y-12911984D01*
X15996482Y-12911984D02*
X15977435Y-12911984D01*
X15977435Y-12911984D02*
X15958387Y-12902460D01*
X15958387Y-12902460D02*
X15948863Y-12892936D01*
X15948863Y-12892936D02*
X15939339Y-12873888D01*
X15939339Y-12873888D02*
X15929816Y-12835793D01*
X15929816Y-12835793D02*
X15929816Y-12788174D01*
X15929816Y-12788174D02*
X15939339Y-12750079D01*
X15939339Y-12750079D02*
X15948863Y-12731031D01*
X15948863Y-12731031D02*
X15958387Y-12721508D01*
X15958387Y-12721508D02*
X15977435Y-12711984D01*
X16282197Y-12911984D02*
X16282197Y-12711984D01*
X16367911Y-12911984D02*
X16367911Y-12807222D01*
X16367911Y-12807222D02*
X16358387Y-12788174D01*
X16358387Y-12788174D02*
X16339340Y-12778650D01*
X16339340Y-12778650D02*
X16310768Y-12778650D01*
X16310768Y-12778650D02*
X16291720Y-12788174D01*
X16291720Y-12788174D02*
X16282197Y-12797698D01*
X16491720Y-12911984D02*
X16472673Y-12902460D01*
X16472673Y-12902460D02*
X16463149Y-12892936D01*
X16463149Y-12892936D02*
X16453625Y-12873888D01*
X16453625Y-12873888D02*
X16453625Y-12816746D01*
X16453625Y-12816746D02*
X16463149Y-12797698D01*
X16463149Y-12797698D02*
X16472673Y-12788174D01*
X16472673Y-12788174D02*
X16491720Y-12778650D01*
X16491720Y-12778650D02*
X16520292Y-12778650D01*
X16520292Y-12778650D02*
X16539340Y-12788174D01*
X16539340Y-12788174D02*
X16548863Y-12797698D01*
X16548863Y-12797698D02*
X16558387Y-12816746D01*
X16558387Y-12816746D02*
X16558387Y-12873888D01*
X16558387Y-12873888D02*
X16548863Y-12892936D01*
X16548863Y-12892936D02*
X16539340Y-12902460D01*
X16539340Y-12902460D02*
X16520292Y-12911984D01*
X16520292Y-12911984D02*
X16491720Y-12911984D01*
X16672673Y-12911984D02*
X16653625Y-12902460D01*
X16653625Y-12902460D02*
X16644101Y-12883412D01*
X16644101Y-12883412D02*
X16644101Y-12711984D01*
X16825054Y-12902460D02*
X16806006Y-12911984D01*
X16806006Y-12911984D02*
X16767911Y-12911984D01*
X16767911Y-12911984D02*
X16748863Y-12902460D01*
X16748863Y-12902460D02*
X16739340Y-12883412D01*
X16739340Y-12883412D02*
X16739340Y-12807222D01*
X16739340Y-12807222D02*
X16748863Y-12788174D01*
X16748863Y-12788174D02*
X16767911Y-12778650D01*
X16767911Y-12778650D02*
X16806006Y-12778650D01*
X16806006Y-12778650D02*
X16825054Y-12788174D01*
X16825054Y-12788174D02*
X16834578Y-12807222D01*
X16834578Y-12807222D02*
X16834578Y-12826269D01*
X16834578Y-12826269D02*
X16739340Y-12845317D01*
X16910768Y-12902460D02*
X16929816Y-12911984D01*
X16929816Y-12911984D02*
X16967911Y-12911984D01*
X16967911Y-12911984D02*
X16986959Y-12902460D01*
X16986959Y-12902460D02*
X16996483Y-12883412D01*
X16996483Y-12883412D02*
X16996483Y-12873888D01*
X16996483Y-12873888D02*
X16986959Y-12854841D01*
X16986959Y-12854841D02*
X16967911Y-12845317D01*
X16967911Y-12845317D02*
X16939340Y-12845317D01*
X16939340Y-12845317D02*
X16920292Y-12835793D01*
X16920292Y-12835793D02*
X16910768Y-12816746D01*
X16910768Y-12816746D02*
X16910768Y-12807222D01*
X16910768Y-12807222D02*
X16920292Y-12788174D01*
X16920292Y-12788174D02*
X16939340Y-12778650D01*
X16939340Y-12778650D02*
X16967911Y-12778650D01*
X16967911Y-12778650D02*
X16986959Y-12788174D01*
X17063149Y-12988174D02*
X17072673Y-12978650D01*
X17072673Y-12978650D02*
X17091721Y-12950079D01*
X17091721Y-12950079D02*
X17101244Y-12931031D01*
X17101244Y-12931031D02*
X17110768Y-12902460D01*
X17110768Y-12902460D02*
X17120292Y-12854841D01*
X17120292Y-12854841D02*
X17120292Y-12816746D01*
X17120292Y-12816746D02*
X17110768Y-12769127D01*
X17110768Y-12769127D02*
X17101244Y-12740555D01*
X17101244Y-12740555D02*
X17091721Y-12721508D01*
X17091721Y-12721508D02*
X17072673Y-12692936D01*
X17072673Y-12692936D02*
X17063149Y-12683412D01*
D14*
X12088091Y-13107481D02*
X12088091Y-13061519D01*
X12042129Y-13061519D01*
X12042129Y-13107481D01*
X12088091Y-13107481D01*
D11*
X12396482Y-12975984D02*
X12415530Y-12975984D01*
X12415530Y-12975984D02*
X12434577Y-12985508D01*
X12434577Y-12985508D02*
X12444101Y-12995031D01*
X12444101Y-12995031D02*
X12453625Y-13014079D01*
X12453625Y-13014079D02*
X12463149Y-13052174D01*
X12463149Y-13052174D02*
X12463149Y-13099793D01*
X12463149Y-13099793D02*
X12453625Y-13137888D01*
X12453625Y-13137888D02*
X12444101Y-13156936D01*
X12444101Y-13156936D02*
X12434577Y-13166460D01*
X12434577Y-13166460D02*
X12415530Y-13175984D01*
X12415530Y-13175984D02*
X12396482Y-13175984D01*
X12396482Y-13175984D02*
X12377434Y-13166460D01*
X12377434Y-13166460D02*
X12367911Y-13156936D01*
X12367911Y-13156936D02*
X12358387Y-13137888D01*
X12358387Y-13137888D02*
X12348863Y-13099793D01*
X12348863Y-13099793D02*
X12348863Y-13052174D01*
X12348863Y-13052174D02*
X12358387Y-13014079D01*
X12358387Y-13014079D02*
X12367911Y-12995031D01*
X12367911Y-12995031D02*
X12377434Y-12985508D01*
X12377434Y-12985508D02*
X12396482Y-12975984D01*
X12548863Y-13156936D02*
X12558387Y-13166460D01*
X12558387Y-13166460D02*
X12548863Y-13175984D01*
X12548863Y-13175984D02*
X12539339Y-13166460D01*
X12539339Y-13166460D02*
X12548863Y-13156936D01*
X12548863Y-13156936D02*
X12548863Y-13175984D01*
X12729815Y-12975984D02*
X12691720Y-12975984D01*
X12691720Y-12975984D02*
X12672672Y-12985508D01*
X12672672Y-12985508D02*
X12663149Y-12995031D01*
X12663149Y-12995031D02*
X12644101Y-13023603D01*
X12644101Y-13023603D02*
X12634577Y-13061698D01*
X12634577Y-13061698D02*
X12634577Y-13137888D01*
X12634577Y-13137888D02*
X12644101Y-13156936D01*
X12644101Y-13156936D02*
X12653625Y-13166460D01*
X12653625Y-13166460D02*
X12672672Y-13175984D01*
X12672672Y-13175984D02*
X12710768Y-13175984D01*
X12710768Y-13175984D02*
X12729815Y-13166460D01*
X12729815Y-13166460D02*
X12739339Y-13156936D01*
X12739339Y-13156936D02*
X12748863Y-13137888D01*
X12748863Y-13137888D02*
X12748863Y-13090269D01*
X12748863Y-13090269D02*
X12739339Y-13071222D01*
X12739339Y-13071222D02*
X12729815Y-13061698D01*
X12729815Y-13061698D02*
X12710768Y-13052174D01*
X12710768Y-13052174D02*
X12672672Y-13052174D01*
X12672672Y-13052174D02*
X12653625Y-13061698D01*
X12653625Y-13061698D02*
X12644101Y-13071222D01*
X12644101Y-13071222D02*
X12634577Y-13090269D01*
X12929815Y-12975984D02*
X12834577Y-12975984D01*
X12834577Y-12975984D02*
X12825053Y-13071222D01*
X12825053Y-13071222D02*
X12834577Y-13061698D01*
X12834577Y-13061698D02*
X12853625Y-13052174D01*
X12853625Y-13052174D02*
X12901244Y-13052174D01*
X12901244Y-13052174D02*
X12920292Y-13061698D01*
X12920292Y-13061698D02*
X12929815Y-13071222D01*
X12929815Y-13071222D02*
X12939339Y-13090269D01*
X12939339Y-13090269D02*
X12939339Y-13137888D01*
X12939339Y-13137888D02*
X12929815Y-13156936D01*
X12929815Y-13156936D02*
X12920292Y-13166460D01*
X12920292Y-13166460D02*
X12901244Y-13175984D01*
X12901244Y-13175984D02*
X12853625Y-13175984D01*
X12853625Y-13175984D02*
X12834577Y-13166460D01*
X12834577Y-13166460D02*
X12825053Y-13156936D01*
X13063149Y-12975984D02*
X13082196Y-12975984D01*
X13082196Y-12975984D02*
X13101244Y-12985508D01*
X13101244Y-12985508D02*
X13110768Y-12995031D01*
X13110768Y-12995031D02*
X13120292Y-13014079D01*
X13120292Y-13014079D02*
X13129815Y-13052174D01*
X13129815Y-13052174D02*
X13129815Y-13099793D01*
X13129815Y-13099793D02*
X13120292Y-13137888D01*
X13120292Y-13137888D02*
X13110768Y-13156936D01*
X13110768Y-13156936D02*
X13101244Y-13166460D01*
X13101244Y-13166460D02*
X13082196Y-13175984D01*
X13082196Y-13175984D02*
X13063149Y-13175984D01*
X13063149Y-13175984D02*
X13044101Y-13166460D01*
X13044101Y-13166460D02*
X13034577Y-13156936D01*
X13034577Y-13156936D02*
X13025053Y-13137888D01*
X13025053Y-13137888D02*
X13015530Y-13099793D01*
X13015530Y-13099793D02*
X13015530Y-13052174D01*
X13015530Y-13052174D02*
X13025053Y-13014079D01*
X13025053Y-13014079D02*
X13034577Y-12995031D01*
X13034577Y-12995031D02*
X13044101Y-12985508D01*
X13044101Y-12985508D02*
X13063149Y-12975984D01*
X13215530Y-13175984D02*
X13215530Y-13042650D01*
X13215530Y-13061698D02*
X13225053Y-13052174D01*
X13225053Y-13052174D02*
X13244101Y-13042650D01*
X13244101Y-13042650D02*
X13272673Y-13042650D01*
X13272673Y-13042650D02*
X13291720Y-13052174D01*
X13291720Y-13052174D02*
X13301244Y-13071222D01*
X13301244Y-13071222D02*
X13301244Y-13175984D01*
X13301244Y-13071222D02*
X13310768Y-13052174D01*
X13310768Y-13052174D02*
X13329815Y-13042650D01*
X13329815Y-13042650D02*
X13358387Y-13042650D01*
X13358387Y-13042650D02*
X13377434Y-13052174D01*
X13377434Y-13052174D02*
X13386958Y-13071222D01*
X13386958Y-13071222D02*
X13386958Y-13175984D01*
X13482196Y-13175984D02*
X13482196Y-13042650D01*
X13482196Y-13061698D02*
X13491720Y-13052174D01*
X13491720Y-13052174D02*
X13510768Y-13042650D01*
X13510768Y-13042650D02*
X13539339Y-13042650D01*
X13539339Y-13042650D02*
X13558387Y-13052174D01*
X13558387Y-13052174D02*
X13567911Y-13071222D01*
X13567911Y-13071222D02*
X13567911Y-13175984D01*
X13567911Y-13071222D02*
X13577434Y-13052174D01*
X13577434Y-13052174D02*
X13596482Y-13042650D01*
X13596482Y-13042650D02*
X13625053Y-13042650D01*
X13625053Y-13042650D02*
X13644101Y-13052174D01*
X13644101Y-13052174D02*
X13653625Y-13071222D01*
X13653625Y-13071222D02*
X13653625Y-13175984D01*
X14044101Y-12966460D02*
X13872673Y-13223603D01*
X14301244Y-12975984D02*
X14320292Y-12975984D01*
X14320292Y-12975984D02*
X14339339Y-12985508D01*
X14339339Y-12985508D02*
X14348863Y-12995031D01*
X14348863Y-12995031D02*
X14358387Y-13014079D01*
X14358387Y-13014079D02*
X14367911Y-13052174D01*
X14367911Y-13052174D02*
X14367911Y-13099793D01*
X14367911Y-13099793D02*
X14358387Y-13137888D01*
X14358387Y-13137888D02*
X14348863Y-13156936D01*
X14348863Y-13156936D02*
X14339339Y-13166460D01*
X14339339Y-13166460D02*
X14320292Y-13175984D01*
X14320292Y-13175984D02*
X14301244Y-13175984D01*
X14301244Y-13175984D02*
X14282196Y-13166460D01*
X14282196Y-13166460D02*
X14272673Y-13156936D01*
X14272673Y-13156936D02*
X14263149Y-13137888D01*
X14263149Y-13137888D02*
X14253625Y-13099793D01*
X14253625Y-13099793D02*
X14253625Y-13052174D01*
X14253625Y-13052174D02*
X14263149Y-13014079D01*
X14263149Y-13014079D02*
X14272673Y-12995031D01*
X14272673Y-12995031D02*
X14282196Y-12985508D01*
X14282196Y-12985508D02*
X14301244Y-12975984D01*
X14453625Y-13156936D02*
X14463149Y-13166460D01*
X14463149Y-13166460D02*
X14453625Y-13175984D01*
X14453625Y-13175984D02*
X14444101Y-13166460D01*
X14444101Y-13166460D02*
X14453625Y-13156936D01*
X14453625Y-13156936D02*
X14453625Y-13175984D01*
X14586958Y-12975984D02*
X14606006Y-12975984D01*
X14606006Y-12975984D02*
X14625054Y-12985508D01*
X14625054Y-12985508D02*
X14634577Y-12995031D01*
X14634577Y-12995031D02*
X14644101Y-13014079D01*
X14644101Y-13014079D02*
X14653625Y-13052174D01*
X14653625Y-13052174D02*
X14653625Y-13099793D01*
X14653625Y-13099793D02*
X14644101Y-13137888D01*
X14644101Y-13137888D02*
X14634577Y-13156936D01*
X14634577Y-13156936D02*
X14625054Y-13166460D01*
X14625054Y-13166460D02*
X14606006Y-13175984D01*
X14606006Y-13175984D02*
X14586958Y-13175984D01*
X14586958Y-13175984D02*
X14567911Y-13166460D01*
X14567911Y-13166460D02*
X14558387Y-13156936D01*
X14558387Y-13156936D02*
X14548863Y-13137888D01*
X14548863Y-13137888D02*
X14539339Y-13099793D01*
X14539339Y-13099793D02*
X14539339Y-13052174D01*
X14539339Y-13052174D02*
X14548863Y-13014079D01*
X14548863Y-13014079D02*
X14558387Y-12995031D01*
X14558387Y-12995031D02*
X14567911Y-12985508D01*
X14567911Y-12985508D02*
X14586958Y-12975984D01*
X14729816Y-12995031D02*
X14739339Y-12985508D01*
X14739339Y-12985508D02*
X14758387Y-12975984D01*
X14758387Y-12975984D02*
X14806006Y-12975984D01*
X14806006Y-12975984D02*
X14825054Y-12985508D01*
X14825054Y-12985508D02*
X14834577Y-12995031D01*
X14834577Y-12995031D02*
X14844101Y-13014079D01*
X14844101Y-13014079D02*
X14844101Y-13033127D01*
X14844101Y-13033127D02*
X14834577Y-13061698D01*
X14834577Y-13061698D02*
X14720292Y-13175984D01*
X14720292Y-13175984D02*
X14844101Y-13175984D01*
X15025054Y-12975984D02*
X14929816Y-12975984D01*
X14929816Y-12975984D02*
X14920292Y-13071222D01*
X14920292Y-13071222D02*
X14929816Y-13061698D01*
X14929816Y-13061698D02*
X14948863Y-13052174D01*
X14948863Y-13052174D02*
X14996482Y-13052174D01*
X14996482Y-13052174D02*
X15015530Y-13061698D01*
X15015530Y-13061698D02*
X15025054Y-13071222D01*
X15025054Y-13071222D02*
X15034577Y-13090269D01*
X15034577Y-13090269D02*
X15034577Y-13137888D01*
X15034577Y-13137888D02*
X15025054Y-13156936D01*
X15025054Y-13156936D02*
X15015530Y-13166460D01*
X15015530Y-13166460D02*
X14996482Y-13175984D01*
X14996482Y-13175984D02*
X14948863Y-13175984D01*
X14948863Y-13175984D02*
X14929816Y-13166460D01*
X14929816Y-13166460D02*
X14920292Y-13156936D01*
X15206006Y-12975984D02*
X15167911Y-12975984D01*
X15167911Y-12975984D02*
X15148863Y-12985508D01*
X15148863Y-12985508D02*
X15139339Y-12995031D01*
X15139339Y-12995031D02*
X15120292Y-13023603D01*
X15120292Y-13023603D02*
X15110768Y-13061698D01*
X15110768Y-13061698D02*
X15110768Y-13137888D01*
X15110768Y-13137888D02*
X15120292Y-13156936D01*
X15120292Y-13156936D02*
X15129816Y-13166460D01*
X15129816Y-13166460D02*
X15148863Y-13175984D01*
X15148863Y-13175984D02*
X15186958Y-13175984D01*
X15186958Y-13175984D02*
X15206006Y-13166460D01*
X15206006Y-13166460D02*
X15215530Y-13156936D01*
X15215530Y-13156936D02*
X15225054Y-13137888D01*
X15225054Y-13137888D02*
X15225054Y-13090269D01*
X15225054Y-13090269D02*
X15215530Y-13071222D01*
X15215530Y-13071222D02*
X15206006Y-13061698D01*
X15206006Y-13061698D02*
X15186958Y-13052174D01*
X15186958Y-13052174D02*
X15148863Y-13052174D01*
X15148863Y-13052174D02*
X15129816Y-13061698D01*
X15129816Y-13061698D02*
X15120292Y-13071222D01*
X15120292Y-13071222D02*
X15110768Y-13090269D01*
X15301244Y-12975984D02*
X15301244Y-13014079D01*
X15377435Y-12975984D02*
X15377435Y-13014079D01*
X15672673Y-13252174D02*
X15663149Y-13242650D01*
X15663149Y-13242650D02*
X15644101Y-13214079D01*
X15644101Y-13214079D02*
X15634578Y-13195031D01*
X15634578Y-13195031D02*
X15625054Y-13166460D01*
X15625054Y-13166460D02*
X15615530Y-13118841D01*
X15615530Y-13118841D02*
X15615530Y-13080746D01*
X15615530Y-13080746D02*
X15625054Y-13033127D01*
X15625054Y-13033127D02*
X15634578Y-13004555D01*
X15634578Y-13004555D02*
X15644101Y-12985508D01*
X15644101Y-12985508D02*
X15663149Y-12956936D01*
X15663149Y-12956936D02*
X15672673Y-12947412D01*
X15786958Y-12975984D02*
X15806006Y-12975984D01*
X15806006Y-12975984D02*
X15825054Y-12985508D01*
X15825054Y-12985508D02*
X15834578Y-12995031D01*
X15834578Y-12995031D02*
X15844101Y-13014079D01*
X15844101Y-13014079D02*
X15853625Y-13052174D01*
X15853625Y-13052174D02*
X15853625Y-13099793D01*
X15853625Y-13099793D02*
X15844101Y-13137888D01*
X15844101Y-13137888D02*
X15834578Y-13156936D01*
X15834578Y-13156936D02*
X15825054Y-13166460D01*
X15825054Y-13166460D02*
X15806006Y-13175984D01*
X15806006Y-13175984D02*
X15786958Y-13175984D01*
X15786958Y-13175984D02*
X15767911Y-13166460D01*
X15767911Y-13166460D02*
X15758387Y-13156936D01*
X15758387Y-13156936D02*
X15748863Y-13137888D01*
X15748863Y-13137888D02*
X15739339Y-13099793D01*
X15739339Y-13099793D02*
X15739339Y-13052174D01*
X15739339Y-13052174D02*
X15748863Y-13014079D01*
X15748863Y-13014079D02*
X15758387Y-12995031D01*
X15758387Y-12995031D02*
X15767911Y-12985508D01*
X15767911Y-12985508D02*
X15786958Y-12975984D01*
X16091720Y-13175984D02*
X16091720Y-12975984D01*
X16177435Y-13175984D02*
X16177435Y-13071222D01*
X16177435Y-13071222D02*
X16167911Y-13052174D01*
X16167911Y-13052174D02*
X16148863Y-13042650D01*
X16148863Y-13042650D02*
X16120292Y-13042650D01*
X16120292Y-13042650D02*
X16101244Y-13052174D01*
X16101244Y-13052174D02*
X16091720Y-13061698D01*
X16301244Y-13175984D02*
X16282197Y-13166460D01*
X16282197Y-13166460D02*
X16272673Y-13156936D01*
X16272673Y-13156936D02*
X16263149Y-13137888D01*
X16263149Y-13137888D02*
X16263149Y-13080746D01*
X16263149Y-13080746D02*
X16272673Y-13061698D01*
X16272673Y-13061698D02*
X16282197Y-13052174D01*
X16282197Y-13052174D02*
X16301244Y-13042650D01*
X16301244Y-13042650D02*
X16329816Y-13042650D01*
X16329816Y-13042650D02*
X16348863Y-13052174D01*
X16348863Y-13052174D02*
X16358387Y-13061698D01*
X16358387Y-13061698D02*
X16367911Y-13080746D01*
X16367911Y-13080746D02*
X16367911Y-13137888D01*
X16367911Y-13137888D02*
X16358387Y-13156936D01*
X16358387Y-13156936D02*
X16348863Y-13166460D01*
X16348863Y-13166460D02*
X16329816Y-13175984D01*
X16329816Y-13175984D02*
X16301244Y-13175984D01*
X16482197Y-13175984D02*
X16463149Y-13166460D01*
X16463149Y-13166460D02*
X16453625Y-13147412D01*
X16453625Y-13147412D02*
X16453625Y-12975984D01*
X16634578Y-13166460D02*
X16615530Y-13175984D01*
X16615530Y-13175984D02*
X16577435Y-13175984D01*
X16577435Y-13175984D02*
X16558387Y-13166460D01*
X16558387Y-13166460D02*
X16548863Y-13147412D01*
X16548863Y-13147412D02*
X16548863Y-13071222D01*
X16548863Y-13071222D02*
X16558387Y-13052174D01*
X16558387Y-13052174D02*
X16577435Y-13042650D01*
X16577435Y-13042650D02*
X16615530Y-13042650D01*
X16615530Y-13042650D02*
X16634578Y-13052174D01*
X16634578Y-13052174D02*
X16644101Y-13071222D01*
X16644101Y-13071222D02*
X16644101Y-13090269D01*
X16644101Y-13090269D02*
X16548863Y-13109317D01*
X16720292Y-13166460D02*
X16739340Y-13175984D01*
X16739340Y-13175984D02*
X16777435Y-13175984D01*
X16777435Y-13175984D02*
X16796483Y-13166460D01*
X16796483Y-13166460D02*
X16806006Y-13147412D01*
X16806006Y-13147412D02*
X16806006Y-13137888D01*
X16806006Y-13137888D02*
X16796483Y-13118841D01*
X16796483Y-13118841D02*
X16777435Y-13109317D01*
X16777435Y-13109317D02*
X16748863Y-13109317D01*
X16748863Y-13109317D02*
X16729816Y-13099793D01*
X16729816Y-13099793D02*
X16720292Y-13080746D01*
X16720292Y-13080746D02*
X16720292Y-13071222D01*
X16720292Y-13071222D02*
X16729816Y-13052174D01*
X16729816Y-13052174D02*
X16748863Y-13042650D01*
X16748863Y-13042650D02*
X16777435Y-13042650D01*
X16777435Y-13042650D02*
X16796483Y-13052174D01*
X17044102Y-13099793D02*
X17196483Y-13099793D01*
X17120292Y-13175984D02*
X17120292Y-13023603D01*
X17529816Y-13042650D02*
X17529816Y-13175984D01*
X17482197Y-12966460D02*
X17434578Y-13109317D01*
X17434578Y-13109317D02*
X17558387Y-13109317D01*
X17777435Y-13166460D02*
X17796483Y-13175984D01*
X17796483Y-13175984D02*
X17834578Y-13175984D01*
X17834578Y-13175984D02*
X17853626Y-13166460D01*
X17853626Y-13166460D02*
X17863149Y-13147412D01*
X17863149Y-13147412D02*
X17863149Y-13137888D01*
X17863149Y-13137888D02*
X17853626Y-13118841D01*
X17853626Y-13118841D02*
X17834578Y-13109317D01*
X17834578Y-13109317D02*
X17806006Y-13109317D01*
X17806006Y-13109317D02*
X17786959Y-13099793D01*
X17786959Y-13099793D02*
X17777435Y-13080746D01*
X17777435Y-13080746D02*
X17777435Y-13071222D01*
X17777435Y-13071222D02*
X17786959Y-13052174D01*
X17786959Y-13052174D02*
X17806006Y-13042650D01*
X17806006Y-13042650D02*
X17834578Y-13042650D01*
X17834578Y-13042650D02*
X17853626Y-13052174D01*
X17977435Y-13175984D02*
X17958387Y-13166460D01*
X17958387Y-13166460D02*
X17948864Y-13147412D01*
X17948864Y-13147412D02*
X17948864Y-12975984D01*
X18082197Y-13175984D02*
X18063149Y-13166460D01*
X18063149Y-13166460D02*
X18053626Y-13156936D01*
X18053626Y-13156936D02*
X18044102Y-13137888D01*
X18044102Y-13137888D02*
X18044102Y-13080746D01*
X18044102Y-13080746D02*
X18053626Y-13061698D01*
X18053626Y-13061698D02*
X18063149Y-13052174D01*
X18063149Y-13052174D02*
X18082197Y-13042650D01*
X18082197Y-13042650D02*
X18110768Y-13042650D01*
X18110768Y-13042650D02*
X18129816Y-13052174D01*
X18129816Y-13052174D02*
X18139340Y-13061698D01*
X18139340Y-13061698D02*
X18148864Y-13080746D01*
X18148864Y-13080746D02*
X18148864Y-13137888D01*
X18148864Y-13137888D02*
X18139340Y-13156936D01*
X18139340Y-13156936D02*
X18129816Y-13166460D01*
X18129816Y-13166460D02*
X18110768Y-13175984D01*
X18110768Y-13175984D02*
X18082197Y-13175984D01*
X18206007Y-13042650D02*
X18282197Y-13042650D01*
X18234578Y-12975984D02*
X18234578Y-13147412D01*
X18234578Y-13147412D02*
X18244102Y-13166460D01*
X18244102Y-13166460D02*
X18263149Y-13175984D01*
X18263149Y-13175984D02*
X18282197Y-13175984D01*
X18339340Y-13166460D02*
X18358387Y-13175984D01*
X18358387Y-13175984D02*
X18396483Y-13175984D01*
X18396483Y-13175984D02*
X18415530Y-13166460D01*
X18415530Y-13166460D02*
X18425054Y-13147412D01*
X18425054Y-13147412D02*
X18425054Y-13137888D01*
X18425054Y-13137888D02*
X18415530Y-13118841D01*
X18415530Y-13118841D02*
X18396483Y-13109317D01*
X18396483Y-13109317D02*
X18367911Y-13109317D01*
X18367911Y-13109317D02*
X18348864Y-13099793D01*
X18348864Y-13099793D02*
X18339340Y-13080746D01*
X18339340Y-13080746D02*
X18339340Y-13071222D01*
X18339340Y-13071222D02*
X18348864Y-13052174D01*
X18348864Y-13052174D02*
X18367911Y-13042650D01*
X18367911Y-13042650D02*
X18396483Y-13042650D01*
X18396483Y-13042650D02*
X18415530Y-13052174D01*
X18491721Y-13252174D02*
X18501245Y-13242650D01*
X18501245Y-13242650D02*
X18520292Y-13214079D01*
X18520292Y-13214079D02*
X18529816Y-13195031D01*
X18529816Y-13195031D02*
X18539340Y-13166460D01*
X18539340Y-13166460D02*
X18548864Y-13118841D01*
X18548864Y-13118841D02*
X18548864Y-13080746D01*
X18548864Y-13080746D02*
X18539340Y-13033127D01*
X18539340Y-13033127D02*
X18529816Y-13004555D01*
X18529816Y-13004555D02*
X18520292Y-12985508D01*
X18520292Y-12985508D02*
X18501245Y-12956936D01*
X18501245Y-12956936D02*
X18491721Y-12947412D01*
D15*
X12057610Y-13388500D02*
X12097610Y-13348500D01*
X12057610Y-13308500D01*
X12017610Y-13348500D01*
X12057610Y-13388500D01*
D11*
X12396482Y-13239984D02*
X12415530Y-13239984D01*
X12415530Y-13239984D02*
X12434577Y-13249508D01*
X12434577Y-13249508D02*
X12444101Y-13259031D01*
X12444101Y-13259031D02*
X12453625Y-13278079D01*
X12453625Y-13278079D02*
X12463149Y-13316174D01*
X12463149Y-13316174D02*
X12463149Y-13363793D01*
X12463149Y-13363793D02*
X12453625Y-13401888D01*
X12453625Y-13401888D02*
X12444101Y-13420936D01*
X12444101Y-13420936D02*
X12434577Y-13430460D01*
X12434577Y-13430460D02*
X12415530Y-13439984D01*
X12415530Y-13439984D02*
X12396482Y-13439984D01*
X12396482Y-13439984D02*
X12377434Y-13430460D01*
X12377434Y-13430460D02*
X12367911Y-13420936D01*
X12367911Y-13420936D02*
X12358387Y-13401888D01*
X12358387Y-13401888D02*
X12348863Y-13363793D01*
X12348863Y-13363793D02*
X12348863Y-13316174D01*
X12348863Y-13316174D02*
X12358387Y-13278079D01*
X12358387Y-13278079D02*
X12367911Y-13259031D01*
X12367911Y-13259031D02*
X12377434Y-13249508D01*
X12377434Y-13249508D02*
X12396482Y-13239984D01*
X12548863Y-13420936D02*
X12558387Y-13430460D01*
X12558387Y-13430460D02*
X12548863Y-13439984D01*
X12548863Y-13439984D02*
X12539339Y-13430460D01*
X12539339Y-13430460D02*
X12548863Y-13420936D01*
X12548863Y-13420936D02*
X12548863Y-13439984D01*
X12672672Y-13325698D02*
X12653625Y-13316174D01*
X12653625Y-13316174D02*
X12644101Y-13306650D01*
X12644101Y-13306650D02*
X12634577Y-13287603D01*
X12634577Y-13287603D02*
X12634577Y-13278079D01*
X12634577Y-13278079D02*
X12644101Y-13259031D01*
X12644101Y-13259031D02*
X12653625Y-13249508D01*
X12653625Y-13249508D02*
X12672672Y-13239984D01*
X12672672Y-13239984D02*
X12710768Y-13239984D01*
X12710768Y-13239984D02*
X12729815Y-13249508D01*
X12729815Y-13249508D02*
X12739339Y-13259031D01*
X12739339Y-13259031D02*
X12748863Y-13278079D01*
X12748863Y-13278079D02*
X12748863Y-13287603D01*
X12748863Y-13287603D02*
X12739339Y-13306650D01*
X12739339Y-13306650D02*
X12729815Y-13316174D01*
X12729815Y-13316174D02*
X12710768Y-13325698D01*
X12710768Y-13325698D02*
X12672672Y-13325698D01*
X12672672Y-13325698D02*
X12653625Y-13335222D01*
X12653625Y-13335222D02*
X12644101Y-13344746D01*
X12644101Y-13344746D02*
X12634577Y-13363793D01*
X12634577Y-13363793D02*
X12634577Y-13401888D01*
X12634577Y-13401888D02*
X12644101Y-13420936D01*
X12644101Y-13420936D02*
X12653625Y-13430460D01*
X12653625Y-13430460D02*
X12672672Y-13439984D01*
X12672672Y-13439984D02*
X12710768Y-13439984D01*
X12710768Y-13439984D02*
X12729815Y-13430460D01*
X12729815Y-13430460D02*
X12739339Y-13420936D01*
X12739339Y-13420936D02*
X12748863Y-13401888D01*
X12748863Y-13401888D02*
X12748863Y-13363793D01*
X12748863Y-13363793D02*
X12739339Y-13344746D01*
X12739339Y-13344746D02*
X12729815Y-13335222D01*
X12729815Y-13335222D02*
X12710768Y-13325698D01*
X12872672Y-13239984D02*
X12891720Y-13239984D01*
X12891720Y-13239984D02*
X12910768Y-13249508D01*
X12910768Y-13249508D02*
X12920292Y-13259031D01*
X12920292Y-13259031D02*
X12929815Y-13278079D01*
X12929815Y-13278079D02*
X12939339Y-13316174D01*
X12939339Y-13316174D02*
X12939339Y-13363793D01*
X12939339Y-13363793D02*
X12929815Y-13401888D01*
X12929815Y-13401888D02*
X12920292Y-13420936D01*
X12920292Y-13420936D02*
X12910768Y-13430460D01*
X12910768Y-13430460D02*
X12891720Y-13439984D01*
X12891720Y-13439984D02*
X12872672Y-13439984D01*
X12872672Y-13439984D02*
X12853625Y-13430460D01*
X12853625Y-13430460D02*
X12844101Y-13420936D01*
X12844101Y-13420936D02*
X12834577Y-13401888D01*
X12834577Y-13401888D02*
X12825053Y-13363793D01*
X12825053Y-13363793D02*
X12825053Y-13316174D01*
X12825053Y-13316174D02*
X12834577Y-13278079D01*
X12834577Y-13278079D02*
X12844101Y-13259031D01*
X12844101Y-13259031D02*
X12853625Y-13249508D01*
X12853625Y-13249508D02*
X12872672Y-13239984D01*
X13063149Y-13239984D02*
X13082196Y-13239984D01*
X13082196Y-13239984D02*
X13101244Y-13249508D01*
X13101244Y-13249508D02*
X13110768Y-13259031D01*
X13110768Y-13259031D02*
X13120292Y-13278079D01*
X13120292Y-13278079D02*
X13129815Y-13316174D01*
X13129815Y-13316174D02*
X13129815Y-13363793D01*
X13129815Y-13363793D02*
X13120292Y-13401888D01*
X13120292Y-13401888D02*
X13110768Y-13420936D01*
X13110768Y-13420936D02*
X13101244Y-13430460D01*
X13101244Y-13430460D02*
X13082196Y-13439984D01*
X13082196Y-13439984D02*
X13063149Y-13439984D01*
X13063149Y-13439984D02*
X13044101Y-13430460D01*
X13044101Y-13430460D02*
X13034577Y-13420936D01*
X13034577Y-13420936D02*
X13025053Y-13401888D01*
X13025053Y-13401888D02*
X13015530Y-13363793D01*
X13015530Y-13363793D02*
X13015530Y-13316174D01*
X13015530Y-13316174D02*
X13025053Y-13278079D01*
X13025053Y-13278079D02*
X13034577Y-13259031D01*
X13034577Y-13259031D02*
X13044101Y-13249508D01*
X13044101Y-13249508D02*
X13063149Y-13239984D01*
X13215530Y-13439984D02*
X13215530Y-13306650D01*
X13215530Y-13325698D02*
X13225053Y-13316174D01*
X13225053Y-13316174D02*
X13244101Y-13306650D01*
X13244101Y-13306650D02*
X13272673Y-13306650D01*
X13272673Y-13306650D02*
X13291720Y-13316174D01*
X13291720Y-13316174D02*
X13301244Y-13335222D01*
X13301244Y-13335222D02*
X13301244Y-13439984D01*
X13301244Y-13335222D02*
X13310768Y-13316174D01*
X13310768Y-13316174D02*
X13329815Y-13306650D01*
X13329815Y-13306650D02*
X13358387Y-13306650D01*
X13358387Y-13306650D02*
X13377434Y-13316174D01*
X13377434Y-13316174D02*
X13386958Y-13335222D01*
X13386958Y-13335222D02*
X13386958Y-13439984D01*
X13482196Y-13439984D02*
X13482196Y-13306650D01*
X13482196Y-13325698D02*
X13491720Y-13316174D01*
X13491720Y-13316174D02*
X13510768Y-13306650D01*
X13510768Y-13306650D02*
X13539339Y-13306650D01*
X13539339Y-13306650D02*
X13558387Y-13316174D01*
X13558387Y-13316174D02*
X13567911Y-13335222D01*
X13567911Y-13335222D02*
X13567911Y-13439984D01*
X13567911Y-13335222D02*
X13577434Y-13316174D01*
X13577434Y-13316174D02*
X13596482Y-13306650D01*
X13596482Y-13306650D02*
X13625053Y-13306650D01*
X13625053Y-13306650D02*
X13644101Y-13316174D01*
X13644101Y-13316174D02*
X13653625Y-13335222D01*
X13653625Y-13335222D02*
X13653625Y-13439984D01*
X14044101Y-13230460D02*
X13872673Y-13487603D01*
X14301244Y-13239984D02*
X14320292Y-13239984D01*
X14320292Y-13239984D02*
X14339339Y-13249508D01*
X14339339Y-13249508D02*
X14348863Y-13259031D01*
X14348863Y-13259031D02*
X14358387Y-13278079D01*
X14358387Y-13278079D02*
X14367911Y-13316174D01*
X14367911Y-13316174D02*
X14367911Y-13363793D01*
X14367911Y-13363793D02*
X14358387Y-13401888D01*
X14358387Y-13401888D02*
X14348863Y-13420936D01*
X14348863Y-13420936D02*
X14339339Y-13430460D01*
X14339339Y-13430460D02*
X14320292Y-13439984D01*
X14320292Y-13439984D02*
X14301244Y-13439984D01*
X14301244Y-13439984D02*
X14282196Y-13430460D01*
X14282196Y-13430460D02*
X14272673Y-13420936D01*
X14272673Y-13420936D02*
X14263149Y-13401888D01*
X14263149Y-13401888D02*
X14253625Y-13363793D01*
X14253625Y-13363793D02*
X14253625Y-13316174D01*
X14253625Y-13316174D02*
X14263149Y-13278079D01*
X14263149Y-13278079D02*
X14272673Y-13259031D01*
X14272673Y-13259031D02*
X14282196Y-13249508D01*
X14282196Y-13249508D02*
X14301244Y-13239984D01*
X14453625Y-13420936D02*
X14463149Y-13430460D01*
X14463149Y-13430460D02*
X14453625Y-13439984D01*
X14453625Y-13439984D02*
X14444101Y-13430460D01*
X14444101Y-13430460D02*
X14453625Y-13420936D01*
X14453625Y-13420936D02*
X14453625Y-13439984D01*
X14586958Y-13239984D02*
X14606006Y-13239984D01*
X14606006Y-13239984D02*
X14625054Y-13249508D01*
X14625054Y-13249508D02*
X14634577Y-13259031D01*
X14634577Y-13259031D02*
X14644101Y-13278079D01*
X14644101Y-13278079D02*
X14653625Y-13316174D01*
X14653625Y-13316174D02*
X14653625Y-13363793D01*
X14653625Y-13363793D02*
X14644101Y-13401888D01*
X14644101Y-13401888D02*
X14634577Y-13420936D01*
X14634577Y-13420936D02*
X14625054Y-13430460D01*
X14625054Y-13430460D02*
X14606006Y-13439984D01*
X14606006Y-13439984D02*
X14586958Y-13439984D01*
X14586958Y-13439984D02*
X14567911Y-13430460D01*
X14567911Y-13430460D02*
X14558387Y-13420936D01*
X14558387Y-13420936D02*
X14548863Y-13401888D01*
X14548863Y-13401888D02*
X14539339Y-13363793D01*
X14539339Y-13363793D02*
X14539339Y-13316174D01*
X14539339Y-13316174D02*
X14548863Y-13278079D01*
X14548863Y-13278079D02*
X14558387Y-13259031D01*
X14558387Y-13259031D02*
X14567911Y-13249508D01*
X14567911Y-13249508D02*
X14586958Y-13239984D01*
X14720292Y-13239984D02*
X14844101Y-13239984D01*
X14844101Y-13239984D02*
X14777435Y-13316174D01*
X14777435Y-13316174D02*
X14806006Y-13316174D01*
X14806006Y-13316174D02*
X14825054Y-13325698D01*
X14825054Y-13325698D02*
X14834577Y-13335222D01*
X14834577Y-13335222D02*
X14844101Y-13354269D01*
X14844101Y-13354269D02*
X14844101Y-13401888D01*
X14844101Y-13401888D02*
X14834577Y-13420936D01*
X14834577Y-13420936D02*
X14825054Y-13430460D01*
X14825054Y-13430460D02*
X14806006Y-13439984D01*
X14806006Y-13439984D02*
X14748863Y-13439984D01*
X14748863Y-13439984D02*
X14729816Y-13430460D01*
X14729816Y-13430460D02*
X14720292Y-13420936D01*
X15034577Y-13439984D02*
X14920292Y-13439984D01*
X14977435Y-13439984D02*
X14977435Y-13239984D01*
X14977435Y-13239984D02*
X14958387Y-13268555D01*
X14958387Y-13268555D02*
X14939339Y-13287603D01*
X14939339Y-13287603D02*
X14920292Y-13297127D01*
X15215530Y-13239984D02*
X15120292Y-13239984D01*
X15120292Y-13239984D02*
X15110768Y-13335222D01*
X15110768Y-13335222D02*
X15120292Y-13325698D01*
X15120292Y-13325698D02*
X15139339Y-13316174D01*
X15139339Y-13316174D02*
X15186958Y-13316174D01*
X15186958Y-13316174D02*
X15206006Y-13325698D01*
X15206006Y-13325698D02*
X15215530Y-13335222D01*
X15215530Y-13335222D02*
X15225054Y-13354269D01*
X15225054Y-13354269D02*
X15225054Y-13401888D01*
X15225054Y-13401888D02*
X15215530Y-13420936D01*
X15215530Y-13420936D02*
X15206006Y-13430460D01*
X15206006Y-13430460D02*
X15186958Y-13439984D01*
X15186958Y-13439984D02*
X15139339Y-13439984D01*
X15139339Y-13439984D02*
X15120292Y-13430460D01*
X15120292Y-13430460D02*
X15110768Y-13420936D01*
X15301244Y-13239984D02*
X15301244Y-13278079D01*
X15377435Y-13239984D02*
X15377435Y-13278079D01*
X15672673Y-13516174D02*
X15663149Y-13506650D01*
X15663149Y-13506650D02*
X15644101Y-13478079D01*
X15644101Y-13478079D02*
X15634578Y-13459031D01*
X15634578Y-13459031D02*
X15625054Y-13430460D01*
X15625054Y-13430460D02*
X15615530Y-13382841D01*
X15615530Y-13382841D02*
X15615530Y-13344746D01*
X15615530Y-13344746D02*
X15625054Y-13297127D01*
X15625054Y-13297127D02*
X15634578Y-13268555D01*
X15634578Y-13268555D02*
X15644101Y-13249508D01*
X15644101Y-13249508D02*
X15663149Y-13220936D01*
X15663149Y-13220936D02*
X15672673Y-13211412D01*
X15834578Y-13306650D02*
X15834578Y-13439984D01*
X15786958Y-13230460D02*
X15739339Y-13373317D01*
X15739339Y-13373317D02*
X15863149Y-13373317D01*
X16091720Y-13439984D02*
X16091720Y-13239984D01*
X16177435Y-13439984D02*
X16177435Y-13335222D01*
X16177435Y-13335222D02*
X16167911Y-13316174D01*
X16167911Y-13316174D02*
X16148863Y-13306650D01*
X16148863Y-13306650D02*
X16120292Y-13306650D01*
X16120292Y-13306650D02*
X16101244Y-13316174D01*
X16101244Y-13316174D02*
X16091720Y-13325698D01*
X16301244Y-13439984D02*
X16282197Y-13430460D01*
X16282197Y-13430460D02*
X16272673Y-13420936D01*
X16272673Y-13420936D02*
X16263149Y-13401888D01*
X16263149Y-13401888D02*
X16263149Y-13344746D01*
X16263149Y-13344746D02*
X16272673Y-13325698D01*
X16272673Y-13325698D02*
X16282197Y-13316174D01*
X16282197Y-13316174D02*
X16301244Y-13306650D01*
X16301244Y-13306650D02*
X16329816Y-13306650D01*
X16329816Y-13306650D02*
X16348863Y-13316174D01*
X16348863Y-13316174D02*
X16358387Y-13325698D01*
X16358387Y-13325698D02*
X16367911Y-13344746D01*
X16367911Y-13344746D02*
X16367911Y-13401888D01*
X16367911Y-13401888D02*
X16358387Y-13420936D01*
X16358387Y-13420936D02*
X16348863Y-13430460D01*
X16348863Y-13430460D02*
X16329816Y-13439984D01*
X16329816Y-13439984D02*
X16301244Y-13439984D01*
X16482197Y-13439984D02*
X16463149Y-13430460D01*
X16463149Y-13430460D02*
X16453625Y-13411412D01*
X16453625Y-13411412D02*
X16453625Y-13239984D01*
X16634578Y-13430460D02*
X16615530Y-13439984D01*
X16615530Y-13439984D02*
X16577435Y-13439984D01*
X16577435Y-13439984D02*
X16558387Y-13430460D01*
X16558387Y-13430460D02*
X16548863Y-13411412D01*
X16548863Y-13411412D02*
X16548863Y-13335222D01*
X16548863Y-13335222D02*
X16558387Y-13316174D01*
X16558387Y-13316174D02*
X16577435Y-13306650D01*
X16577435Y-13306650D02*
X16615530Y-13306650D01*
X16615530Y-13306650D02*
X16634578Y-13316174D01*
X16634578Y-13316174D02*
X16644101Y-13335222D01*
X16644101Y-13335222D02*
X16644101Y-13354269D01*
X16644101Y-13354269D02*
X16548863Y-13373317D01*
X16720292Y-13430460D02*
X16739340Y-13439984D01*
X16739340Y-13439984D02*
X16777435Y-13439984D01*
X16777435Y-13439984D02*
X16796483Y-13430460D01*
X16796483Y-13430460D02*
X16806006Y-13411412D01*
X16806006Y-13411412D02*
X16806006Y-13401888D01*
X16806006Y-13401888D02*
X16796483Y-13382841D01*
X16796483Y-13382841D02*
X16777435Y-13373317D01*
X16777435Y-13373317D02*
X16748863Y-13373317D01*
X16748863Y-13373317D02*
X16729816Y-13363793D01*
X16729816Y-13363793D02*
X16720292Y-13344746D01*
X16720292Y-13344746D02*
X16720292Y-13335222D01*
X16720292Y-13335222D02*
X16729816Y-13316174D01*
X16729816Y-13316174D02*
X16748863Y-13306650D01*
X16748863Y-13306650D02*
X16777435Y-13306650D01*
X16777435Y-13306650D02*
X16796483Y-13316174D01*
X16872673Y-13516174D02*
X16882197Y-13506650D01*
X16882197Y-13506650D02*
X16901244Y-13478079D01*
X16901244Y-13478079D02*
X16910768Y-13459031D01*
X16910768Y-13459031D02*
X16920292Y-13430460D01*
X16920292Y-13430460D02*
X16929816Y-13382841D01*
X16929816Y-13382841D02*
X16929816Y-13344746D01*
X16929816Y-13344746D02*
X16920292Y-13297127D01*
X16920292Y-13297127D02*
X16910768Y-13268555D01*
X16910768Y-13268555D02*
X16901244Y-13249508D01*
X16901244Y-13249508D02*
X16882197Y-13220936D01*
X16882197Y-13220936D02*
X16872673Y-13211412D01*
X11897610Y-13512500D02*
X12097610Y-13712500D01*
X12097610Y-13512500D02*
X11897610Y-13712500D01*
X12097610Y-13612500D02*
G75*
G03*
X12097610Y-13612500I-100000J0D01*
G01*
X12348863Y-13523031D02*
X12358387Y-13513508D01*
X12358387Y-13513508D02*
X12377434Y-13503984D01*
X12377434Y-13503984D02*
X12425053Y-13503984D01*
X12425053Y-13503984D02*
X12444101Y-13513508D01*
X12444101Y-13513508D02*
X12453625Y-13523031D01*
X12453625Y-13523031D02*
X12463149Y-13542079D01*
X12463149Y-13542079D02*
X12463149Y-13561127D01*
X12463149Y-13561127D02*
X12453625Y-13589698D01*
X12453625Y-13589698D02*
X12339339Y-13703984D01*
X12339339Y-13703984D02*
X12463149Y-13703984D01*
X12548863Y-13684936D02*
X12558387Y-13694460D01*
X12558387Y-13694460D02*
X12548863Y-13703984D01*
X12548863Y-13703984D02*
X12539339Y-13694460D01*
X12539339Y-13694460D02*
X12548863Y-13684936D01*
X12548863Y-13684936D02*
X12548863Y-13703984D01*
X12634577Y-13523031D02*
X12644101Y-13513508D01*
X12644101Y-13513508D02*
X12663149Y-13503984D01*
X12663149Y-13503984D02*
X12710768Y-13503984D01*
X12710768Y-13503984D02*
X12729815Y-13513508D01*
X12729815Y-13513508D02*
X12739339Y-13523031D01*
X12739339Y-13523031D02*
X12748863Y-13542079D01*
X12748863Y-13542079D02*
X12748863Y-13561127D01*
X12748863Y-13561127D02*
X12739339Y-13589698D01*
X12739339Y-13589698D02*
X12625053Y-13703984D01*
X12625053Y-13703984D02*
X12748863Y-13703984D01*
X12872672Y-13503984D02*
X12891720Y-13503984D01*
X12891720Y-13503984D02*
X12910768Y-13513508D01*
X12910768Y-13513508D02*
X12920292Y-13523031D01*
X12920292Y-13523031D02*
X12929815Y-13542079D01*
X12929815Y-13542079D02*
X12939339Y-13580174D01*
X12939339Y-13580174D02*
X12939339Y-13627793D01*
X12939339Y-13627793D02*
X12929815Y-13665888D01*
X12929815Y-13665888D02*
X12920292Y-13684936D01*
X12920292Y-13684936D02*
X12910768Y-13694460D01*
X12910768Y-13694460D02*
X12891720Y-13703984D01*
X12891720Y-13703984D02*
X12872672Y-13703984D01*
X12872672Y-13703984D02*
X12853625Y-13694460D01*
X12853625Y-13694460D02*
X12844101Y-13684936D01*
X12844101Y-13684936D02*
X12834577Y-13665888D01*
X12834577Y-13665888D02*
X12825053Y-13627793D01*
X12825053Y-13627793D02*
X12825053Y-13580174D01*
X12825053Y-13580174D02*
X12834577Y-13542079D01*
X12834577Y-13542079D02*
X12844101Y-13523031D01*
X12844101Y-13523031D02*
X12853625Y-13513508D01*
X12853625Y-13513508D02*
X12872672Y-13503984D01*
X13063149Y-13503984D02*
X13082196Y-13503984D01*
X13082196Y-13503984D02*
X13101244Y-13513508D01*
X13101244Y-13513508D02*
X13110768Y-13523031D01*
X13110768Y-13523031D02*
X13120292Y-13542079D01*
X13120292Y-13542079D02*
X13129815Y-13580174D01*
X13129815Y-13580174D02*
X13129815Y-13627793D01*
X13129815Y-13627793D02*
X13120292Y-13665888D01*
X13120292Y-13665888D02*
X13110768Y-13684936D01*
X13110768Y-13684936D02*
X13101244Y-13694460D01*
X13101244Y-13694460D02*
X13082196Y-13703984D01*
X13082196Y-13703984D02*
X13063149Y-13703984D01*
X13063149Y-13703984D02*
X13044101Y-13694460D01*
X13044101Y-13694460D02*
X13034577Y-13684936D01*
X13034577Y-13684936D02*
X13025053Y-13665888D01*
X13025053Y-13665888D02*
X13015530Y-13627793D01*
X13015530Y-13627793D02*
X13015530Y-13580174D01*
X13015530Y-13580174D02*
X13025053Y-13542079D01*
X13025053Y-13542079D02*
X13034577Y-13523031D01*
X13034577Y-13523031D02*
X13044101Y-13513508D01*
X13044101Y-13513508D02*
X13063149Y-13503984D01*
X13215530Y-13703984D02*
X13215530Y-13570650D01*
X13215530Y-13589698D02*
X13225053Y-13580174D01*
X13225053Y-13580174D02*
X13244101Y-13570650D01*
X13244101Y-13570650D02*
X13272673Y-13570650D01*
X13272673Y-13570650D02*
X13291720Y-13580174D01*
X13291720Y-13580174D02*
X13301244Y-13599222D01*
X13301244Y-13599222D02*
X13301244Y-13703984D01*
X13301244Y-13599222D02*
X13310768Y-13580174D01*
X13310768Y-13580174D02*
X13329815Y-13570650D01*
X13329815Y-13570650D02*
X13358387Y-13570650D01*
X13358387Y-13570650D02*
X13377434Y-13580174D01*
X13377434Y-13580174D02*
X13386958Y-13599222D01*
X13386958Y-13599222D02*
X13386958Y-13703984D01*
X13482196Y-13703984D02*
X13482196Y-13570650D01*
X13482196Y-13589698D02*
X13491720Y-13580174D01*
X13491720Y-13580174D02*
X13510768Y-13570650D01*
X13510768Y-13570650D02*
X13539339Y-13570650D01*
X13539339Y-13570650D02*
X13558387Y-13580174D01*
X13558387Y-13580174D02*
X13567911Y-13599222D01*
X13567911Y-13599222D02*
X13567911Y-13703984D01*
X13567911Y-13599222D02*
X13577434Y-13580174D01*
X13577434Y-13580174D02*
X13596482Y-13570650D01*
X13596482Y-13570650D02*
X13625053Y-13570650D01*
X13625053Y-13570650D02*
X13644101Y-13580174D01*
X13644101Y-13580174D02*
X13653625Y-13599222D01*
X13653625Y-13599222D02*
X13653625Y-13703984D01*
X14044101Y-13494460D02*
X13872673Y-13751603D01*
X14301244Y-13503984D02*
X14320292Y-13503984D01*
X14320292Y-13503984D02*
X14339339Y-13513508D01*
X14339339Y-13513508D02*
X14348863Y-13523031D01*
X14348863Y-13523031D02*
X14358387Y-13542079D01*
X14358387Y-13542079D02*
X14367911Y-13580174D01*
X14367911Y-13580174D02*
X14367911Y-13627793D01*
X14367911Y-13627793D02*
X14358387Y-13665888D01*
X14358387Y-13665888D02*
X14348863Y-13684936D01*
X14348863Y-13684936D02*
X14339339Y-13694460D01*
X14339339Y-13694460D02*
X14320292Y-13703984D01*
X14320292Y-13703984D02*
X14301244Y-13703984D01*
X14301244Y-13703984D02*
X14282196Y-13694460D01*
X14282196Y-13694460D02*
X14272673Y-13684936D01*
X14272673Y-13684936D02*
X14263149Y-13665888D01*
X14263149Y-13665888D02*
X14253625Y-13627793D01*
X14253625Y-13627793D02*
X14253625Y-13580174D01*
X14253625Y-13580174D02*
X14263149Y-13542079D01*
X14263149Y-13542079D02*
X14272673Y-13523031D01*
X14272673Y-13523031D02*
X14282196Y-13513508D01*
X14282196Y-13513508D02*
X14301244Y-13503984D01*
X14453625Y-13684936D02*
X14463149Y-13694460D01*
X14463149Y-13694460D02*
X14453625Y-13703984D01*
X14453625Y-13703984D02*
X14444101Y-13694460D01*
X14444101Y-13694460D02*
X14453625Y-13684936D01*
X14453625Y-13684936D02*
X14453625Y-13703984D01*
X14586958Y-13503984D02*
X14606006Y-13503984D01*
X14606006Y-13503984D02*
X14625054Y-13513508D01*
X14625054Y-13513508D02*
X14634577Y-13523031D01*
X14634577Y-13523031D02*
X14644101Y-13542079D01*
X14644101Y-13542079D02*
X14653625Y-13580174D01*
X14653625Y-13580174D02*
X14653625Y-13627793D01*
X14653625Y-13627793D02*
X14644101Y-13665888D01*
X14644101Y-13665888D02*
X14634577Y-13684936D01*
X14634577Y-13684936D02*
X14625054Y-13694460D01*
X14625054Y-13694460D02*
X14606006Y-13703984D01*
X14606006Y-13703984D02*
X14586958Y-13703984D01*
X14586958Y-13703984D02*
X14567911Y-13694460D01*
X14567911Y-13694460D02*
X14558387Y-13684936D01*
X14558387Y-13684936D02*
X14548863Y-13665888D01*
X14548863Y-13665888D02*
X14539339Y-13627793D01*
X14539339Y-13627793D02*
X14539339Y-13580174D01*
X14539339Y-13580174D02*
X14548863Y-13542079D01*
X14548863Y-13542079D02*
X14558387Y-13523031D01*
X14558387Y-13523031D02*
X14567911Y-13513508D01*
X14567911Y-13513508D02*
X14586958Y-13503984D01*
X14767911Y-13589698D02*
X14748863Y-13580174D01*
X14748863Y-13580174D02*
X14739339Y-13570650D01*
X14739339Y-13570650D02*
X14729816Y-13551603D01*
X14729816Y-13551603D02*
X14729816Y-13542079D01*
X14729816Y-13542079D02*
X14739339Y-13523031D01*
X14739339Y-13523031D02*
X14748863Y-13513508D01*
X14748863Y-13513508D02*
X14767911Y-13503984D01*
X14767911Y-13503984D02*
X14806006Y-13503984D01*
X14806006Y-13503984D02*
X14825054Y-13513508D01*
X14825054Y-13513508D02*
X14834577Y-13523031D01*
X14834577Y-13523031D02*
X14844101Y-13542079D01*
X14844101Y-13542079D02*
X14844101Y-13551603D01*
X14844101Y-13551603D02*
X14834577Y-13570650D01*
X14834577Y-13570650D02*
X14825054Y-13580174D01*
X14825054Y-13580174D02*
X14806006Y-13589698D01*
X14806006Y-13589698D02*
X14767911Y-13589698D01*
X14767911Y-13589698D02*
X14748863Y-13599222D01*
X14748863Y-13599222D02*
X14739339Y-13608746D01*
X14739339Y-13608746D02*
X14729816Y-13627793D01*
X14729816Y-13627793D02*
X14729816Y-13665888D01*
X14729816Y-13665888D02*
X14739339Y-13684936D01*
X14739339Y-13684936D02*
X14748863Y-13694460D01*
X14748863Y-13694460D02*
X14767911Y-13703984D01*
X14767911Y-13703984D02*
X14806006Y-13703984D01*
X14806006Y-13703984D02*
X14825054Y-13694460D01*
X14825054Y-13694460D02*
X14834577Y-13684936D01*
X14834577Y-13684936D02*
X14844101Y-13665888D01*
X14844101Y-13665888D02*
X14844101Y-13627793D01*
X14844101Y-13627793D02*
X14834577Y-13608746D01*
X14834577Y-13608746D02*
X14825054Y-13599222D01*
X14825054Y-13599222D02*
X14806006Y-13589698D01*
X15015530Y-13503984D02*
X14977435Y-13503984D01*
X14977435Y-13503984D02*
X14958387Y-13513508D01*
X14958387Y-13513508D02*
X14948863Y-13523031D01*
X14948863Y-13523031D02*
X14929816Y-13551603D01*
X14929816Y-13551603D02*
X14920292Y-13589698D01*
X14920292Y-13589698D02*
X14920292Y-13665888D01*
X14920292Y-13665888D02*
X14929816Y-13684936D01*
X14929816Y-13684936D02*
X14939339Y-13694460D01*
X14939339Y-13694460D02*
X14958387Y-13703984D01*
X14958387Y-13703984D02*
X14996482Y-13703984D01*
X14996482Y-13703984D02*
X15015530Y-13694460D01*
X15015530Y-13694460D02*
X15025054Y-13684936D01*
X15025054Y-13684936D02*
X15034577Y-13665888D01*
X15034577Y-13665888D02*
X15034577Y-13618269D01*
X15034577Y-13618269D02*
X15025054Y-13599222D01*
X15025054Y-13599222D02*
X15015530Y-13589698D01*
X15015530Y-13589698D02*
X14996482Y-13580174D01*
X14996482Y-13580174D02*
X14958387Y-13580174D01*
X14958387Y-13580174D02*
X14939339Y-13589698D01*
X14939339Y-13589698D02*
X14929816Y-13599222D01*
X14929816Y-13599222D02*
X14920292Y-13618269D01*
X15206006Y-13503984D02*
X15167911Y-13503984D01*
X15167911Y-13503984D02*
X15148863Y-13513508D01*
X15148863Y-13513508D02*
X15139339Y-13523031D01*
X15139339Y-13523031D02*
X15120292Y-13551603D01*
X15120292Y-13551603D02*
X15110768Y-13589698D01*
X15110768Y-13589698D02*
X15110768Y-13665888D01*
X15110768Y-13665888D02*
X15120292Y-13684936D01*
X15120292Y-13684936D02*
X15129816Y-13694460D01*
X15129816Y-13694460D02*
X15148863Y-13703984D01*
X15148863Y-13703984D02*
X15186958Y-13703984D01*
X15186958Y-13703984D02*
X15206006Y-13694460D01*
X15206006Y-13694460D02*
X15215530Y-13684936D01*
X15215530Y-13684936D02*
X15225054Y-13665888D01*
X15225054Y-13665888D02*
X15225054Y-13618269D01*
X15225054Y-13618269D02*
X15215530Y-13599222D01*
X15215530Y-13599222D02*
X15206006Y-13589698D01*
X15206006Y-13589698D02*
X15186958Y-13580174D01*
X15186958Y-13580174D02*
X15148863Y-13580174D01*
X15148863Y-13580174D02*
X15129816Y-13589698D01*
X15129816Y-13589698D02*
X15120292Y-13599222D01*
X15120292Y-13599222D02*
X15110768Y-13618269D01*
X15301244Y-13503984D02*
X15301244Y-13542079D01*
X15377435Y-13503984D02*
X15377435Y-13542079D01*
X15672673Y-13780174D02*
X15663149Y-13770650D01*
X15663149Y-13770650D02*
X15644101Y-13742079D01*
X15644101Y-13742079D02*
X15634578Y-13723031D01*
X15634578Y-13723031D02*
X15625054Y-13694460D01*
X15625054Y-13694460D02*
X15615530Y-13646841D01*
X15615530Y-13646841D02*
X15615530Y-13608746D01*
X15615530Y-13608746D02*
X15625054Y-13561127D01*
X15625054Y-13561127D02*
X15634578Y-13532555D01*
X15634578Y-13532555D02*
X15644101Y-13513508D01*
X15644101Y-13513508D02*
X15663149Y-13484936D01*
X15663149Y-13484936D02*
X15672673Y-13475412D01*
X15834578Y-13570650D02*
X15834578Y-13703984D01*
X15786958Y-13494460D02*
X15739339Y-13637317D01*
X15739339Y-13637317D02*
X15863149Y-13637317D01*
X16091720Y-13703984D02*
X16091720Y-13503984D01*
X16177435Y-13703984D02*
X16177435Y-13599222D01*
X16177435Y-13599222D02*
X16167911Y-13580174D01*
X16167911Y-13580174D02*
X16148863Y-13570650D01*
X16148863Y-13570650D02*
X16120292Y-13570650D01*
X16120292Y-13570650D02*
X16101244Y-13580174D01*
X16101244Y-13580174D02*
X16091720Y-13589698D01*
X16301244Y-13703984D02*
X16282197Y-13694460D01*
X16282197Y-13694460D02*
X16272673Y-13684936D01*
X16272673Y-13684936D02*
X16263149Y-13665888D01*
X16263149Y-13665888D02*
X16263149Y-13608746D01*
X16263149Y-13608746D02*
X16272673Y-13589698D01*
X16272673Y-13589698D02*
X16282197Y-13580174D01*
X16282197Y-13580174D02*
X16301244Y-13570650D01*
X16301244Y-13570650D02*
X16329816Y-13570650D01*
X16329816Y-13570650D02*
X16348863Y-13580174D01*
X16348863Y-13580174D02*
X16358387Y-13589698D01*
X16358387Y-13589698D02*
X16367911Y-13608746D01*
X16367911Y-13608746D02*
X16367911Y-13665888D01*
X16367911Y-13665888D02*
X16358387Y-13684936D01*
X16358387Y-13684936D02*
X16348863Y-13694460D01*
X16348863Y-13694460D02*
X16329816Y-13703984D01*
X16329816Y-13703984D02*
X16301244Y-13703984D01*
X16482197Y-13703984D02*
X16463149Y-13694460D01*
X16463149Y-13694460D02*
X16453625Y-13675412D01*
X16453625Y-13675412D02*
X16453625Y-13503984D01*
X16634578Y-13694460D02*
X16615530Y-13703984D01*
X16615530Y-13703984D02*
X16577435Y-13703984D01*
X16577435Y-13703984D02*
X16558387Y-13694460D01*
X16558387Y-13694460D02*
X16548863Y-13675412D01*
X16548863Y-13675412D02*
X16548863Y-13599222D01*
X16548863Y-13599222D02*
X16558387Y-13580174D01*
X16558387Y-13580174D02*
X16577435Y-13570650D01*
X16577435Y-13570650D02*
X16615530Y-13570650D01*
X16615530Y-13570650D02*
X16634578Y-13580174D01*
X16634578Y-13580174D02*
X16644101Y-13599222D01*
X16644101Y-13599222D02*
X16644101Y-13618269D01*
X16644101Y-13618269D02*
X16548863Y-13637317D01*
X16720292Y-13694460D02*
X16739340Y-13703984D01*
X16739340Y-13703984D02*
X16777435Y-13703984D01*
X16777435Y-13703984D02*
X16796483Y-13694460D01*
X16796483Y-13694460D02*
X16806006Y-13675412D01*
X16806006Y-13675412D02*
X16806006Y-13665888D01*
X16806006Y-13665888D02*
X16796483Y-13646841D01*
X16796483Y-13646841D02*
X16777435Y-13637317D01*
X16777435Y-13637317D02*
X16748863Y-13637317D01*
X16748863Y-13637317D02*
X16729816Y-13627793D01*
X16729816Y-13627793D02*
X16720292Y-13608746D01*
X16720292Y-13608746D02*
X16720292Y-13599222D01*
X16720292Y-13599222D02*
X16729816Y-13580174D01*
X16729816Y-13580174D02*
X16748863Y-13570650D01*
X16748863Y-13570650D02*
X16777435Y-13570650D01*
X16777435Y-13570650D02*
X16796483Y-13580174D01*
X16872673Y-13780174D02*
X16882197Y-13770650D01*
X16882197Y-13770650D02*
X16901244Y-13742079D01*
X16901244Y-13742079D02*
X16910768Y-13723031D01*
X16910768Y-13723031D02*
X16920292Y-13694460D01*
X16920292Y-13694460D02*
X16929816Y-13646841D01*
X16929816Y-13646841D02*
X16929816Y-13608746D01*
X16929816Y-13608746D02*
X16920292Y-13561127D01*
X16920292Y-13561127D02*
X16910768Y-13532555D01*
X16910768Y-13532555D02*
X16901244Y-13513508D01*
X16901244Y-13513508D02*
X16882197Y-13484936D01*
X16882197Y-13484936D02*
X16872673Y-13475412D01*
M02*
