%TF.GenerationSoftware,KiCad,Pcbnew,7.0.7*%
%TF.CreationDate,2023-12-21T17:24:57+09:00*%
%TF.ProjectId,pocket_sdr_v2.1,706f636b-6574-45f7-9364-725f76322e31,rev?*%
%TF.SameCoordinates,Original*%
%TF.FileFunction,Legend,Top*%
%TF.FilePolarity,Positive*%
%FSLAX46Y46*%
G04 Gerber Fmt 4.6, Leading zero omitted, Abs format (unit mm)*
G04 Created by KiCad (PCBNEW 7.0.7) date 2023-12-21 17:24:57*
%MOMM*%
%LPD*%
G01*
G04 APERTURE LIST*
G04 Aperture macros list*
%AMRoundRect*
0 Rectangle with rounded corners*
0 $1 Rounding radius*
0 $2 $3 $4 $5 $6 $7 $8 $9 X,Y pos of 4 corners*
0 Add a 4 corners polygon primitive as box body*
4,1,4,$2,$3,$4,$5,$6,$7,$8,$9,$2,$3,0*
0 Add four circle primitives for the rounded corners*
1,1,$1+$1,$2,$3*
1,1,$1+$1,$4,$5*
1,1,$1+$1,$6,$7*
1,1,$1+$1,$8,$9*
0 Add four rect primitives between the rounded corners*
20,1,$1+$1,$2,$3,$4,$5,0*
20,1,$1+$1,$4,$5,$6,$7,0*
20,1,$1+$1,$6,$7,$8,$9,0*
20,1,$1+$1,$8,$9,$2,$3,0*%
G04 Aperture macros list end*
%ADD10C,0.097536*%
%ADD11C,0.101600*%
%ADD12C,0.127000*%
%ADD13C,0.200000*%
%ADD14C,0.120000*%
%ADD15C,1.409600*%
%ADD16RoundRect,0.050800X0.225000X0.300000X-0.225000X0.300000X-0.225000X-0.300000X0.225000X-0.300000X0*%
%ADD17RoundRect,0.050800X-0.225000X-0.300000X0.225000X-0.300000X0.225000X0.300000X-0.225000X0.300000X0*%
%ADD18RoundRect,0.050800X0.400000X-0.400000X0.400000X0.400000X-0.400000X0.400000X-0.400000X-0.400000X0*%
%ADD19RoundRect,0.050800X-0.400000X-0.400000X0.400000X-0.400000X0.400000X0.400000X-0.400000X0.400000X0*%
%ADD20RoundRect,0.050800X-0.725000X-0.200000X0.725000X-0.200000X0.725000X0.200000X-0.725000X0.200000X0*%
%ADD21RoundRect,0.050800X0.165000X-0.205000X0.165000X0.205000X-0.165000X0.205000X-0.165000X-0.205000X0*%
%ADD22RoundRect,0.050800X2.175000X0.400000X-2.175000X0.400000X-2.175000X-0.400000X2.175000X-0.400000X0*%
%ADD23RoundRect,0.050800X-1.900000X-0.400000X1.900000X-0.400000X1.900000X0.400000X-1.900000X0.400000X0*%
%ADD24RoundRect,0.050800X0.400000X-2.180000X0.400000X2.180000X-0.400000X2.180000X-0.400000X-2.180000X0*%
%ADD25RoundRect,0.050800X0.400000X-1.900000X0.400000X1.900000X-0.400000X1.900000X-0.400000X-1.900000X0*%
%ADD26C,4.701600*%
%ADD27RoundRect,0.050800X-0.300000X0.225000X-0.300000X-0.225000X0.300000X-0.225000X0.300000X0.225000X0*%
%ADD28RoundRect,0.050800X0.300000X-0.225000X0.300000X0.225000X-0.300000X0.225000X-0.300000X-0.225000X0*%
%ADD29RoundRect,0.050800X-0.400000X0.400000X-0.400000X-0.400000X0.400000X-0.400000X0.400000X0.400000X0*%
%ADD30RoundRect,0.050800X-0.600000X0.800000X-0.600000X-0.800000X0.600000X-0.800000X0.600000X0.800000X0*%
%ADD31RoundRect,0.050800X-0.800000X-0.600000X0.800000X-0.600000X0.800000X0.600000X-0.800000X0.600000X0*%
%ADD32RoundRect,0.050800X0.475000X0.130000X-0.475000X0.130000X-0.475000X-0.130000X0.475000X-0.130000X0*%
%ADD33RoundRect,0.050800X0.130000X-0.475000X0.130000X0.475000X-0.130000X0.475000X-0.130000X-0.475000X0*%
%ADD34RoundRect,0.050800X1.625000X-1.625000X1.625000X1.625000X-1.625000X1.625000X-1.625000X-1.625000X0*%
%ADD35RoundRect,0.050800X0.450000X0.500000X-0.450000X0.500000X-0.450000X-0.500000X0.450000X-0.500000X0*%
%ADD36RoundRect,0.050800X2.250000X-2.600000X2.250000X2.600000X-2.250000X2.600000X-2.250000X-2.600000X0*%
%ADD37RoundRect,0.050800X0.400000X0.125000X-0.400000X0.125000X-0.400000X-0.125000X0.400000X-0.125000X0*%
%ADD38RoundRect,0.050800X-0.125000X0.400000X-0.125000X-0.400000X0.125000X-0.400000X0.125000X0.400000X0*%
%ADD39RoundRect,0.050800X-0.400000X-0.125000X0.400000X-0.125000X0.400000X0.125000X-0.400000X0.125000X0*%
%ADD40RoundRect,0.050800X0.125000X-0.400000X0.125000X0.400000X-0.125000X0.400000X-0.125000X-0.400000X0*%
%ADD41RoundRect,0.050800X0.175000X0.250000X-0.175000X0.250000X-0.175000X-0.250000X0.175000X-0.250000X0*%
%ADD42RoundRect,0.050800X0.125000X0.250000X-0.125000X0.250000X-0.125000X-0.250000X0.125000X-0.250000X0*%
%ADD43RoundRect,0.050800X0.508000X0.254000X-0.508000X0.254000X-0.508000X-0.254000X0.508000X-0.254000X0*%
%ADD44R,2.500000X1.000000*%
%ADD45RoundRect,0.050800X0.381000X0.635000X-0.381000X0.635000X-0.381000X-0.635000X0.381000X-0.635000X0*%
%ADD46RoundRect,0.050800X0.575000X0.700000X-0.575000X0.700000X-0.575000X-0.700000X0.575000X-0.700000X0*%
%ADD47C,0.700000*%
%ADD48R,1.450000X0.600000*%
%ADD49R,1.450000X0.300000*%
%ADD50O,2.100000X1.050000*%
%ADD51RoundRect,0.225000X0.250000X-0.225000X0.250000X0.225000X-0.250000X0.225000X-0.250000X-0.225000X0*%
%ADD52RoundRect,0.050800X-2.000000X-0.500000X2.000000X-0.500000X2.000000X0.500000X-2.000000X0.500000X0*%
G04 APERTURE END LIST*
D10*
X156849530Y-105369131D02*
X157428553Y-105369131D01*
X157428553Y-105369131D02*
X157496673Y-105335070D01*
X157496673Y-105335070D02*
X157530734Y-105301010D01*
X157530734Y-105301010D02*
X157564794Y-105232890D01*
X157564794Y-105232890D02*
X157564794Y-105096649D01*
X157564794Y-105096649D02*
X157530734Y-105028529D01*
X157530734Y-105028529D02*
X157496673Y-104994468D01*
X157496673Y-104994468D02*
X157428553Y-104960408D01*
X157428553Y-104960408D02*
X156849530Y-104960408D01*
X156849530Y-104687927D02*
X156849530Y-104245144D01*
X156849530Y-104245144D02*
X157122011Y-104483566D01*
X157122011Y-104483566D02*
X157122011Y-104381385D01*
X157122011Y-104381385D02*
X157156071Y-104313265D01*
X157156071Y-104313265D02*
X157190132Y-104279205D01*
X157190132Y-104279205D02*
X157258252Y-104245144D01*
X157258252Y-104245144D02*
X157428553Y-104245144D01*
X157428553Y-104245144D02*
X157496673Y-104279205D01*
X157496673Y-104279205D02*
X157530734Y-104313265D01*
X157530734Y-104313265D02*
X157564794Y-104381385D01*
X157564794Y-104381385D02*
X157564794Y-104585746D01*
X157564794Y-104585746D02*
X157530734Y-104653867D01*
X157530734Y-104653867D02*
X157496673Y-104687927D01*
G36*
X138743919Y-114374085D02*
G01*
X138751391Y-114374271D01*
X138758720Y-114374582D01*
X138765905Y-114375016D01*
X138772946Y-114375575D01*
X138783241Y-114376646D01*
X138793212Y-114377997D01*
X138802861Y-114379627D01*
X138812188Y-114381537D01*
X138821192Y-114383726D01*
X138829874Y-114386194D01*
X138838234Y-114388942D01*
X138840948Y-114389920D01*
X138848929Y-114393010D01*
X138856624Y-114396318D01*
X138864034Y-114399844D01*
X138871158Y-114403588D01*
X138877996Y-114407550D01*
X138884549Y-114411730D01*
X138890816Y-114416128D01*
X138896797Y-114420744D01*
X138902493Y-114425578D01*
X138907904Y-114430630D01*
X138911352Y-114434119D01*
X138916333Y-114439522D01*
X138921056Y-114445119D01*
X138925521Y-114450909D01*
X138929728Y-114456892D01*
X138933677Y-114463069D01*
X138937368Y-114469440D01*
X138940801Y-114476004D01*
X138943977Y-114482761D01*
X138946894Y-114489712D01*
X138949553Y-114496857D01*
X138951183Y-114501727D01*
X138953431Y-114509121D01*
X138955458Y-114516629D01*
X138957263Y-114524250D01*
X138958848Y-114531985D01*
X138960211Y-114539834D01*
X138961354Y-114547796D01*
X138962275Y-114555872D01*
X138962975Y-114564061D01*
X138963454Y-114572365D01*
X138963712Y-114580781D01*
X138963761Y-114586456D01*
X138963651Y-114595132D01*
X138963319Y-114603671D01*
X138962766Y-114612071D01*
X138961992Y-114620333D01*
X138960997Y-114628457D01*
X138959781Y-114636443D01*
X138958344Y-114644291D01*
X138956686Y-114652000D01*
X138954807Y-114659571D01*
X138952706Y-114667004D01*
X138951183Y-114671883D01*
X138948696Y-114679031D01*
X138945950Y-114685999D01*
X138942947Y-114692785D01*
X138939686Y-114699390D01*
X138936166Y-114705813D01*
X138932389Y-114712056D01*
X138928354Y-114718117D01*
X138924061Y-114723998D01*
X138919510Y-114729697D01*
X138914701Y-114735214D01*
X138911352Y-114738792D01*
X138906132Y-114743990D01*
X138900626Y-114748969D01*
X138894835Y-114753731D01*
X138888758Y-114758274D01*
X138882396Y-114762599D01*
X138875748Y-114766707D01*
X138868815Y-114770596D01*
X138861596Y-114774267D01*
X138854091Y-114777720D01*
X138846301Y-114780955D01*
X138840948Y-114782991D01*
X138832696Y-114785832D01*
X138824122Y-114788394D01*
X138815225Y-114790676D01*
X138806006Y-114792679D01*
X138796464Y-114794402D01*
X138786600Y-114795846D01*
X138776414Y-114797010D01*
X138769443Y-114797631D01*
X138762330Y-114798128D01*
X138755073Y-114798500D01*
X138747673Y-114798749D01*
X138740130Y-114798873D01*
X138736304Y-114798889D01*
X138586413Y-114798889D01*
X138586413Y-115078406D01*
X138509022Y-115078406D01*
X138509022Y-114441107D01*
X138586413Y-114441107D01*
X138586413Y-114731804D01*
X138736304Y-114731804D01*
X138743768Y-114731703D01*
X138751026Y-114731399D01*
X138758078Y-114730892D01*
X138767161Y-114729902D01*
X138775878Y-114728550D01*
X138784230Y-114726839D01*
X138792215Y-114724767D01*
X138799835Y-114722335D01*
X138805310Y-114720274D01*
X138812292Y-114717228D01*
X138818915Y-114713942D01*
X138825176Y-114710415D01*
X138831078Y-114706648D01*
X138837948Y-114701601D01*
X138844255Y-114696180D01*
X138850000Y-114690383D01*
X138851081Y-114689178D01*
X138856209Y-114682902D01*
X138860894Y-114676301D01*
X138865135Y-114669376D01*
X138868933Y-114662127D01*
X138872287Y-114654554D01*
X138875197Y-114646657D01*
X138876237Y-114643407D01*
X138878553Y-114635061D01*
X138880122Y-114628237D01*
X138881441Y-114621282D01*
X138882508Y-114614196D01*
X138883324Y-114606979D01*
X138883889Y-114599630D01*
X138884203Y-114592151D01*
X138884274Y-114586456D01*
X138884148Y-114579118D01*
X138883771Y-114571868D01*
X138883143Y-114564706D01*
X138882265Y-114557630D01*
X138881134Y-114550642D01*
X138879753Y-114543742D01*
X138878121Y-114536929D01*
X138876237Y-114530203D01*
X138873504Y-114521979D01*
X138870328Y-114514122D01*
X138866708Y-114506631D01*
X138862644Y-114499508D01*
X138858136Y-114492751D01*
X138853185Y-114486361D01*
X138851081Y-114483908D01*
X138845449Y-114477990D01*
X138839255Y-114472464D01*
X138832497Y-114467330D01*
X138825176Y-114462589D01*
X138818915Y-114459079D01*
X138812292Y-114455820D01*
X138805310Y-114452812D01*
X138797964Y-114450068D01*
X138790253Y-114447691D01*
X138782176Y-114445679D01*
X138773733Y-114444033D01*
X138764925Y-114442753D01*
X138755750Y-114441838D01*
X138748629Y-114441393D01*
X138741303Y-114441152D01*
X138736304Y-114441107D01*
X138586413Y-114441107D01*
X138509022Y-114441107D01*
X138509022Y-114374023D01*
X138736304Y-114374023D01*
X138743919Y-114374085D01*
G37*
G36*
X139329885Y-114541891D02*
G01*
X139338925Y-114542366D01*
X139347966Y-114543158D01*
X139357007Y-114544266D01*
X139366047Y-114545691D01*
X139375088Y-114547432D01*
X139384129Y-114549491D01*
X139390909Y-114551242D01*
X139393169Y-114551865D01*
X139399919Y-114553891D01*
X139406544Y-114556169D01*
X139415180Y-114559597D01*
X139423593Y-114563473D01*
X139431782Y-114567797D01*
X139439747Y-114572568D01*
X139445574Y-114576441D01*
X139451275Y-114580565D01*
X139456851Y-114584941D01*
X139458681Y-114586456D01*
X139464054Y-114591139D01*
X139469234Y-114596084D01*
X139474221Y-114601289D01*
X139479014Y-114606756D01*
X139483614Y-114612484D01*
X139488020Y-114618472D01*
X139492233Y-114624722D01*
X139496252Y-114631233D01*
X139500078Y-114638005D01*
X139503710Y-114645037D01*
X139506024Y-114649871D01*
X139509271Y-114657341D01*
X139512199Y-114665143D01*
X139514807Y-114673277D01*
X139517096Y-114681743D01*
X139519065Y-114690540D01*
X139520715Y-114699668D01*
X139522046Y-114709128D01*
X139523057Y-114718920D01*
X139523749Y-114729044D01*
X139524122Y-114739499D01*
X139524193Y-114746654D01*
X139524193Y-114884665D01*
X139524122Y-114891820D01*
X139523909Y-114898829D01*
X139523323Y-114909069D01*
X139522418Y-114918981D01*
X139521194Y-114928563D01*
X139519651Y-114937817D01*
X139517788Y-114946743D01*
X139515605Y-114955340D01*
X139513104Y-114963608D01*
X139510282Y-114971548D01*
X139507142Y-114979159D01*
X139506024Y-114981623D01*
X139502521Y-114988800D01*
X139498824Y-114995722D01*
X139494934Y-115002389D01*
X139490850Y-115008802D01*
X139486573Y-115014960D01*
X139482102Y-115020862D01*
X139477438Y-115026510D01*
X139472580Y-115031903D01*
X139467529Y-115037041D01*
X139462285Y-115041924D01*
X139458681Y-115045038D01*
X139453148Y-115049467D01*
X139447489Y-115053647D01*
X139441704Y-115057578D01*
X139433794Y-115062433D01*
X139425661Y-115066845D01*
X139417305Y-115070816D01*
X139408724Y-115074344D01*
X139402142Y-115076699D01*
X139395433Y-115078807D01*
X139393169Y-115079454D01*
X139386389Y-115081264D01*
X139377348Y-115083402D01*
X139368307Y-115085222D01*
X139359267Y-115086727D01*
X139350226Y-115087914D01*
X139341186Y-115088785D01*
X139332145Y-115089339D01*
X139323104Y-115089576D01*
X139320844Y-115089586D01*
X139311801Y-115089428D01*
X139302752Y-115088953D01*
X139293698Y-115088161D01*
X139284638Y-115087053D01*
X139275573Y-115085628D01*
X139266502Y-115083887D01*
X139257426Y-115081828D01*
X139250615Y-115080077D01*
X139248344Y-115079454D01*
X139241625Y-115077429D01*
X139232858Y-115074344D01*
X139224308Y-115070816D01*
X139215977Y-115066845D01*
X139207865Y-115062433D01*
X139199971Y-115057578D01*
X139194193Y-115053647D01*
X139188539Y-115049467D01*
X139183007Y-115045038D01*
X139177634Y-115040325D01*
X139172454Y-115035357D01*
X139167467Y-115030134D01*
X139162674Y-115024656D01*
X139158074Y-115018923D01*
X139153668Y-115012935D01*
X139149456Y-115006693D01*
X139145436Y-115000195D01*
X139141611Y-114993443D01*
X139137978Y-114986436D01*
X139135664Y-114981623D01*
X139132448Y-114974121D01*
X139129549Y-114966291D01*
X139126966Y-114958132D01*
X139124699Y-114949645D01*
X139122749Y-114940829D01*
X139121114Y-114931684D01*
X139119796Y-114922211D01*
X139118795Y-114912410D01*
X139118110Y-114902279D01*
X139117741Y-114891820D01*
X139117701Y-114887810D01*
X139193140Y-114887810D01*
X139193304Y-114896032D01*
X139193795Y-114904013D01*
X139194614Y-114911754D01*
X139195760Y-114919256D01*
X139197234Y-114926516D01*
X139199036Y-114933537D01*
X139201165Y-114940318D01*
X139203622Y-114946858D01*
X139207072Y-114954615D01*
X139210872Y-114961946D01*
X139215022Y-114968850D01*
X139219522Y-114975328D01*
X139224371Y-114981379D01*
X139229571Y-114987004D01*
X139231748Y-114989135D01*
X139237394Y-114994121D01*
X139243305Y-114998706D01*
X139249480Y-115002890D01*
X139255919Y-115006673D01*
X139262623Y-115010055D01*
X139269591Y-115013036D01*
X139272453Y-115014117D01*
X139279761Y-115016532D01*
X139287162Y-115018539D01*
X139294658Y-115020135D01*
X139302247Y-115021323D01*
X139309930Y-115022101D01*
X139317707Y-115022469D01*
X139320844Y-115022502D01*
X139328654Y-115022297D01*
X139336362Y-115021683D01*
X139343968Y-115020660D01*
X139351471Y-115019227D01*
X139358872Y-115017384D01*
X139366170Y-115015132D01*
X139369061Y-115014117D01*
X139376185Y-115011296D01*
X139383037Y-115008074D01*
X139389615Y-115004451D01*
X139395921Y-115000427D01*
X139401953Y-114996003D01*
X139407713Y-114991177D01*
X139409940Y-114989135D01*
X139415279Y-114983681D01*
X139420269Y-114977800D01*
X139424908Y-114971493D01*
X139429198Y-114964759D01*
X139433138Y-114957599D01*
X139436728Y-114950012D01*
X139438067Y-114946858D01*
X139440564Y-114940318D01*
X139442729Y-114933537D01*
X139444560Y-114926516D01*
X139446059Y-114919256D01*
X139447225Y-114911754D01*
X139448057Y-114904013D01*
X139448557Y-114896032D01*
X139448723Y-114887810D01*
X139448723Y-114743509D01*
X139448557Y-114735290D01*
X139448057Y-114727317D01*
X139447225Y-114719589D01*
X139446059Y-114712107D01*
X139444560Y-114704871D01*
X139442729Y-114697880D01*
X139440564Y-114691135D01*
X139438067Y-114684636D01*
X139434616Y-114676833D01*
X139430816Y-114669473D01*
X139426666Y-114662556D01*
X139422166Y-114656084D01*
X139417317Y-114650055D01*
X139412118Y-114644469D01*
X139409940Y-114642359D01*
X139404290Y-114637323D01*
X139398366Y-114632696D01*
X139392170Y-114628479D01*
X139385701Y-114624671D01*
X139378959Y-114621272D01*
X139371943Y-114618283D01*
X139369061Y-114617202D01*
X139361803Y-114614787D01*
X139354443Y-114612780D01*
X139346981Y-114611184D01*
X139339417Y-114609996D01*
X139331750Y-114609218D01*
X139323981Y-114608850D01*
X139320844Y-114608817D01*
X139313030Y-114609022D01*
X139305309Y-114609636D01*
X139297682Y-114610659D01*
X139290149Y-114612093D01*
X139282710Y-114613935D01*
X139275365Y-114616187D01*
X139272453Y-114617202D01*
X139265379Y-114620028D01*
X139258569Y-114623262D01*
X139252024Y-114626906D01*
X139245743Y-114630960D01*
X139239727Y-114635423D01*
X139233975Y-114640295D01*
X139231748Y-114642359D01*
X139226409Y-114647767D01*
X139221420Y-114653619D01*
X139216780Y-114659914D01*
X139212490Y-114666653D01*
X139208550Y-114673835D01*
X139204960Y-114681461D01*
X139203622Y-114684636D01*
X139200602Y-114692798D01*
X139198555Y-114699605D01*
X139196835Y-114706657D01*
X139195443Y-114713955D01*
X139194378Y-114721498D01*
X139193641Y-114729287D01*
X139193232Y-114737322D01*
X139193140Y-114743509D01*
X139193140Y-114887810D01*
X139117701Y-114887810D01*
X139117670Y-114884665D01*
X139117670Y-114746654D01*
X139117741Y-114739499D01*
X139117951Y-114732492D01*
X139118531Y-114722258D01*
X139119427Y-114712356D01*
X139120640Y-114702785D01*
X139122169Y-114693546D01*
X139124014Y-114684638D01*
X139126175Y-114676062D01*
X139128653Y-114667818D01*
X139131447Y-114659905D01*
X139134557Y-114652324D01*
X139135664Y-114649871D01*
X139139167Y-114642664D01*
X139142864Y-114635718D01*
X139146755Y-114629034D01*
X139150838Y-114622610D01*
X139155116Y-114616447D01*
X139159586Y-114610546D01*
X139164250Y-114604905D01*
X139169108Y-114599525D01*
X139174159Y-114594407D01*
X139179403Y-114589549D01*
X139183007Y-114586456D01*
X139188539Y-114581996D01*
X139194193Y-114577788D01*
X139199971Y-114573831D01*
X139207865Y-114568948D01*
X139215977Y-114564512D01*
X139224308Y-114560524D01*
X139232858Y-114556984D01*
X139241625Y-114553891D01*
X139248344Y-114551865D01*
X139255156Y-114550055D01*
X139261965Y-114548422D01*
X139271038Y-114546522D01*
X139280106Y-114544939D01*
X139289169Y-114543672D01*
X139298226Y-114542722D01*
X139307277Y-114542089D01*
X139316323Y-114541772D01*
X139320844Y-114541733D01*
X139329885Y-114541891D01*
G37*
G36*
X139932462Y-114541733D02*
G01*
X139941022Y-114541864D01*
X139949583Y-114542257D01*
X139958143Y-114542912D01*
X139966703Y-114543829D01*
X139975263Y-114545008D01*
X139983823Y-114546450D01*
X139992384Y-114548153D01*
X140000944Y-114550118D01*
X140009417Y-114552384D01*
X140017715Y-114554988D01*
X140025838Y-114557931D01*
X140033787Y-114561212D01*
X140041561Y-114564831D01*
X140049161Y-114568789D01*
X140056585Y-114573086D01*
X140063835Y-114577721D01*
X140070848Y-114582711D01*
X140077560Y-114588159D01*
X140083972Y-114594066D01*
X140090084Y-114600431D01*
X140095895Y-114607256D01*
X140101406Y-114614538D01*
X140106617Y-114622280D01*
X140110328Y-114628387D01*
X140111528Y-114630480D01*
X140114997Y-114636947D01*
X140118200Y-114643707D01*
X140121135Y-114650758D01*
X140123803Y-114658101D01*
X140126204Y-114665736D01*
X140128338Y-114673662D01*
X140130204Y-114681880D01*
X140131804Y-114690390D01*
X140133136Y-114699192D01*
X140134201Y-114708285D01*
X140134763Y-114714509D01*
X140058245Y-114714509D01*
X140056491Y-114704727D01*
X140054243Y-114695427D01*
X140051500Y-114686609D01*
X140048263Y-114678273D01*
X140044531Y-114670419D01*
X140040305Y-114663048D01*
X140035584Y-114656158D01*
X140030370Y-114649751D01*
X140024660Y-114643826D01*
X140018457Y-114638383D01*
X140014046Y-114635022D01*
X140007184Y-114630339D01*
X140000160Y-114626116D01*
X139992972Y-114622354D01*
X139985622Y-114619053D01*
X139978109Y-114616213D01*
X139970434Y-114613833D01*
X139962595Y-114611913D01*
X139954594Y-114610455D01*
X139946430Y-114609457D01*
X139938104Y-114608919D01*
X139932462Y-114608817D01*
X139924648Y-114609022D01*
X139916927Y-114609636D01*
X139909300Y-114610659D01*
X139901767Y-114612093D01*
X139894328Y-114613935D01*
X139886983Y-114616187D01*
X139884071Y-114617202D01*
X139876997Y-114620028D01*
X139870187Y-114623262D01*
X139863642Y-114626906D01*
X139857361Y-114630960D01*
X139851345Y-114635423D01*
X139845593Y-114640295D01*
X139843366Y-114642359D01*
X139838073Y-114647767D01*
X139833113Y-114653619D01*
X139828485Y-114659914D01*
X139824190Y-114666653D01*
X139820228Y-114673835D01*
X139816598Y-114681461D01*
X139815240Y-114684636D01*
X139812220Y-114692798D01*
X139810173Y-114699605D01*
X139808453Y-114706657D01*
X139807061Y-114713955D01*
X139805996Y-114721498D01*
X139805259Y-114729287D01*
X139804850Y-114737322D01*
X139804758Y-114743509D01*
X139804758Y-114887810D01*
X139804922Y-114896032D01*
X139805413Y-114904013D01*
X139806232Y-114911754D01*
X139807378Y-114919256D01*
X139808852Y-114926516D01*
X139810654Y-114933537D01*
X139812783Y-114940318D01*
X139815240Y-114946858D01*
X139818736Y-114954615D01*
X139822566Y-114961946D01*
X139826727Y-114968850D01*
X139831222Y-114975328D01*
X139836049Y-114981379D01*
X139841209Y-114987004D01*
X139843366Y-114989135D01*
X139849012Y-114994121D01*
X139854923Y-114998706D01*
X139861098Y-115002890D01*
X139867537Y-115006673D01*
X139874241Y-115010055D01*
X139881209Y-115013036D01*
X139884071Y-115014117D01*
X139891379Y-115016532D01*
X139898780Y-115018539D01*
X139906276Y-115020135D01*
X139913865Y-115021323D01*
X139921548Y-115022101D01*
X139929325Y-115022469D01*
X139932462Y-115022502D01*
X139940897Y-115022272D01*
X139949170Y-115021581D01*
X139957279Y-115020429D01*
X139965226Y-115018817D01*
X139973010Y-115016744D01*
X139980632Y-115014211D01*
X139988090Y-115011217D01*
X139995386Y-115007762D01*
X140002519Y-115003847D01*
X140009490Y-114999471D01*
X140014046Y-114996297D01*
X140020580Y-114991146D01*
X140026618Y-114985519D01*
X140032163Y-114979415D01*
X140037213Y-114972836D01*
X140041768Y-114965781D01*
X140045830Y-114958249D01*
X140049397Y-114950242D01*
X140052469Y-114941759D01*
X140055047Y-114932800D01*
X140057131Y-114923364D01*
X140058245Y-114916810D01*
X140134763Y-114916810D01*
X140133876Y-114926098D01*
X140132722Y-114935094D01*
X140131300Y-114943798D01*
X140129612Y-114952211D01*
X140127656Y-114960332D01*
X140125433Y-114968161D01*
X140122943Y-114975698D01*
X140120186Y-114982944D01*
X140117162Y-114989898D01*
X140113871Y-114996560D01*
X140111528Y-115000840D01*
X140107873Y-115007034D01*
X140104049Y-115012974D01*
X140098688Y-115020496D01*
X140093027Y-115027566D01*
X140087065Y-115034183D01*
X140080803Y-115040347D01*
X140074241Y-115046057D01*
X140067379Y-115051314D01*
X140063835Y-115053773D01*
X140056585Y-115058367D01*
X140049161Y-115062628D01*
X140041561Y-115066556D01*
X140033787Y-115070151D01*
X140025838Y-115073413D01*
X140017715Y-115076342D01*
X140009417Y-115078938D01*
X140000944Y-115081201D01*
X139992384Y-115083166D01*
X139983823Y-115084869D01*
X139975263Y-115086311D01*
X139966703Y-115087490D01*
X139958143Y-115088407D01*
X139949583Y-115089062D01*
X139941022Y-115089455D01*
X139932462Y-115089586D01*
X139923419Y-115089428D01*
X139914370Y-115088953D01*
X139905316Y-115088161D01*
X139896256Y-115087053D01*
X139887191Y-115085628D01*
X139878120Y-115083887D01*
X139869044Y-115081828D01*
X139862233Y-115080077D01*
X139859963Y-115079454D01*
X139853243Y-115077434D01*
X139844476Y-115074369D01*
X139835927Y-115070877D01*
X139827596Y-115066960D01*
X139819483Y-115062617D01*
X139811589Y-115057849D01*
X139803913Y-115052654D01*
X139798300Y-115048479D01*
X139794625Y-115045562D01*
X139789252Y-115040938D01*
X139784072Y-115036041D01*
X139779085Y-115030870D01*
X139774292Y-115025426D01*
X139769693Y-115019708D01*
X139765286Y-115013717D01*
X139761074Y-115007453D01*
X139757054Y-115000916D01*
X139753229Y-114994105D01*
X139749596Y-114987021D01*
X139747282Y-114982147D01*
X139744067Y-114974552D01*
X139741167Y-114966637D01*
X139738584Y-114958403D01*
X139736317Y-114949850D01*
X139734367Y-114940977D01*
X139732732Y-114931785D01*
X139731415Y-114922273D01*
X139730413Y-114912442D01*
X139729728Y-114902292D01*
X139729359Y-114891822D01*
X139729288Y-114884665D01*
X139729288Y-114746654D01*
X139729359Y-114739499D01*
X139729569Y-114732492D01*
X139730149Y-114722258D01*
X139731046Y-114712356D01*
X139732258Y-114702785D01*
X139733787Y-114693546D01*
X139735632Y-114684638D01*
X139737793Y-114676062D01*
X139740271Y-114667818D01*
X139743065Y-114659905D01*
X139746175Y-114652324D01*
X139747282Y-114649871D01*
X139750786Y-114642664D01*
X139754482Y-114635718D01*
X139758373Y-114629034D01*
X139762456Y-114622610D01*
X139766734Y-114616447D01*
X139771204Y-114610546D01*
X139775868Y-114604905D01*
X139780726Y-114599525D01*
X139785777Y-114594407D01*
X139791022Y-114589549D01*
X139794625Y-114586456D01*
X139800157Y-114581996D01*
X139805812Y-114577788D01*
X139811589Y-114573831D01*
X139819483Y-114568948D01*
X139827596Y-114564512D01*
X139835927Y-114560524D01*
X139844476Y-114556984D01*
X139853243Y-114553891D01*
X139859963Y-114551865D01*
X139866774Y-114550055D01*
X139873583Y-114548422D01*
X139882656Y-114546522D01*
X139891724Y-114544939D01*
X139900787Y-114543672D01*
X139909844Y-114542722D01*
X139918895Y-114542089D01*
X139927941Y-114541772D01*
X139932462Y-114541733D01*
G37*
G36*
X140430527Y-114809545D02*
G01*
X140656935Y-114564094D01*
X140750399Y-114564094D01*
X140563297Y-114765346D01*
X140777652Y-115078406D01*
X140689080Y-115078406D01*
X140511936Y-114817756D01*
X140430527Y-114906328D01*
X140430527Y-115078406D01*
X140355057Y-115078406D01*
X140355057Y-114374023D01*
X140430527Y-114374023D01*
X140430527Y-114809545D01*
G37*
G36*
X141156878Y-114541891D02*
G01*
X141165918Y-114542366D01*
X141174959Y-114543158D01*
X141184000Y-114544266D01*
X141193040Y-114545691D01*
X141202081Y-114547432D01*
X141211121Y-114549491D01*
X141217902Y-114551242D01*
X141220162Y-114551865D01*
X141226912Y-114553858D01*
X141233537Y-114556103D01*
X141242173Y-114559488D01*
X141250586Y-114563320D01*
X141258775Y-114567600D01*
X141266740Y-114572328D01*
X141274482Y-114577504D01*
X141280141Y-114581679D01*
X141285674Y-114586106D01*
X141291046Y-114590755D01*
X141296221Y-114595663D01*
X141301200Y-114600828D01*
X141305983Y-114606251D01*
X141310568Y-114611932D01*
X141314958Y-114617871D01*
X141319150Y-114624068D01*
X141323147Y-114630523D01*
X141326946Y-114637236D01*
X141330549Y-114644207D01*
X141332842Y-114648998D01*
X141336089Y-114656401D01*
X141339017Y-114664133D01*
X141341625Y-114672193D01*
X141343914Y-114680582D01*
X141345883Y-114689300D01*
X141347533Y-114698346D01*
X141348864Y-114707721D01*
X141349875Y-114717425D01*
X141350567Y-114727457D01*
X141350940Y-114737817D01*
X141351011Y-114744907D01*
X141351011Y-114832431D01*
X141019958Y-114832431D01*
X141019958Y-114885539D01*
X141020122Y-114893889D01*
X141020613Y-114901993D01*
X141021432Y-114909852D01*
X141022578Y-114917465D01*
X141024052Y-114924832D01*
X141025854Y-114931954D01*
X141027983Y-114938830D01*
X141030440Y-114945460D01*
X141033941Y-114953377D01*
X141037783Y-114960859D01*
X141041966Y-114967906D01*
X141046490Y-114974517D01*
X141051356Y-114980694D01*
X141056563Y-114986436D01*
X141058741Y-114988611D01*
X141064387Y-114993701D01*
X141070298Y-114998383D01*
X141076473Y-115002655D01*
X141082912Y-115006517D01*
X141089616Y-115009970D01*
X141096584Y-115013014D01*
X141099446Y-115014117D01*
X141106753Y-115016532D01*
X141114155Y-115018539D01*
X141121651Y-115020135D01*
X141129240Y-115021323D01*
X141136923Y-115022101D01*
X141144700Y-115022469D01*
X141147837Y-115022502D01*
X141156232Y-115022273D01*
X141164448Y-115021587D01*
X141172487Y-115020443D01*
X141180347Y-115018842D01*
X141188030Y-115016783D01*
X141195534Y-115014266D01*
X141202860Y-115011292D01*
X141210008Y-115007860D01*
X141216978Y-115003971D01*
X141223769Y-114999624D01*
X141228198Y-114996472D01*
X141234585Y-114991344D01*
X141240510Y-114985722D01*
X141245975Y-114979605D01*
X141250980Y-114972994D01*
X141255524Y-114965889D01*
X141259607Y-114958289D01*
X141263230Y-114950195D01*
X141266392Y-114941606D01*
X141269093Y-114932523D01*
X141271334Y-114922945D01*
X141272571Y-114916286D01*
X141350137Y-114916286D01*
X141349059Y-114925225D01*
X141347722Y-114933898D01*
X141346127Y-114942304D01*
X141344274Y-114950442D01*
X141342163Y-114958313D01*
X141339795Y-114965917D01*
X141337168Y-114973254D01*
X141334284Y-114980323D01*
X141331141Y-114987126D01*
X141327741Y-114993661D01*
X141325330Y-114997870D01*
X141321586Y-115003984D01*
X141317692Y-115009881D01*
X141312265Y-115017404D01*
X141306571Y-115024539D01*
X141300610Y-115031287D01*
X141294381Y-115037647D01*
X141287884Y-115043619D01*
X141281120Y-115049204D01*
X141277638Y-115051851D01*
X141270519Y-115056817D01*
X141263225Y-115061405D01*
X141255757Y-115065617D01*
X141248114Y-115069452D01*
X141240296Y-115072911D01*
X141232304Y-115075992D01*
X141224136Y-115078698D01*
X141215795Y-115081026D01*
X141207357Y-115083032D01*
X141198903Y-115084771D01*
X141190433Y-115086242D01*
X141181947Y-115087446D01*
X141173444Y-115088382D01*
X141164925Y-115089051D01*
X141156389Y-115089452D01*
X141147837Y-115089586D01*
X141138755Y-115089428D01*
X141129679Y-115088953D01*
X141120609Y-115088161D01*
X141111543Y-115087053D01*
X141102484Y-115085628D01*
X141093429Y-115083887D01*
X141084381Y-115081828D01*
X141077598Y-115080077D01*
X141075337Y-115079454D01*
X141068618Y-115077429D01*
X141059851Y-115074344D01*
X141051301Y-115070816D01*
X141042970Y-115066845D01*
X141034858Y-115062433D01*
X141026964Y-115057578D01*
X141021186Y-115053647D01*
X141015532Y-115049467D01*
X141010000Y-115045038D01*
X141004627Y-115040325D01*
X140999447Y-115035357D01*
X140994460Y-115030134D01*
X140989667Y-115024656D01*
X140985067Y-115018923D01*
X140980661Y-115012935D01*
X140976448Y-115006693D01*
X140972429Y-115000195D01*
X140968603Y-114993443D01*
X140964971Y-114986436D01*
X140962657Y-114981623D01*
X140959410Y-114974121D01*
X140956483Y-114966291D01*
X140953874Y-114958132D01*
X140951586Y-114949645D01*
X140949616Y-114940829D01*
X140947966Y-114931684D01*
X140946635Y-114922211D01*
X140945624Y-114912410D01*
X140944932Y-114902279D01*
X140944559Y-114891820D01*
X140944488Y-114884665D01*
X140944488Y-114765346D01*
X141019958Y-114765346D01*
X141275541Y-114765346D01*
X141275541Y-114745256D01*
X141275375Y-114736909D01*
X141274875Y-114728813D01*
X141274043Y-114720968D01*
X141272877Y-114713374D01*
X141271379Y-114706031D01*
X141269547Y-114698939D01*
X141267382Y-114692099D01*
X141264885Y-114685509D01*
X141261434Y-114677647D01*
X141257634Y-114670220D01*
X141253484Y-114663228D01*
X141248985Y-114656671D01*
X141244135Y-114650548D01*
X141238936Y-114644861D01*
X141236758Y-114642708D01*
X141231158Y-114637622D01*
X141225277Y-114632953D01*
X141219114Y-114628703D01*
X141212669Y-114624870D01*
X141205943Y-114621455D01*
X141198936Y-114618459D01*
X141196054Y-114617377D01*
X141188796Y-114614911D01*
X141181436Y-114612863D01*
X141173974Y-114611233D01*
X141166410Y-114610021D01*
X141158743Y-114609227D01*
X141150973Y-114608850D01*
X141147837Y-114608817D01*
X141140023Y-114609026D01*
X141132302Y-114609653D01*
X141124675Y-114610698D01*
X141117142Y-114612161D01*
X141109703Y-114614042D01*
X141102358Y-114616341D01*
X141099446Y-114617377D01*
X141092372Y-114620207D01*
X141085562Y-114623454D01*
X141079017Y-114627119D01*
X141072736Y-114631203D01*
X141066720Y-114635704D01*
X141060968Y-114640624D01*
X141058741Y-114642708D01*
X141053398Y-114648221D01*
X141048396Y-114654170D01*
X141043735Y-114660553D01*
X141039415Y-114667371D01*
X141035437Y-114674624D01*
X141031799Y-114682312D01*
X141030440Y-114685509D01*
X141027983Y-114692099D01*
X141025854Y-114698939D01*
X141024052Y-114706031D01*
X141022578Y-114713374D01*
X141021432Y-114720968D01*
X141020613Y-114728813D01*
X141020122Y-114736909D01*
X141019958Y-114745256D01*
X141019958Y-114765346D01*
X140944488Y-114765346D01*
X140944488Y-114746654D01*
X140944559Y-114739499D01*
X140944772Y-114732492D01*
X140945358Y-114722258D01*
X140946263Y-114712356D01*
X140947487Y-114702785D01*
X140949031Y-114693546D01*
X140950894Y-114684638D01*
X140953076Y-114676062D01*
X140955578Y-114667818D01*
X140958399Y-114659905D01*
X140961539Y-114652324D01*
X140962657Y-114649871D01*
X140966160Y-114642664D01*
X140969857Y-114635718D01*
X140973747Y-114629034D01*
X140977831Y-114622610D01*
X140982108Y-114616447D01*
X140986579Y-114610546D01*
X140991243Y-114604905D01*
X140996101Y-114599525D01*
X141001152Y-114594407D01*
X141006396Y-114589549D01*
X141010000Y-114586456D01*
X141015532Y-114581996D01*
X141021186Y-114577788D01*
X141026964Y-114573831D01*
X141034858Y-114568948D01*
X141042970Y-114564512D01*
X141051301Y-114560524D01*
X141059851Y-114556984D01*
X141068618Y-114553891D01*
X141075337Y-114551865D01*
X141082119Y-114550055D01*
X141091167Y-114547917D01*
X141100220Y-114546097D01*
X141109278Y-114544593D01*
X141118342Y-114543405D01*
X141127411Y-114542534D01*
X141136486Y-114541980D01*
X141145566Y-114541743D01*
X141147837Y-114541733D01*
X141156878Y-114541891D01*
G37*
G36*
X141744431Y-114965376D02*
G01*
X141744687Y-114972975D01*
X141745670Y-114981115D01*
X141747389Y-114988186D01*
X141750327Y-114995085D01*
X141754913Y-115001189D01*
X141761268Y-115005622D01*
X141768512Y-115008462D01*
X141775972Y-115010124D01*
X141783071Y-115010965D01*
X141790971Y-115011312D01*
X141792648Y-115011321D01*
X141962804Y-115011321D01*
X141962804Y-115078406D01*
X141792648Y-115078406D01*
X141783801Y-115078296D01*
X141775342Y-115077969D01*
X141767270Y-115077423D01*
X141759586Y-115076659D01*
X141752290Y-115075676D01*
X141745381Y-115074475D01*
X141737290Y-115072666D01*
X141732726Y-115071418D01*
X141725574Y-115069000D01*
X141718856Y-115066224D01*
X141712574Y-115063090D01*
X141705609Y-115058857D01*
X141699271Y-115054107D01*
X141694467Y-115049755D01*
X141689343Y-115043939D01*
X141684845Y-115037496D01*
X141680974Y-115030427D01*
X141677729Y-115022731D01*
X141675504Y-115015840D01*
X141674377Y-115011496D01*
X141672817Y-115003841D01*
X141671521Y-114995726D01*
X141670490Y-114987149D01*
X141669855Y-114979957D01*
X141669390Y-114972469D01*
X141669094Y-114964687D01*
X141668967Y-114956610D01*
X141668962Y-114954545D01*
X141668962Y-114631178D01*
X141520992Y-114631178D01*
X141520992Y-114564094D01*
X141668962Y-114564094D01*
X141668962Y-114441107D01*
X141744431Y-114441107D01*
X141744431Y-114564094D01*
X141962804Y-114564094D01*
X141962804Y-114631178D01*
X141744431Y-114631178D01*
X141744431Y-114965376D01*
G37*
G36*
X142973782Y-115089586D02*
G01*
X142964781Y-115089454D01*
X142955924Y-115089058D01*
X142947211Y-115088398D01*
X142938643Y-115087473D01*
X142930219Y-115086285D01*
X142921939Y-115084832D01*
X142913804Y-115083116D01*
X142905813Y-115081135D01*
X142897967Y-115078890D01*
X142890264Y-115076381D01*
X142885210Y-115074562D01*
X142877768Y-115071632D01*
X142870511Y-115068474D01*
X142863437Y-115065089D01*
X142856548Y-115061476D01*
X142849844Y-115057637D01*
X142843323Y-115053570D01*
X142836987Y-115049276D01*
X142830835Y-115044754D01*
X142824867Y-115040006D01*
X142819084Y-115035030D01*
X142815331Y-115031586D01*
X142809863Y-115026204D01*
X142804599Y-115020603D01*
X142799537Y-115014784D01*
X142794678Y-115008747D01*
X142790021Y-115002493D01*
X142785568Y-114996020D01*
X142781317Y-114989329D01*
X142777268Y-114982420D01*
X142773422Y-114975293D01*
X142769779Y-114967948D01*
X142767463Y-114962930D01*
X142764181Y-114955248D01*
X142761148Y-114947400D01*
X142758363Y-114939386D01*
X142755827Y-114931206D01*
X142753539Y-114922860D01*
X142751501Y-114914349D01*
X142749711Y-114905672D01*
X142748170Y-114896829D01*
X142746878Y-114887820D01*
X142745834Y-114878645D01*
X142745277Y-114872436D01*
X142824764Y-114872436D01*
X142826025Y-114881347D01*
X142827538Y-114889996D01*
X142829301Y-114898385D01*
X142831315Y-114906513D01*
X142833581Y-114914381D01*
X142836098Y-114921988D01*
X142838866Y-114929334D01*
X142841885Y-114936420D01*
X142845155Y-114943244D01*
X142848676Y-114949809D01*
X142852448Y-114956112D01*
X142856472Y-114962155D01*
X142860747Y-114967937D01*
X142865272Y-114973458D01*
X142870049Y-114978719D01*
X142875077Y-114983719D01*
X142880294Y-114988415D01*
X142888358Y-114994892D01*
X142896707Y-115000687D01*
X142905342Y-115005800D01*
X142914262Y-115010231D01*
X142923468Y-115013980D01*
X142932960Y-115017048D01*
X142942737Y-115019434D01*
X142952800Y-115021139D01*
X142963148Y-115022161D01*
X142970205Y-115022464D01*
X142973782Y-115022502D01*
X142981226Y-115022388D01*
X142988489Y-115022046D01*
X142995573Y-115021476D01*
X143005860Y-115020194D01*
X143015742Y-115018399D01*
X143025219Y-115016092D01*
X143034290Y-115013271D01*
X143042956Y-115009938D01*
X143051217Y-115006091D01*
X143059072Y-115001732D01*
X143066522Y-114996860D01*
X143071263Y-114993328D01*
X143077944Y-114987559D01*
X143083968Y-114981259D01*
X143089335Y-114974428D01*
X143094045Y-114967065D01*
X143098098Y-114959172D01*
X143101493Y-114950747D01*
X143104231Y-114941791D01*
X143106312Y-114932303D01*
X143107736Y-114922285D01*
X143108320Y-114915310D01*
X143108612Y-114908100D01*
X143108649Y-114904406D01*
X143108414Y-114894988D01*
X143107709Y-114885930D01*
X143106534Y-114877231D01*
X143104890Y-114868891D01*
X143102776Y-114860910D01*
X143100192Y-114853289D01*
X143097138Y-114846026D01*
X143093614Y-114839124D01*
X143089620Y-114832580D01*
X143085157Y-114826396D01*
X143081920Y-114822473D01*
X143076613Y-114816787D01*
X143070717Y-114811326D01*
X143064232Y-114806088D01*
X143057156Y-114801075D01*
X143049492Y-114796286D01*
X143041237Y-114791721D01*
X143032393Y-114787380D01*
X143022959Y-114783264D01*
X143016343Y-114780644D01*
X143009464Y-114778124D01*
X143002323Y-114775703D01*
X142994920Y-114773383D01*
X142905300Y-114746828D01*
X142898028Y-114744557D01*
X142890953Y-114742132D01*
X142884074Y-114739554D01*
X142877392Y-114736822D01*
X142870906Y-114733936D01*
X142862565Y-114729850D01*
X142854572Y-114725490D01*
X142846929Y-114720858D01*
X142839635Y-114715953D01*
X142837867Y-114714684D01*
X142830999Y-114709481D01*
X142824459Y-114704093D01*
X142818246Y-114698519D01*
X142812361Y-114692759D01*
X142806803Y-114686814D01*
X142801573Y-114680683D01*
X142796671Y-114674367D01*
X142792096Y-114667865D01*
X142787827Y-114661202D01*
X142783841Y-114654402D01*
X142780140Y-114647466D01*
X142776722Y-114640394D01*
X142773589Y-114633185D01*
X142770739Y-114625839D01*
X142768173Y-114618357D01*
X142765891Y-114610739D01*
X142763885Y-114602995D01*
X142762146Y-114595223D01*
X142760675Y-114587425D01*
X142759471Y-114579599D01*
X142758535Y-114571745D01*
X142757866Y-114563865D01*
X142757465Y-114555957D01*
X142757331Y-114548022D01*
X142757477Y-114539697D01*
X142757914Y-114531560D01*
X142758644Y-114523610D01*
X142759665Y-114515848D01*
X142760977Y-114508272D01*
X142762582Y-114500884D01*
X142764478Y-114493684D01*
X142766666Y-114486670D01*
X142769146Y-114479844D01*
X142771917Y-114473206D01*
X142773927Y-114468884D01*
X142777145Y-114462525D01*
X142780574Y-114456353D01*
X142784216Y-114450368D01*
X142789401Y-114442680D01*
X142794963Y-114435325D01*
X142800901Y-114428303D01*
X142807216Y-114421614D01*
X142813908Y-114415258D01*
X142819174Y-114410709D01*
X142824657Y-114406328D01*
X142830297Y-114402158D01*
X142836093Y-114398200D01*
X142842046Y-114394454D01*
X142848155Y-114390920D01*
X142854421Y-114387598D01*
X142860844Y-114384488D01*
X142867423Y-114381589D01*
X142874159Y-114378903D01*
X142881052Y-114376428D01*
X142885734Y-114374896D01*
X142892849Y-114372742D01*
X142900044Y-114370800D01*
X142907319Y-114369069D01*
X142914674Y-114367551D01*
X142922108Y-114366244D01*
X142929623Y-114365149D01*
X142937217Y-114364266D01*
X142944891Y-114363595D01*
X142952645Y-114363136D01*
X142960479Y-114362889D01*
X142965746Y-114362842D01*
X142977045Y-114363030D01*
X142988058Y-114363593D01*
X142998784Y-114364531D01*
X143009224Y-114365845D01*
X143019377Y-114367534D01*
X143029243Y-114369598D01*
X143038823Y-114372038D01*
X143048116Y-114374853D01*
X143057122Y-114378043D01*
X143065842Y-114381608D01*
X143074275Y-114385549D01*
X143082422Y-114389866D01*
X143090282Y-114394557D01*
X143097856Y-114399624D01*
X143105142Y-114405066D01*
X143112143Y-114410884D01*
X143118828Y-114417050D01*
X143125171Y-114423536D01*
X143131172Y-114430343D01*
X143136830Y-114437471D01*
X143142145Y-114444919D01*
X143147118Y-114452689D01*
X143151748Y-114460779D01*
X143156036Y-114469189D01*
X143159981Y-114477921D01*
X143163583Y-114486973D01*
X143166843Y-114496346D01*
X143169760Y-114506040D01*
X143172335Y-114516054D01*
X143174567Y-114526389D01*
X143176457Y-114537045D01*
X143178004Y-114548022D01*
X143098516Y-114548022D01*
X143096265Y-114538033D01*
X143093640Y-114528440D01*
X143090639Y-114519243D01*
X143087265Y-114510443D01*
X143083515Y-114502038D01*
X143079391Y-114494030D01*
X143074892Y-114486418D01*
X143070019Y-114479202D01*
X143064770Y-114472382D01*
X143059148Y-114465958D01*
X143055191Y-114461896D01*
X143048943Y-114456183D01*
X143042252Y-114451031D01*
X143035120Y-114446442D01*
X143027545Y-114442414D01*
X143019528Y-114438949D01*
X143011069Y-114436045D01*
X143002167Y-114433704D01*
X142992824Y-114431924D01*
X142983038Y-114430707D01*
X142972810Y-114430051D01*
X142965746Y-114429926D01*
X142957937Y-114430059D01*
X142950364Y-114430458D01*
X142943027Y-114431124D01*
X142935927Y-114432055D01*
X142925719Y-114433951D01*
X142916042Y-114436447D01*
X142906896Y-114439540D01*
X142898282Y-114443233D01*
X142890199Y-114447525D01*
X142882647Y-114452415D01*
X142875627Y-114457904D01*
X142869138Y-114463992D01*
X142863206Y-114470509D01*
X142857857Y-114477283D01*
X142853092Y-114484315D01*
X142848911Y-114491605D01*
X142845313Y-114499154D01*
X142842298Y-114506960D01*
X142839867Y-114515024D01*
X142838019Y-114523346D01*
X142836755Y-114531926D01*
X142836075Y-114540764D01*
X142835945Y-114546799D01*
X142836166Y-114556232D01*
X142836829Y-114565337D01*
X142837935Y-114574113D01*
X142839483Y-114582560D01*
X142841472Y-114590679D01*
X142843905Y-114598470D01*
X142846779Y-114605931D01*
X142850095Y-114613064D01*
X142853854Y-114619869D01*
X142858055Y-114626345D01*
X142861101Y-114630480D01*
X142866075Y-114636395D01*
X142871561Y-114642022D01*
X142877560Y-114647360D01*
X142884072Y-114652410D01*
X142891096Y-114657170D01*
X142898634Y-114661643D01*
X142906684Y-114665826D01*
X142915247Y-114669721D01*
X142924323Y-114673327D01*
X142933912Y-114676645D01*
X142940589Y-114678696D01*
X143023047Y-114703154D01*
X143032233Y-114706049D01*
X143041188Y-114709143D01*
X143049911Y-114712436D01*
X143058401Y-114715929D01*
X143066660Y-114719621D01*
X143074686Y-114723512D01*
X143082481Y-114727602D01*
X143090043Y-114731892D01*
X143097374Y-114736381D01*
X143104472Y-114741069D01*
X143111339Y-114745956D01*
X143117973Y-114751043D01*
X143124376Y-114756329D01*
X143130546Y-114761814D01*
X143136484Y-114767499D01*
X143142191Y-114773383D01*
X143147628Y-114779480D01*
X143152714Y-114785849D01*
X143157449Y-114792490D01*
X143161833Y-114799402D01*
X143165867Y-114806585D01*
X143169550Y-114814041D01*
X143172882Y-114821768D01*
X143175864Y-114829766D01*
X143178494Y-114838037D01*
X143180774Y-114846578D01*
X143182704Y-114855392D01*
X143184282Y-114864477D01*
X143185510Y-114873833D01*
X143186387Y-114883462D01*
X143186913Y-114893361D01*
X143187088Y-114903533D01*
X143186878Y-114913866D01*
X143186247Y-114923945D01*
X143185196Y-114933770D01*
X143183725Y-114943342D01*
X143181834Y-114952660D01*
X143179522Y-114961724D01*
X143176789Y-114970534D01*
X143173636Y-114979090D01*
X143170063Y-114987392D01*
X143166070Y-114995440D01*
X143161656Y-115003235D01*
X143156822Y-115010775D01*
X143151567Y-115018062D01*
X143145892Y-115025095D01*
X143139797Y-115031874D01*
X143133281Y-115038400D01*
X143126353Y-115044598D01*
X143119019Y-115050396D01*
X143111279Y-115055795D01*
X143103135Y-115060794D01*
X143094585Y-115065393D01*
X143085629Y-115069591D01*
X143076269Y-115073390D01*
X143066503Y-115076790D01*
X143056331Y-115079789D01*
X143045755Y-115082388D01*
X143034773Y-115084587D01*
X143023385Y-115086387D01*
X143011592Y-115087787D01*
X142999394Y-115088786D01*
X142986791Y-115089386D01*
X142973782Y-115089586D01*
G37*
G36*
X143594758Y-114374169D02*
G01*
X143603966Y-114374606D01*
X143613024Y-114375335D01*
X143621931Y-114376357D01*
X143630687Y-114377669D01*
X143639294Y-114379274D01*
X143647749Y-114381170D01*
X143656054Y-114383358D01*
X143664209Y-114385838D01*
X143672213Y-114388609D01*
X143677466Y-114390619D01*
X143685193Y-114393855D01*
X143692718Y-114397340D01*
X143700040Y-114401074D01*
X143707159Y-114405056D01*
X143714076Y-114409287D01*
X143720790Y-114413767D01*
X143727301Y-114418496D01*
X143733609Y-114423473D01*
X143739715Y-114428699D01*
X143745618Y-114434174D01*
X143749441Y-114437962D01*
X143754988Y-114443816D01*
X143760296Y-114449912D01*
X143765364Y-114456251D01*
X143770192Y-114462832D01*
X143774781Y-114469656D01*
X143779130Y-114476723D01*
X143783240Y-114484032D01*
X143787111Y-114491584D01*
X143790741Y-114499378D01*
X143794133Y-114507415D01*
X143796260Y-114512908D01*
X143799226Y-114521293D01*
X143801901Y-114529875D01*
X143804283Y-114538654D01*
X143806374Y-114547629D01*
X143808173Y-114556801D01*
X143809680Y-114566169D01*
X143810896Y-114575734D01*
X143811820Y-114585495D01*
X143812452Y-114595453D01*
X143812792Y-114605607D01*
X143812857Y-114612486D01*
X143812857Y-114839943D01*
X143812711Y-114850229D01*
X143812273Y-114860323D01*
X143811544Y-114870223D01*
X143810523Y-114879929D01*
X143809210Y-114889442D01*
X143807606Y-114898762D01*
X143805709Y-114907888D01*
X143803521Y-114916821D01*
X143801042Y-114925560D01*
X143798270Y-114934106D01*
X143796260Y-114939695D01*
X143793029Y-114947864D01*
X143789558Y-114955797D01*
X143785847Y-114963493D01*
X143781897Y-114970953D01*
X143777707Y-114978176D01*
X143773278Y-114985162D01*
X143768609Y-114991913D01*
X143763701Y-114998427D01*
X143758553Y-115004704D01*
X143753166Y-115010745D01*
X143749441Y-115014641D01*
X143743673Y-115020250D01*
X143737702Y-115025614D01*
X143731529Y-115030732D01*
X143725153Y-115035604D01*
X143718574Y-115040231D01*
X143711793Y-115044612D01*
X143704808Y-115048748D01*
X143697622Y-115052638D01*
X143690232Y-115056282D01*
X143682640Y-115059680D01*
X143677466Y-115061809D01*
X143669562Y-115064775D01*
X143661507Y-115067449D01*
X143653303Y-115069832D01*
X143644947Y-115071923D01*
X143636442Y-115073722D01*
X143627785Y-115075229D01*
X143618979Y-115076444D01*
X143610021Y-115077368D01*
X143600914Y-115078000D01*
X143591656Y-115078341D01*
X143585400Y-115078406D01*
X143357943Y-115078406D01*
X143357943Y-114441107D01*
X143435509Y-114441107D01*
X143435509Y-115011321D01*
X143585400Y-115011321D01*
X143593152Y-115011160D01*
X143600773Y-115010677D01*
X143608263Y-115009872D01*
X143615623Y-115008745D01*
X143622851Y-115007295D01*
X143629948Y-115005524D01*
X143636914Y-115003430D01*
X143643749Y-115001014D01*
X143650459Y-114998225D01*
X143656961Y-114995096D01*
X143663255Y-114991630D01*
X143669342Y-114987825D01*
X143675222Y-114983681D01*
X143680894Y-114979199D01*
X143686359Y-114974378D01*
X143691616Y-114969219D01*
X143696628Y-114963735D01*
X143701356Y-114957940D01*
X143705800Y-114951834D01*
X143709960Y-114945417D01*
X143713836Y-114938688D01*
X143717428Y-114931648D01*
X143720736Y-114924297D01*
X143723761Y-114916635D01*
X143726463Y-114908656D01*
X143728805Y-114900355D01*
X143730787Y-114891732D01*
X143732408Y-114882787D01*
X143733388Y-114875867D01*
X143734165Y-114868766D01*
X143734739Y-114861483D01*
X143735111Y-114854019D01*
X143735280Y-114846374D01*
X143735291Y-114843786D01*
X143735291Y-114608642D01*
X143735189Y-114600937D01*
X143734885Y-114593413D01*
X143734379Y-114586070D01*
X143733669Y-114578908D01*
X143732757Y-114571928D01*
X143731226Y-114562902D01*
X143729334Y-114554198D01*
X143727082Y-114545817D01*
X143724470Y-114537758D01*
X143723761Y-114535793D01*
X143720736Y-114528139D01*
X143717428Y-114520813D01*
X143713836Y-114513814D01*
X143709960Y-114507143D01*
X143705800Y-114500799D01*
X143701356Y-114494783D01*
X143696628Y-114489094D01*
X143691616Y-114483733D01*
X143686359Y-114478691D01*
X143680894Y-114473961D01*
X143675222Y-114469542D01*
X143669342Y-114465433D01*
X143663255Y-114461637D01*
X143656961Y-114458151D01*
X143650459Y-114454976D01*
X143643749Y-114452113D01*
X143636914Y-114449533D01*
X143629948Y-114447298D01*
X143622851Y-114445406D01*
X143615623Y-114443858D01*
X143608263Y-114442654D01*
X143600773Y-114441795D01*
X143593152Y-114441279D01*
X143585400Y-114441107D01*
X143435509Y-114441107D01*
X143357943Y-114441107D01*
X143357943Y-114374023D01*
X143585400Y-114374023D01*
X143594758Y-114374169D01*
G37*
G36*
X144232598Y-114374172D02*
G01*
X144242708Y-114374618D01*
X144252505Y-114375363D01*
X144261989Y-114376406D01*
X144271160Y-114377746D01*
X144280017Y-114379384D01*
X144288561Y-114381321D01*
X144296792Y-114383555D01*
X144304710Y-114386087D01*
X144312315Y-114388916D01*
X144317210Y-114390968D01*
X144324353Y-114394235D01*
X144331238Y-114397679D01*
X144337865Y-114401302D01*
X144344234Y-114405103D01*
X144350345Y-114409081D01*
X144356198Y-114413238D01*
X144361793Y-114417573D01*
X144367130Y-114422087D01*
X144373845Y-114428381D01*
X144380102Y-114434992D01*
X144385957Y-114441836D01*
X144391381Y-114448914D01*
X144396373Y-114456226D01*
X144400934Y-114463774D01*
X144405064Y-114471556D01*
X144408763Y-114479573D01*
X144412030Y-114487825D01*
X144414866Y-114496311D01*
X144417364Y-114504923D01*
X144419529Y-114513552D01*
X144421360Y-114522197D01*
X144422859Y-114530858D01*
X144424024Y-114539536D01*
X144424857Y-114548229D01*
X144425357Y-114556940D01*
X144425523Y-114565667D01*
X144425381Y-114573602D01*
X144424955Y-114581509D01*
X144424246Y-114589390D01*
X144423252Y-114597243D01*
X144421975Y-114605069D01*
X144420413Y-114612868D01*
X144418568Y-114620639D01*
X144416439Y-114628383D01*
X144414004Y-114636037D01*
X144411242Y-114643538D01*
X144408152Y-114650886D01*
X144404734Y-114658082D01*
X144400989Y-114665124D01*
X144396916Y-114672014D01*
X144392516Y-114678751D01*
X144387788Y-114685335D01*
X144382714Y-114691684D01*
X144377274Y-114697804D01*
X144371468Y-114703694D01*
X144365296Y-114709356D01*
X144358758Y-114714788D01*
X144351855Y-114719990D01*
X144344586Y-114724964D01*
X144336951Y-114729708D01*
X144328915Y-114734141D01*
X144322601Y-114737208D01*
X144316042Y-114740053D01*
X144309237Y-114742678D01*
X144302186Y-114745081D01*
X144294890Y-114747264D01*
X144287348Y-114749225D01*
X144279560Y-114750965D01*
X144271527Y-114752484D01*
X144263248Y-114753782D01*
X144260433Y-114754166D01*
X144448583Y-115078406D01*
X144359138Y-115078406D01*
X144171861Y-114754166D01*
X144060229Y-114754166D01*
X144060229Y-115078406D01*
X143982663Y-115078406D01*
X143982663Y-114441107D01*
X144060229Y-114441107D01*
X144060229Y-114687082D01*
X144222174Y-114687082D01*
X144229620Y-114686946D01*
X144236844Y-114686539D01*
X144243847Y-114685860D01*
X144253936Y-114684332D01*
X144263529Y-114682193D01*
X144272624Y-114679443D01*
X144281221Y-114676082D01*
X144289321Y-114672110D01*
X144296923Y-114667526D01*
X144304028Y-114662332D01*
X144310636Y-114656527D01*
X144314764Y-114652317D01*
X144320540Y-114645600D01*
X144325748Y-114638551D01*
X144330388Y-114631171D01*
X144334459Y-114623459D01*
X144337962Y-114615415D01*
X144340898Y-114607040D01*
X144343265Y-114598333D01*
X144345064Y-114589294D01*
X144346295Y-114579924D01*
X144346957Y-114570222D01*
X144347084Y-114563570D01*
X144346800Y-114553653D01*
X144345947Y-114544080D01*
X144344527Y-114534851D01*
X144342539Y-114525966D01*
X144339982Y-114517425D01*
X144336858Y-114509228D01*
X144333165Y-114501375D01*
X144328904Y-114493866D01*
X144324075Y-114486700D01*
X144318678Y-114479879D01*
X144314764Y-114475522D01*
X144308489Y-114469372D01*
X144301715Y-114463826D01*
X144294445Y-114458886D01*
X144286676Y-114454550D01*
X144278411Y-114450820D01*
X144269647Y-114447694D01*
X144260387Y-114445173D01*
X144250628Y-114443258D01*
X144240373Y-114441947D01*
X144233259Y-114441409D01*
X144225925Y-114441140D01*
X144222174Y-114441107D01*
X144060229Y-114441107D01*
X143982663Y-114441107D01*
X143982663Y-114374023D01*
X144222174Y-114374023D01*
X144232598Y-114374172D01*
G37*
G36*
X145449603Y-115078406D02*
G01*
X145365050Y-115078406D01*
X145177948Y-114564094D01*
X145258484Y-114564094D01*
X145407326Y-114980749D01*
X145556344Y-114564094D01*
X145636705Y-114564094D01*
X145449603Y-115078406D01*
G37*
G36*
X146026064Y-114541891D02*
G01*
X146035104Y-114542366D01*
X146044145Y-114543158D01*
X146053185Y-114544266D01*
X146062226Y-114545691D01*
X146071267Y-114547432D01*
X146080307Y-114549491D01*
X146087088Y-114551242D01*
X146089348Y-114551865D01*
X146096098Y-114553858D01*
X146102723Y-114556103D01*
X146111359Y-114559488D01*
X146119772Y-114563320D01*
X146127961Y-114567600D01*
X146135926Y-114572328D01*
X146143667Y-114577504D01*
X146149327Y-114581679D01*
X146154860Y-114586106D01*
X146160232Y-114590755D01*
X146165407Y-114595663D01*
X146170386Y-114600828D01*
X146175168Y-114606251D01*
X146179754Y-114611932D01*
X146184144Y-114617871D01*
X146188336Y-114624068D01*
X146192332Y-114630523D01*
X146196132Y-114637236D01*
X146199735Y-114644207D01*
X146202028Y-114648998D01*
X146205275Y-114656401D01*
X146208203Y-114664133D01*
X146210811Y-114672193D01*
X146213100Y-114680582D01*
X146215069Y-114689300D01*
X146216719Y-114698346D01*
X146218050Y-114707721D01*
X146219061Y-114717425D01*
X146219753Y-114727457D01*
X146220126Y-114737817D01*
X146220197Y-114744907D01*
X146220197Y-114832431D01*
X145889144Y-114832431D01*
X145889144Y-114885539D01*
X145889308Y-114893889D01*
X145889799Y-114901993D01*
X145890618Y-114909852D01*
X145891764Y-114917465D01*
X145893238Y-114924832D01*
X145895040Y-114931954D01*
X145897169Y-114938830D01*
X145899626Y-114945460D01*
X145903127Y-114953377D01*
X145906969Y-114960859D01*
X145911152Y-114967906D01*
X145915676Y-114974517D01*
X145920542Y-114980694D01*
X145925749Y-114986436D01*
X145927927Y-114988611D01*
X145933573Y-114993701D01*
X145939484Y-114998383D01*
X145945659Y-115002655D01*
X145952098Y-115006517D01*
X145958802Y-115009970D01*
X145965770Y-115013014D01*
X145968632Y-115014117D01*
X145975939Y-115016532D01*
X145983341Y-115018539D01*
X145990836Y-115020135D01*
X145998426Y-115021323D01*
X146006109Y-115022101D01*
X146013886Y-115022469D01*
X146017023Y-115022502D01*
X146025418Y-115022273D01*
X146033634Y-115021587D01*
X146041673Y-115020443D01*
X146049533Y-115018842D01*
X146057215Y-115016783D01*
X146064720Y-115014266D01*
X146072046Y-115011292D01*
X146079194Y-115007860D01*
X146086163Y-115003971D01*
X146092955Y-114999624D01*
X146097384Y-114996472D01*
X146103770Y-114991344D01*
X146109696Y-114985722D01*
X146115161Y-114979605D01*
X146120166Y-114972994D01*
X146124710Y-114965889D01*
X146128793Y-114958289D01*
X146132415Y-114950195D01*
X146135577Y-114941606D01*
X146138279Y-114932523D01*
X146140519Y-114922945D01*
X146141757Y-114916286D01*
X146219323Y-114916286D01*
X146218244Y-114925225D01*
X146216908Y-114933898D01*
X146215313Y-114942304D01*
X146213460Y-114950442D01*
X146211349Y-114958313D01*
X146208981Y-114965917D01*
X146206354Y-114973254D01*
X146203469Y-114980323D01*
X146200327Y-114987126D01*
X146196926Y-114993661D01*
X146194516Y-114997870D01*
X146190772Y-115003984D01*
X146186878Y-115009881D01*
X146181451Y-115017404D01*
X146175757Y-115024539D01*
X146169796Y-115031287D01*
X146163567Y-115037647D01*
X146157070Y-115043619D01*
X146150306Y-115049204D01*
X146146824Y-115051851D01*
X146139705Y-115056817D01*
X146132411Y-115061405D01*
X146124943Y-115065617D01*
X146117300Y-115069452D01*
X146109482Y-115072911D01*
X146101489Y-115075992D01*
X146093322Y-115078698D01*
X146084980Y-115081026D01*
X146076543Y-115083032D01*
X146068089Y-115084771D01*
X146059619Y-115086242D01*
X146051133Y-115087446D01*
X146042630Y-115088382D01*
X146034111Y-115089051D01*
X146025575Y-115089452D01*
X146017023Y-115089586D01*
X146007941Y-115089428D01*
X145998865Y-115088953D01*
X145989795Y-115088161D01*
X145980729Y-115087053D01*
X145971670Y-115085628D01*
X145962615Y-115083887D01*
X145953567Y-115081828D01*
X145946784Y-115080077D01*
X145944523Y-115079454D01*
X145937804Y-115077429D01*
X145929036Y-115074344D01*
X145920487Y-115070816D01*
X145912156Y-115066845D01*
X145904044Y-115062433D01*
X145896150Y-115057578D01*
X145890372Y-115053647D01*
X145884718Y-115049467D01*
X145879186Y-115045038D01*
X145873813Y-115040325D01*
X145868633Y-115035357D01*
X145863646Y-115030134D01*
X145858853Y-115024656D01*
X145854253Y-115018923D01*
X145849847Y-115012935D01*
X145845634Y-115006693D01*
X145841615Y-115000195D01*
X145837789Y-114993443D01*
X145834157Y-114986436D01*
X145831843Y-114981623D01*
X145828596Y-114974121D01*
X145825668Y-114966291D01*
X145823060Y-114958132D01*
X145820771Y-114949645D01*
X145818802Y-114940829D01*
X145817152Y-114931684D01*
X145815821Y-114922211D01*
X145814810Y-114912410D01*
X145814118Y-114902279D01*
X145813745Y-114891820D01*
X145813674Y-114884665D01*
X145813674Y-114765346D01*
X145889144Y-114765346D01*
X146144727Y-114765346D01*
X146144727Y-114745256D01*
X146144561Y-114736909D01*
X146144061Y-114728813D01*
X146143229Y-114720968D01*
X146142063Y-114713374D01*
X146140565Y-114706031D01*
X146138733Y-114698939D01*
X146136568Y-114692099D01*
X146134071Y-114685509D01*
X146130620Y-114677647D01*
X146126820Y-114670220D01*
X146122670Y-114663228D01*
X146118170Y-114656671D01*
X146113321Y-114650548D01*
X146108122Y-114644861D01*
X146105944Y-114642708D01*
X146100344Y-114637622D01*
X146094463Y-114632953D01*
X146088300Y-114628703D01*
X146081855Y-114624870D01*
X146075129Y-114621455D01*
X146068121Y-114618459D01*
X146065240Y-114617377D01*
X146057982Y-114614911D01*
X146050622Y-114612863D01*
X146043160Y-114611233D01*
X146035596Y-114610021D01*
X146027929Y-114609227D01*
X146020159Y-114608850D01*
X146017023Y-114608817D01*
X146009208Y-114609026D01*
X146001488Y-114609653D01*
X145993861Y-114610698D01*
X145986328Y-114612161D01*
X145978889Y-114614042D01*
X145971543Y-114616341D01*
X145968632Y-114617377D01*
X145961557Y-114620207D01*
X145954748Y-114623454D01*
X145948203Y-114627119D01*
X145941922Y-114631203D01*
X145935905Y-114635704D01*
X145930154Y-114640624D01*
X145927927Y-114642708D01*
X145922584Y-114648221D01*
X145917581Y-114654170D01*
X145912921Y-114660553D01*
X145908601Y-114667371D01*
X145904622Y-114674624D01*
X145900985Y-114682312D01*
X145899626Y-114685509D01*
X145897169Y-114692099D01*
X145895040Y-114698939D01*
X145893238Y-114706031D01*
X145891764Y-114713374D01*
X145890618Y-114720968D01*
X145889799Y-114728813D01*
X145889308Y-114736909D01*
X145889144Y-114745256D01*
X145889144Y-114765346D01*
X145813674Y-114765346D01*
X145813674Y-114746654D01*
X145813745Y-114739499D01*
X145813958Y-114732492D01*
X145814544Y-114722258D01*
X145815449Y-114712356D01*
X145816673Y-114702785D01*
X145818216Y-114693546D01*
X145820079Y-114684638D01*
X145822262Y-114676062D01*
X145824764Y-114667818D01*
X145827585Y-114659905D01*
X145830725Y-114652324D01*
X145831843Y-114649871D01*
X145835346Y-114642664D01*
X145839043Y-114635718D01*
X145842933Y-114629034D01*
X145847017Y-114622610D01*
X145851294Y-114616447D01*
X145855765Y-114610546D01*
X145860429Y-114604905D01*
X145865287Y-114599525D01*
X145870338Y-114594407D01*
X145875582Y-114589549D01*
X145879186Y-114586456D01*
X145884718Y-114581996D01*
X145890372Y-114577788D01*
X145896150Y-114573831D01*
X145904044Y-114568948D01*
X145912156Y-114564512D01*
X145920487Y-114560524D01*
X145929036Y-114556984D01*
X145937804Y-114553891D01*
X145944523Y-114551865D01*
X145951305Y-114550055D01*
X145960353Y-114547917D01*
X145969406Y-114546097D01*
X145978464Y-114544593D01*
X145987528Y-114543405D01*
X145996597Y-114542534D01*
X146005672Y-114541980D01*
X146014752Y-114541743D01*
X146017023Y-114541733D01*
X146026064Y-114541891D01*
G37*
G36*
X146430359Y-114564094D02*
G01*
X146619557Y-114564094D01*
X146619557Y-114618425D01*
X146623465Y-114612535D01*
X146627656Y-114606918D01*
X146633683Y-114599853D01*
X146640212Y-114593275D01*
X146647244Y-114587182D01*
X146652847Y-114582932D01*
X146658733Y-114578955D01*
X146664901Y-114575251D01*
X146671352Y-114571820D01*
X146675810Y-114569685D01*
X146682614Y-114566687D01*
X146689399Y-114563985D01*
X146696166Y-114561578D01*
X146702915Y-114559465D01*
X146711885Y-114557106D01*
X146720822Y-114555272D01*
X146729726Y-114553962D01*
X146738597Y-114553176D01*
X146747436Y-114552914D01*
X146872170Y-114552914D01*
X146872170Y-114619998D01*
X146747436Y-114619998D01*
X146739621Y-114620198D01*
X146731901Y-114620799D01*
X146724274Y-114621802D01*
X146716741Y-114623205D01*
X146709302Y-114625009D01*
X146701956Y-114627214D01*
X146699044Y-114628208D01*
X146691970Y-114630975D01*
X146685161Y-114634142D01*
X146678615Y-114637710D01*
X146672335Y-114641679D01*
X146666318Y-114646049D01*
X146660566Y-114650820D01*
X146658340Y-114652841D01*
X146652996Y-114658186D01*
X146647994Y-114663957D01*
X146643333Y-114670155D01*
X146639014Y-114676780D01*
X146635035Y-114683831D01*
X146631398Y-114691309D01*
X146630039Y-114694419D01*
X146627019Y-114702468D01*
X146624972Y-114709178D01*
X146623252Y-114716127D01*
X146621860Y-114723317D01*
X146620795Y-114730747D01*
X146620058Y-114738418D01*
X146619649Y-114746328D01*
X146619557Y-114752419D01*
X146619557Y-115011321D01*
X146821857Y-115011321D01*
X146821857Y-115078406D01*
X146380046Y-115078406D01*
X146380046Y-115011321D01*
X146544087Y-115011321D01*
X146544087Y-114631178D01*
X146430359Y-114631178D01*
X146430359Y-114564094D01*
G37*
G36*
X147181036Y-114977779D02*
G01*
X147286554Y-114977779D01*
X147286554Y-115078406D01*
X147181036Y-115078406D01*
X147181036Y-114977779D01*
G37*
G36*
X147717185Y-114719750D02*
G01*
X147710697Y-114714361D01*
X147704468Y-114708742D01*
X147698496Y-114702893D01*
X147692782Y-114696813D01*
X147687326Y-114690503D01*
X147682128Y-114683962D01*
X147677188Y-114677192D01*
X147672506Y-114670191D01*
X147668082Y-114662959D01*
X147663916Y-114655498D01*
X147661282Y-114650395D01*
X147657598Y-114642572D01*
X147654276Y-114634629D01*
X147651317Y-114626567D01*
X147648720Y-114618384D01*
X147646485Y-114610082D01*
X147644613Y-114601660D01*
X147643103Y-114593119D01*
X147641956Y-114584457D01*
X147641170Y-114575676D01*
X147640748Y-114566775D01*
X147640667Y-114560775D01*
X147640808Y-114552897D01*
X147641232Y-114545118D01*
X147641939Y-114537436D01*
X147642927Y-114529853D01*
X147644199Y-114522369D01*
X147645753Y-114514982D01*
X147647589Y-114507694D01*
X147649708Y-114500504D01*
X147652109Y-114493412D01*
X147654793Y-114486419D01*
X147656739Y-114481811D01*
X147659854Y-114475025D01*
X147663172Y-114468422D01*
X147666692Y-114462004D01*
X147670415Y-114455770D01*
X147674341Y-114449721D01*
X147678469Y-114443856D01*
X147682800Y-114438174D01*
X147687333Y-114432678D01*
X147692070Y-114427365D01*
X147697009Y-114422237D01*
X147700414Y-114418920D01*
X147705700Y-114414107D01*
X147711144Y-114409493D01*
X147716743Y-114405078D01*
X147722500Y-114400863D01*
X147728413Y-114396848D01*
X147734482Y-114393033D01*
X147740708Y-114389417D01*
X147747091Y-114386000D01*
X147753631Y-114382784D01*
X147760327Y-114379767D01*
X147764878Y-114377866D01*
X147771837Y-114375181D01*
X147778891Y-114372760D01*
X147786040Y-114370603D01*
X147793285Y-114368711D01*
X147800625Y-114367082D01*
X147808060Y-114365718D01*
X147815590Y-114364617D01*
X147823216Y-114363781D01*
X147830936Y-114363209D01*
X147838752Y-114362901D01*
X147844016Y-114362842D01*
X147851862Y-114362983D01*
X147859614Y-114363407D01*
X147867270Y-114364113D01*
X147874831Y-114365102D01*
X147882297Y-114366374D01*
X147889667Y-114367927D01*
X147896943Y-114369764D01*
X147904123Y-114371883D01*
X147911208Y-114374284D01*
X147918198Y-114376968D01*
X147922805Y-114378914D01*
X147929635Y-114381996D01*
X147936302Y-114385281D01*
X147942807Y-114388769D01*
X147949149Y-114392459D01*
X147955328Y-114396352D01*
X147961344Y-114400447D01*
X147967198Y-114404745D01*
X147972888Y-114409246D01*
X147978416Y-114413950D01*
X147983782Y-114418856D01*
X147987268Y-114422239D01*
X147992374Y-114427460D01*
X147997273Y-114432838D01*
X148001967Y-114438372D01*
X148006455Y-114444063D01*
X148010737Y-114449910D01*
X148014814Y-114455914D01*
X148018685Y-114462075D01*
X148022350Y-114468392D01*
X148025809Y-114474866D01*
X148029063Y-114481497D01*
X148031117Y-114486004D01*
X148033990Y-114492867D01*
X148036580Y-114499827D01*
X148038887Y-114506886D01*
X148040912Y-114514043D01*
X148042654Y-114521299D01*
X148044113Y-114528652D01*
X148045291Y-114536104D01*
X148046185Y-114543655D01*
X148046797Y-114551303D01*
X148047127Y-114559050D01*
X148047190Y-114564269D01*
X148047102Y-114571423D01*
X148046748Y-114580098D01*
X148046120Y-114588474D01*
X148045219Y-114596551D01*
X148044045Y-114604329D01*
X148042598Y-114611810D01*
X148041599Y-114616154D01*
X148039779Y-114623259D01*
X148037703Y-114630270D01*
X148035371Y-114637187D01*
X148032783Y-114644010D01*
X148029939Y-114650740D01*
X148026839Y-114657376D01*
X148025527Y-114660004D01*
X148022124Y-114666563D01*
X148018464Y-114673140D01*
X148014549Y-114679734D01*
X148010378Y-114686345D01*
X148005950Y-114692973D01*
X148001267Y-114699618D01*
X147999322Y-114702280D01*
X147994353Y-114708950D01*
X147989161Y-114715748D01*
X147984848Y-114721278D01*
X147980394Y-114726890D01*
X147975797Y-114732584D01*
X147971058Y-114738360D01*
X147966178Y-114744218D01*
X147963684Y-114747178D01*
X147738323Y-115011321D01*
X148047190Y-115011321D01*
X148047190Y-115078406D01*
X147640667Y-115078406D01*
X147640667Y-115011321D01*
X147910401Y-114698088D01*
X147915208Y-114692470D01*
X147919868Y-114686818D01*
X147924380Y-114681132D01*
X147928744Y-114675412D01*
X147932962Y-114669659D01*
X147937032Y-114663872D01*
X147940954Y-114658051D01*
X147945955Y-114650238D01*
X147950694Y-114642364D01*
X147954076Y-114636419D01*
X147958211Y-114628323D01*
X147961795Y-114619932D01*
X147964828Y-114611246D01*
X147967309Y-114602266D01*
X147968808Y-114595337D01*
X147969997Y-114588242D01*
X147970876Y-114580982D01*
X147971444Y-114573555D01*
X147971703Y-114565963D01*
X147971720Y-114563395D01*
X147971473Y-114555157D01*
X147970731Y-114547038D01*
X147969494Y-114539038D01*
X147967762Y-114531158D01*
X147965536Y-114523397D01*
X147962815Y-114515756D01*
X147961588Y-114512733D01*
X147958301Y-114505285D01*
X147954665Y-114498119D01*
X147950678Y-114491234D01*
X147946343Y-114484631D01*
X147941657Y-114478309D01*
X147936622Y-114472269D01*
X147934509Y-114469932D01*
X147929010Y-114464337D01*
X147923212Y-114459126D01*
X147917116Y-114454299D01*
X147910720Y-114449855D01*
X147904027Y-114445796D01*
X147897035Y-114442120D01*
X147894154Y-114440757D01*
X147886850Y-114437637D01*
X147879349Y-114435046D01*
X147871652Y-114432983D01*
X147863759Y-114431449D01*
X147855670Y-114430444D01*
X147847385Y-114429968D01*
X147844016Y-114429926D01*
X147835597Y-114430186D01*
X147827375Y-114430967D01*
X147819349Y-114432268D01*
X147811519Y-114434089D01*
X147803886Y-114436430D01*
X147796448Y-114439292D01*
X147793528Y-114440583D01*
X147786467Y-114444046D01*
X147779696Y-114447885D01*
X147773214Y-114452098D01*
X147767023Y-114456688D01*
X147761122Y-114461652D01*
X147755511Y-114466992D01*
X147753347Y-114469233D01*
X147748168Y-114474997D01*
X147743330Y-114481042D01*
X147738833Y-114487369D01*
X147734677Y-114493978D01*
X147730862Y-114500867D01*
X147727388Y-114508039D01*
X147726095Y-114510986D01*
X147723226Y-114518420D01*
X147720843Y-114525982D01*
X147718947Y-114533672D01*
X147717537Y-114541490D01*
X147716613Y-114549436D01*
X147716176Y-114557510D01*
X147716137Y-114560775D01*
X147716350Y-114568481D01*
X147716988Y-114576050D01*
X147718053Y-114583483D01*
X147719543Y-114590779D01*
X147721460Y-114597939D01*
X147723802Y-114604963D01*
X147726570Y-114611850D01*
X147729763Y-114618600D01*
X147733317Y-114625146D01*
X147737166Y-114631419D01*
X147741310Y-114637418D01*
X147745748Y-114643145D01*
X147750481Y-114648599D01*
X147755509Y-114653780D01*
X147760832Y-114658688D01*
X147766450Y-114663323D01*
X147717185Y-114719750D01*
G37*
G36*
X148398333Y-114977779D02*
G01*
X148503851Y-114977779D01*
X148503851Y-115078406D01*
X148398333Y-115078406D01*
X148398333Y-114977779D01*
G37*
G36*
X149038077Y-115011321D02*
G01*
X149038077Y-114478492D01*
X148927319Y-114590124D01*
X148876132Y-114537365D01*
X149038077Y-114374023D01*
X149113547Y-114374023D01*
X149113547Y-115011321D01*
X149296631Y-115011321D01*
X149296631Y-115078406D01*
X148854994Y-115078406D01*
X148854994Y-115011321D01*
X149038077Y-115011321D01*
G37*
G36*
X150503969Y-115078406D02*
G01*
X150426403Y-115078406D01*
X150126621Y-114523914D01*
X150126621Y-115078406D01*
X150049055Y-115078406D01*
X150049055Y-114374023D01*
X150126621Y-114374023D01*
X150426403Y-114928515D01*
X150426403Y-114374023D01*
X150503969Y-114374023D01*
X150503969Y-115078406D01*
G37*
G36*
X150772480Y-115011321D02*
G01*
X151095497Y-115011321D01*
X151095497Y-115078406D01*
X150694914Y-115078406D01*
X150694914Y-114374023D01*
X151095497Y-114374023D01*
X151095497Y-114441107D01*
X150772480Y-114441107D01*
X150772480Y-114687082D01*
X151025094Y-114687082D01*
X151025094Y-114754166D01*
X150772480Y-114754166D01*
X150772480Y-115011321D01*
G37*
G36*
X151503167Y-114362989D02*
G01*
X151512375Y-114363432D01*
X151521433Y-114364169D01*
X151530340Y-114365200D01*
X151539096Y-114366527D01*
X151547703Y-114368148D01*
X151556158Y-114370065D01*
X151564463Y-114372276D01*
X151572618Y-114374782D01*
X151580622Y-114377582D01*
X151585875Y-114379613D01*
X151593602Y-114382849D01*
X151601127Y-114386334D01*
X151608449Y-114390068D01*
X151615568Y-114394050D01*
X151622485Y-114398281D01*
X151629199Y-114402761D01*
X151635710Y-114407490D01*
X151642018Y-114412467D01*
X151648124Y-114417693D01*
X151654027Y-114423168D01*
X151657850Y-114426956D01*
X151663397Y-114432843D01*
X151668705Y-114438971D01*
X151673773Y-114445343D01*
X151678601Y-114451957D01*
X151683190Y-114458814D01*
X151687540Y-114465913D01*
X151691649Y-114473255D01*
X151695520Y-114480840D01*
X151699150Y-114488667D01*
X151702542Y-114496737D01*
X151704669Y-114502251D01*
X151707635Y-114510668D01*
X151710310Y-114519278D01*
X151712692Y-114528082D01*
X151714783Y-114537079D01*
X151716582Y-114546269D01*
X151718089Y-114555653D01*
X151719305Y-114565231D01*
X151720229Y-114575002D01*
X151720861Y-114584966D01*
X151721201Y-114595124D01*
X151721266Y-114602004D01*
X151721266Y-114850424D01*
X151721120Y-114860713D01*
X151720682Y-114870811D01*
X151719953Y-114880719D01*
X151718932Y-114890436D01*
X151717619Y-114899963D01*
X151716015Y-114909299D01*
X151714118Y-114918445D01*
X151711930Y-114927401D01*
X151709451Y-114936166D01*
X151706679Y-114944741D01*
X151704669Y-114950352D01*
X151701438Y-114958552D01*
X151697967Y-114966513D01*
X151694256Y-114974234D01*
X151690306Y-114981716D01*
X151686116Y-114988958D01*
X151681687Y-114995960D01*
X151677018Y-115002723D01*
X151672110Y-115009247D01*
X151666962Y-115015531D01*
X151661575Y-115021575D01*
X151657850Y-115025472D01*
X151652082Y-115031114D01*
X151646111Y-115036511D01*
X151639938Y-115041662D01*
X151633562Y-115046567D01*
X151626983Y-115051226D01*
X151620202Y-115055640D01*
X151613217Y-115059808D01*
X151606031Y-115063731D01*
X151598641Y-115067408D01*
X151591049Y-115070839D01*
X151585875Y-115072990D01*
X151577971Y-115075956D01*
X151569916Y-115078630D01*
X151561712Y-115081012D01*
X151553356Y-115083103D01*
X151544851Y-115084902D01*
X151536194Y-115086410D01*
X151527388Y-115087625D01*
X151518430Y-115088549D01*
X151509323Y-115089181D01*
X151500065Y-115089521D01*
X151493809Y-115089586D01*
X151484450Y-115089440D01*
X151475242Y-115089003D01*
X151466185Y-115088273D01*
X151457278Y-115087252D01*
X151448521Y-115085940D01*
X151439915Y-115084335D01*
X151431460Y-115082439D01*
X151423154Y-115080251D01*
X151415000Y-115077771D01*
X151406995Y-115075000D01*
X151401743Y-115072990D01*
X151394016Y-115069722D01*
X151386491Y-115066209D01*
X151379169Y-115062451D01*
X151372050Y-115058446D01*
X151365133Y-115054196D01*
X151358419Y-115049700D01*
X151351908Y-115044959D01*
X151345599Y-115039972D01*
X151339493Y-115034739D01*
X151333590Y-115029261D01*
X151329767Y-115025472D01*
X151324220Y-115019587D01*
X151318913Y-115013463D01*
X151313845Y-115007099D01*
X151309016Y-115000496D01*
X151304428Y-114993653D01*
X151300078Y-114986570D01*
X151295968Y-114979248D01*
X151292098Y-114971687D01*
X151288467Y-114963886D01*
X151285076Y-114955845D01*
X151282948Y-114950352D01*
X151279982Y-114941904D01*
X151277308Y-114933265D01*
X151274926Y-114924437D01*
X151272835Y-114915418D01*
X151271036Y-114906208D01*
X151269529Y-114896808D01*
X151268313Y-114887218D01*
X151267389Y-114877437D01*
X151266757Y-114867466D01*
X151266417Y-114857305D01*
X151266392Y-114854617D01*
X151343918Y-114854617D01*
X151344019Y-114862324D01*
X151344323Y-114869853D01*
X151344830Y-114877203D01*
X151345539Y-114884376D01*
X151346451Y-114891370D01*
X151347983Y-114900419D01*
X151349874Y-114909151D01*
X151352126Y-114917567D01*
X151354739Y-114925666D01*
X151355448Y-114927641D01*
X151358472Y-114935306D01*
X151361781Y-114942665D01*
X151365373Y-114949719D01*
X151369249Y-114956466D01*
X151373409Y-114962908D01*
X151377853Y-114969044D01*
X151382581Y-114974875D01*
X151387592Y-114980400D01*
X151392847Y-114985559D01*
X151398304Y-114990379D01*
X151403962Y-114994862D01*
X151409823Y-114999005D01*
X151415885Y-115002810D01*
X151422150Y-115006277D01*
X151428616Y-115009405D01*
X151435285Y-115012195D01*
X151442161Y-115014611D01*
X151449163Y-115016704D01*
X151456290Y-115018476D01*
X151463542Y-115019925D01*
X151470921Y-115021053D01*
X151478424Y-115021858D01*
X151486054Y-115022341D01*
X151493809Y-115022502D01*
X151501561Y-115022341D01*
X151509182Y-115021858D01*
X151516672Y-115021053D01*
X151524032Y-115019925D01*
X151531260Y-115018476D01*
X151538357Y-115016704D01*
X151545323Y-115014611D01*
X151552158Y-115012195D01*
X151558868Y-115009405D01*
X151565370Y-115006277D01*
X151571664Y-115002810D01*
X151577751Y-114999005D01*
X151583631Y-114994862D01*
X151589303Y-114990379D01*
X151594768Y-114985559D01*
X151600025Y-114980400D01*
X151605037Y-114974875D01*
X151609765Y-114969044D01*
X151614209Y-114962908D01*
X151618369Y-114956466D01*
X151622245Y-114949719D01*
X151625837Y-114942665D01*
X151629145Y-114935306D01*
X151632170Y-114927641D01*
X151634872Y-114919621D01*
X151637214Y-114911285D01*
X151639196Y-114902632D01*
X151640817Y-114893662D01*
X151641797Y-114886727D01*
X151642574Y-114879614D01*
X151643148Y-114872323D01*
X151643520Y-114864853D01*
X151643689Y-114857206D01*
X151643700Y-114854617D01*
X151643700Y-114597811D01*
X151643598Y-114590106D01*
X151643294Y-114582582D01*
X151642788Y-114575239D01*
X151642078Y-114568077D01*
X151641166Y-114561096D01*
X151639635Y-114552071D01*
X151637743Y-114543367D01*
X151635491Y-114534986D01*
X151632879Y-114526926D01*
X151632170Y-114524962D01*
X151629145Y-114517267D01*
X151625837Y-114509905D01*
X151622245Y-114502876D01*
X151618369Y-114496180D01*
X151614209Y-114489818D01*
X151609765Y-114483788D01*
X151605037Y-114478091D01*
X151600025Y-114472727D01*
X151594768Y-114467645D01*
X151589303Y-114462879D01*
X151583631Y-114458429D01*
X151577751Y-114454296D01*
X151571664Y-114450480D01*
X151565370Y-114446981D01*
X151558868Y-114443798D01*
X151552158Y-114440932D01*
X151545323Y-114438353D01*
X151538357Y-114436117D01*
X151531260Y-114434225D01*
X151524032Y-114432678D01*
X151516672Y-114431474D01*
X151509182Y-114430614D01*
X151501561Y-114430098D01*
X151493809Y-114429926D01*
X151486054Y-114430098D01*
X151478424Y-114430614D01*
X151470921Y-114431474D01*
X151463542Y-114432678D01*
X151456290Y-114434225D01*
X151449163Y-114436117D01*
X151442161Y-114438353D01*
X151435285Y-114440932D01*
X151428616Y-114443798D01*
X151422150Y-114446981D01*
X151415885Y-114450480D01*
X151409823Y-114454296D01*
X151403962Y-114458429D01*
X151398304Y-114462879D01*
X151392847Y-114467645D01*
X151387592Y-114472727D01*
X151382581Y-114478091D01*
X151377853Y-114483788D01*
X151373409Y-114489818D01*
X151369249Y-114496180D01*
X151365373Y-114502876D01*
X151361781Y-114509905D01*
X151358472Y-114517267D01*
X151355448Y-114524962D01*
X151352746Y-114532941D01*
X151350404Y-114541242D01*
X151348422Y-114549865D01*
X151346800Y-114558810D01*
X151345821Y-114565730D01*
X151345044Y-114572831D01*
X151344470Y-114580114D01*
X151344098Y-114587577D01*
X151343929Y-114595222D01*
X151343918Y-114597811D01*
X151343918Y-114854617D01*
X151266392Y-114854617D01*
X151266352Y-114850424D01*
X151266352Y-114602004D01*
X151266498Y-114591717D01*
X151266935Y-114581623D01*
X151267665Y-114571723D01*
X151268686Y-114562017D01*
X151269999Y-114552504D01*
X151271603Y-114543184D01*
X151273499Y-114534058D01*
X151275687Y-114525126D01*
X151278167Y-114516386D01*
X151280939Y-114507841D01*
X151282948Y-114502251D01*
X151286180Y-114494020D01*
X151289651Y-114486031D01*
X151293362Y-114478285D01*
X151297312Y-114470781D01*
X151301501Y-114463520D01*
X151305931Y-114456501D01*
X151310599Y-114449725D01*
X151315508Y-114443192D01*
X151320655Y-114436902D01*
X151326043Y-114430853D01*
X151329767Y-114426956D01*
X151335535Y-114421316D01*
X151341506Y-114415924D01*
X151347680Y-114410780D01*
X151354056Y-114405886D01*
X151360635Y-114401240D01*
X151367416Y-114396843D01*
X151374400Y-114392695D01*
X151381587Y-114388796D01*
X151388977Y-114385145D01*
X151396569Y-114381743D01*
X151401743Y-114379613D01*
X151409647Y-114376616D01*
X151417701Y-114373914D01*
X151425906Y-114371506D01*
X151434261Y-114369393D01*
X151442767Y-114367575D01*
X151451423Y-114366052D01*
X151460230Y-114364824D01*
X151469187Y-114363890D01*
X151478295Y-114363251D01*
X151487553Y-114362908D01*
X151493809Y-114362842D01*
X151503167Y-114362989D01*
G37*
G36*
X151699516Y-95861321D02*
G01*
X152022532Y-95861321D01*
X152022532Y-95928406D01*
X151621950Y-95928406D01*
X151621950Y-95224023D01*
X152022532Y-95224023D01*
X152022532Y-95291107D01*
X151699516Y-95291107D01*
X151699516Y-95537082D01*
X151952129Y-95537082D01*
X151952129Y-95604166D01*
X151699516Y-95604166D01*
X151699516Y-95861321D01*
G37*
G36*
X152308164Y-95861321D02*
G01*
X152631181Y-95861321D01*
X152631181Y-95928406D01*
X152230598Y-95928406D01*
X152230598Y-95224023D01*
X152631181Y-95224023D01*
X152631181Y-95291107D01*
X152308164Y-95291107D01*
X152308164Y-95537082D01*
X152560777Y-95537082D01*
X152560777Y-95604166D01*
X152308164Y-95604166D01*
X152308164Y-95861321D01*
G37*
G36*
X153061216Y-95224085D02*
G01*
X153068688Y-95224271D01*
X153076016Y-95224582D01*
X153083201Y-95225016D01*
X153090243Y-95225575D01*
X153100537Y-95226646D01*
X153110509Y-95227997D01*
X153120158Y-95229627D01*
X153129485Y-95231537D01*
X153138489Y-95233726D01*
X153147171Y-95236194D01*
X153155530Y-95238942D01*
X153158245Y-95239920D01*
X153166226Y-95243010D01*
X153173921Y-95246318D01*
X153181330Y-95249844D01*
X153188454Y-95253588D01*
X153195292Y-95257550D01*
X153201845Y-95261730D01*
X153208112Y-95266128D01*
X153214094Y-95270744D01*
X153219790Y-95275578D01*
X153225200Y-95280630D01*
X153228648Y-95284119D01*
X153233629Y-95289522D01*
X153238352Y-95295119D01*
X153242817Y-95300909D01*
X153247024Y-95306892D01*
X153250973Y-95313069D01*
X153254665Y-95319440D01*
X153258098Y-95326004D01*
X153261273Y-95332761D01*
X153264190Y-95339712D01*
X153266850Y-95346857D01*
X153268479Y-95351727D01*
X153270727Y-95359121D01*
X153272754Y-95366629D01*
X153274560Y-95374250D01*
X153276144Y-95381985D01*
X153277508Y-95389834D01*
X153278650Y-95397796D01*
X153279571Y-95405872D01*
X153280272Y-95414061D01*
X153280751Y-95422365D01*
X153281009Y-95430781D01*
X153281058Y-95436456D01*
X153280947Y-95445132D01*
X153280615Y-95453671D01*
X153280063Y-95462071D01*
X153279289Y-95470333D01*
X153278294Y-95478457D01*
X153277078Y-95486443D01*
X153275641Y-95494291D01*
X153273982Y-95502000D01*
X153272103Y-95509571D01*
X153270003Y-95517004D01*
X153268479Y-95521883D01*
X153265992Y-95529031D01*
X153263247Y-95535999D01*
X153260243Y-95542785D01*
X153256982Y-95549390D01*
X153253463Y-95555813D01*
X153249686Y-95562056D01*
X153245651Y-95568117D01*
X153241358Y-95573998D01*
X153236806Y-95579697D01*
X153231998Y-95585214D01*
X153228648Y-95588792D01*
X153223428Y-95593990D01*
X153217923Y-95598969D01*
X153212132Y-95603731D01*
X153206055Y-95608274D01*
X153199693Y-95612599D01*
X153193045Y-95616707D01*
X153186111Y-95620596D01*
X153178892Y-95624267D01*
X153171387Y-95627720D01*
X153163597Y-95630955D01*
X153158245Y-95632991D01*
X153149993Y-95635832D01*
X153141419Y-95638394D01*
X153132522Y-95640676D01*
X153123303Y-95642679D01*
X153113761Y-95644402D01*
X153103897Y-95645846D01*
X153093710Y-95647010D01*
X153086740Y-95647631D01*
X153079626Y-95648128D01*
X153072370Y-95648500D01*
X153064970Y-95648749D01*
X153057426Y-95648873D01*
X153053601Y-95648889D01*
X152903710Y-95648889D01*
X152903710Y-95928406D01*
X152826318Y-95928406D01*
X152826318Y-95291107D01*
X152903710Y-95291107D01*
X152903710Y-95581804D01*
X153053601Y-95581804D01*
X153061064Y-95581703D01*
X153068322Y-95581399D01*
X153075375Y-95580892D01*
X153084458Y-95579902D01*
X153093175Y-95578550D01*
X153101526Y-95576839D01*
X153109512Y-95574767D01*
X153117132Y-95572335D01*
X153122606Y-95570274D01*
X153129589Y-95567228D01*
X153136211Y-95563942D01*
X153142473Y-95560415D01*
X153148374Y-95556648D01*
X153155245Y-95551601D01*
X153161552Y-95546180D01*
X153167296Y-95540383D01*
X153168377Y-95539178D01*
X153173506Y-95532902D01*
X153178190Y-95526301D01*
X153182432Y-95519376D01*
X153186229Y-95512127D01*
X153189583Y-95504554D01*
X153192494Y-95496657D01*
X153193534Y-95493407D01*
X153195849Y-95485061D01*
X153197419Y-95478237D01*
X153198737Y-95471282D01*
X153199804Y-95464196D01*
X153200620Y-95456979D01*
X153201185Y-95449630D01*
X153201499Y-95442151D01*
X153201570Y-95436456D01*
X153201444Y-95429118D01*
X153201068Y-95421868D01*
X153200440Y-95414706D01*
X153199561Y-95407630D01*
X153198431Y-95400642D01*
X153197050Y-95393742D01*
X153195417Y-95386929D01*
X153193534Y-95380203D01*
X153190801Y-95371979D01*
X153187624Y-95364122D01*
X153184004Y-95356631D01*
X153179940Y-95349508D01*
X153175433Y-95342751D01*
X153170482Y-95336361D01*
X153168377Y-95333908D01*
X153162746Y-95327990D01*
X153156551Y-95322464D01*
X153149794Y-95317330D01*
X153142473Y-95312589D01*
X153136211Y-95309079D01*
X153129589Y-95305820D01*
X153122606Y-95302812D01*
X153115261Y-95300068D01*
X153107550Y-95297691D01*
X153099473Y-95295679D01*
X153091030Y-95294033D01*
X153082221Y-95292753D01*
X153073047Y-95291838D01*
X153065926Y-95291393D01*
X153058599Y-95291152D01*
X153053601Y-95291107D01*
X152903710Y-95291107D01*
X152826318Y-95291107D01*
X152826318Y-95224023D01*
X153053601Y-95224023D01*
X153061216Y-95224085D01*
G37*
G36*
X153680709Y-95224172D02*
G01*
X153690819Y-95224618D01*
X153700616Y-95225363D01*
X153710100Y-95226406D01*
X153719270Y-95227746D01*
X153728128Y-95229384D01*
X153736672Y-95231321D01*
X153744903Y-95233555D01*
X153752821Y-95236087D01*
X153760425Y-95238916D01*
X153765321Y-95240968D01*
X153772464Y-95244235D01*
X153779349Y-95247679D01*
X153785975Y-95251302D01*
X153792344Y-95255103D01*
X153798455Y-95259081D01*
X153804309Y-95263238D01*
X153809904Y-95267573D01*
X153815241Y-95272087D01*
X153821956Y-95278381D01*
X153828212Y-95284992D01*
X153834067Y-95291836D01*
X153839491Y-95298914D01*
X153844484Y-95306226D01*
X153849045Y-95313774D01*
X153853175Y-95321556D01*
X153856874Y-95329573D01*
X153860141Y-95337825D01*
X153862977Y-95346311D01*
X153865475Y-95354923D01*
X153867639Y-95363552D01*
X153869471Y-95372197D01*
X153870970Y-95380858D01*
X153872135Y-95389536D01*
X153872968Y-95398229D01*
X153873467Y-95406940D01*
X153873634Y-95415667D01*
X153873492Y-95423602D01*
X153873066Y-95431509D01*
X153872356Y-95439390D01*
X153871363Y-95447243D01*
X153870085Y-95455069D01*
X153868524Y-95462868D01*
X153866678Y-95470639D01*
X153864549Y-95478383D01*
X153862115Y-95486037D01*
X153859352Y-95493538D01*
X153856262Y-95500886D01*
X153852845Y-95508082D01*
X153849100Y-95515124D01*
X153845027Y-95522014D01*
X153840627Y-95528751D01*
X153835899Y-95535335D01*
X153830824Y-95541684D01*
X153825384Y-95547804D01*
X153819578Y-95553694D01*
X153813406Y-95559356D01*
X153806869Y-95564788D01*
X153799966Y-95569990D01*
X153792697Y-95574964D01*
X153785062Y-95579708D01*
X153777026Y-95584141D01*
X153770712Y-95587208D01*
X153764153Y-95590053D01*
X153757348Y-95592678D01*
X153750297Y-95595081D01*
X153743000Y-95597264D01*
X153735458Y-95599225D01*
X153727671Y-95600965D01*
X153719637Y-95602484D01*
X153711358Y-95603782D01*
X153708544Y-95604166D01*
X153896694Y-95928406D01*
X153807248Y-95928406D01*
X153619972Y-95604166D01*
X153508340Y-95604166D01*
X153508340Y-95928406D01*
X153430774Y-95928406D01*
X153430774Y-95291107D01*
X153508340Y-95291107D01*
X153508340Y-95537082D01*
X153670285Y-95537082D01*
X153677730Y-95536946D01*
X153684954Y-95536539D01*
X153691957Y-95535860D01*
X153702047Y-95534332D01*
X153711639Y-95532193D01*
X153720734Y-95529443D01*
X153729332Y-95526082D01*
X153737432Y-95522110D01*
X153745034Y-95517526D01*
X153752139Y-95512332D01*
X153758746Y-95506527D01*
X153762875Y-95502317D01*
X153768651Y-95495600D01*
X153773859Y-95488551D01*
X153778498Y-95481171D01*
X153782570Y-95473459D01*
X153786073Y-95465415D01*
X153789008Y-95457040D01*
X153791375Y-95448333D01*
X153793174Y-95439294D01*
X153794405Y-95429924D01*
X153795068Y-95420222D01*
X153795194Y-95413570D01*
X153794910Y-95403653D01*
X153794058Y-95394080D01*
X153792638Y-95384851D01*
X153790649Y-95375966D01*
X153788093Y-95367425D01*
X153784968Y-95359228D01*
X153781276Y-95351375D01*
X153777015Y-95343866D01*
X153772186Y-95336700D01*
X153766789Y-95329879D01*
X153762875Y-95325522D01*
X153756599Y-95319372D01*
X153749826Y-95313826D01*
X153742555Y-95308886D01*
X153734787Y-95304550D01*
X153726521Y-95300820D01*
X153717758Y-95297694D01*
X153708497Y-95295173D01*
X153698739Y-95293258D01*
X153688483Y-95291947D01*
X153681370Y-95291409D01*
X153674035Y-95291140D01*
X153670285Y-95291107D01*
X153508340Y-95291107D01*
X153430774Y-95291107D01*
X153430774Y-95224023D01*
X153670285Y-95224023D01*
X153680709Y-95224172D01*
G37*
G36*
X154256147Y-95212989D02*
G01*
X154265355Y-95213432D01*
X154274413Y-95214169D01*
X154283320Y-95215200D01*
X154292076Y-95216527D01*
X154300683Y-95218148D01*
X154309138Y-95220065D01*
X154317443Y-95222276D01*
X154325598Y-95224782D01*
X154333602Y-95227582D01*
X154338855Y-95229613D01*
X154346582Y-95232849D01*
X154354107Y-95236334D01*
X154361429Y-95240068D01*
X154368548Y-95244050D01*
X154375465Y-95248281D01*
X154382179Y-95252761D01*
X154388690Y-95257490D01*
X154394998Y-95262467D01*
X154401104Y-95267693D01*
X154407007Y-95273168D01*
X154410830Y-95276956D01*
X154416377Y-95282843D01*
X154421685Y-95288971D01*
X154426753Y-95295343D01*
X154431581Y-95301957D01*
X154436170Y-95308814D01*
X154440519Y-95315913D01*
X154444629Y-95323255D01*
X154448500Y-95330840D01*
X154452130Y-95338667D01*
X154455522Y-95346737D01*
X154457649Y-95352251D01*
X154460615Y-95360668D01*
X154463290Y-95369278D01*
X154465672Y-95378082D01*
X154467763Y-95387079D01*
X154469562Y-95396269D01*
X154471069Y-95405653D01*
X154472285Y-95415231D01*
X154473209Y-95425002D01*
X154473841Y-95434966D01*
X154474181Y-95445124D01*
X154474246Y-95452004D01*
X154474246Y-95700424D01*
X154474100Y-95710713D01*
X154473662Y-95720811D01*
X154472933Y-95730719D01*
X154471912Y-95740436D01*
X154470599Y-95749963D01*
X154468995Y-95759299D01*
X154467098Y-95768445D01*
X154464910Y-95777401D01*
X154462431Y-95786166D01*
X154459659Y-95794741D01*
X154457649Y-95800352D01*
X154454418Y-95808552D01*
X154450947Y-95816513D01*
X154447236Y-95824234D01*
X154443286Y-95831716D01*
X154439096Y-95838958D01*
X154434667Y-95845960D01*
X154429998Y-95852723D01*
X154425090Y-95859247D01*
X154419942Y-95865531D01*
X154414555Y-95871575D01*
X154410830Y-95875472D01*
X154405062Y-95881114D01*
X154399091Y-95886511D01*
X154392918Y-95891662D01*
X154386542Y-95896567D01*
X154379963Y-95901226D01*
X154373182Y-95905640D01*
X154366197Y-95909808D01*
X154359011Y-95913731D01*
X154351621Y-95917408D01*
X154344029Y-95920839D01*
X154338855Y-95922990D01*
X154330951Y-95925956D01*
X154322896Y-95928630D01*
X154314692Y-95931012D01*
X154306336Y-95933103D01*
X154297831Y-95934902D01*
X154289174Y-95936410D01*
X154280368Y-95937625D01*
X154271410Y-95938549D01*
X154262303Y-95939181D01*
X154253045Y-95939521D01*
X154246789Y-95939586D01*
X154237430Y-95939440D01*
X154228222Y-95939003D01*
X154219165Y-95938273D01*
X154210258Y-95937252D01*
X154201501Y-95935940D01*
X154192895Y-95934335D01*
X154184440Y-95932439D01*
X154176134Y-95930251D01*
X154167980Y-95927771D01*
X154159975Y-95925000D01*
X154154723Y-95922990D01*
X154146996Y-95919722D01*
X154139471Y-95916209D01*
X154132149Y-95912451D01*
X154125030Y-95908446D01*
X154118113Y-95904196D01*
X154111399Y-95899700D01*
X154104888Y-95894959D01*
X154098579Y-95889972D01*
X154092473Y-95884739D01*
X154086570Y-95879261D01*
X154082747Y-95875472D01*
X154077200Y-95869587D01*
X154071893Y-95863463D01*
X154066825Y-95857099D01*
X154061996Y-95850496D01*
X154057408Y-95843653D01*
X154053058Y-95836570D01*
X154048948Y-95829248D01*
X154045078Y-95821687D01*
X154041447Y-95813886D01*
X154038056Y-95805845D01*
X154035928Y-95800352D01*
X154032962Y-95791904D01*
X154030288Y-95783265D01*
X154027906Y-95774437D01*
X154025815Y-95765418D01*
X154024016Y-95756208D01*
X154022509Y-95746808D01*
X154021293Y-95737218D01*
X154020369Y-95727437D01*
X154019737Y-95717466D01*
X154019397Y-95707305D01*
X154019372Y-95704617D01*
X154096898Y-95704617D01*
X154096999Y-95712324D01*
X154097303Y-95719853D01*
X154097810Y-95727203D01*
X154098519Y-95734376D01*
X154099431Y-95741370D01*
X154100963Y-95750419D01*
X154102854Y-95759151D01*
X154105106Y-95767567D01*
X154107719Y-95775666D01*
X154108428Y-95777641D01*
X154111452Y-95785306D01*
X154114761Y-95792665D01*
X154118353Y-95799719D01*
X154122229Y-95806466D01*
X154126389Y-95812908D01*
X154130833Y-95819044D01*
X154135561Y-95824875D01*
X154140572Y-95830400D01*
X154145827Y-95835559D01*
X154151284Y-95840379D01*
X154156942Y-95844862D01*
X154162803Y-95849005D01*
X154168865Y-95852810D01*
X154175130Y-95856277D01*
X154181596Y-95859405D01*
X154188265Y-95862195D01*
X154195141Y-95864611D01*
X154202143Y-95866704D01*
X154209270Y-95868476D01*
X154216522Y-95869925D01*
X154223901Y-95871053D01*
X154231404Y-95871858D01*
X154239034Y-95872341D01*
X154246789Y-95872502D01*
X154254541Y-95872341D01*
X154262162Y-95871858D01*
X154269652Y-95871053D01*
X154277012Y-95869925D01*
X154284240Y-95868476D01*
X154291337Y-95866704D01*
X154298303Y-95864611D01*
X154305138Y-95862195D01*
X154311848Y-95859405D01*
X154318350Y-95856277D01*
X154324644Y-95852810D01*
X154330731Y-95849005D01*
X154336611Y-95844862D01*
X154342283Y-95840379D01*
X154347748Y-95835559D01*
X154353005Y-95830400D01*
X154358017Y-95824875D01*
X154362745Y-95819044D01*
X154367189Y-95812908D01*
X154371349Y-95806466D01*
X154375225Y-95799719D01*
X154378817Y-95792665D01*
X154382125Y-95785306D01*
X154385150Y-95777641D01*
X154387852Y-95769621D01*
X154390194Y-95761285D01*
X154392176Y-95752632D01*
X154393797Y-95743662D01*
X154394777Y-95736727D01*
X154395554Y-95729614D01*
X154396128Y-95722323D01*
X154396500Y-95714853D01*
X154396669Y-95707206D01*
X154396680Y-95704617D01*
X154396680Y-95447811D01*
X154396578Y-95440106D01*
X154396274Y-95432582D01*
X154395768Y-95425239D01*
X154395058Y-95418077D01*
X154394146Y-95411096D01*
X154392615Y-95402071D01*
X154390723Y-95393367D01*
X154388471Y-95384986D01*
X154385859Y-95376926D01*
X154385150Y-95374962D01*
X154382125Y-95367267D01*
X154378817Y-95359905D01*
X154375225Y-95352876D01*
X154371349Y-95346180D01*
X154367189Y-95339818D01*
X154362745Y-95333788D01*
X154358017Y-95328091D01*
X154353005Y-95322727D01*
X154347748Y-95317645D01*
X154342283Y-95312879D01*
X154336611Y-95308429D01*
X154330731Y-95304296D01*
X154324644Y-95300480D01*
X154318350Y-95296981D01*
X154311848Y-95293798D01*
X154305138Y-95290932D01*
X154298303Y-95288353D01*
X154291337Y-95286117D01*
X154284240Y-95284225D01*
X154277012Y-95282678D01*
X154269652Y-95281474D01*
X154262162Y-95280614D01*
X154254541Y-95280098D01*
X154246789Y-95279926D01*
X154239034Y-95280098D01*
X154231404Y-95280614D01*
X154223901Y-95281474D01*
X154216522Y-95282678D01*
X154209270Y-95284225D01*
X154202143Y-95286117D01*
X154195141Y-95288353D01*
X154188265Y-95290932D01*
X154181596Y-95293798D01*
X154175130Y-95296981D01*
X154168865Y-95300480D01*
X154162803Y-95304296D01*
X154156942Y-95308429D01*
X154151284Y-95312879D01*
X154145827Y-95317645D01*
X154140572Y-95322727D01*
X154135561Y-95328091D01*
X154130833Y-95333788D01*
X154126389Y-95339818D01*
X154122229Y-95346180D01*
X154118353Y-95352876D01*
X154114761Y-95359905D01*
X154111452Y-95367267D01*
X154108428Y-95374962D01*
X154105726Y-95382941D01*
X154103384Y-95391242D01*
X154101402Y-95399865D01*
X154099780Y-95408810D01*
X154098801Y-95415730D01*
X154098024Y-95422831D01*
X154097450Y-95430114D01*
X154097078Y-95437577D01*
X154096909Y-95445222D01*
X154096898Y-95447811D01*
X154096898Y-95704617D01*
X154019372Y-95704617D01*
X154019332Y-95700424D01*
X154019332Y-95452004D01*
X154019478Y-95441717D01*
X154019915Y-95431623D01*
X154020645Y-95421723D01*
X154021666Y-95412017D01*
X154022979Y-95402504D01*
X154024583Y-95393184D01*
X154026479Y-95384058D01*
X154028667Y-95375126D01*
X154031147Y-95366386D01*
X154033919Y-95357841D01*
X154035928Y-95352251D01*
X154039160Y-95344020D01*
X154042631Y-95336031D01*
X154046342Y-95328285D01*
X154050292Y-95320781D01*
X154054481Y-95313520D01*
X154058911Y-95306501D01*
X154063579Y-95299725D01*
X154068488Y-95293192D01*
X154073635Y-95286902D01*
X154079023Y-95280853D01*
X154082747Y-95276956D01*
X154088515Y-95271316D01*
X154094486Y-95265924D01*
X154100660Y-95260780D01*
X154107036Y-95255886D01*
X154113615Y-95251240D01*
X154120396Y-95246843D01*
X154127380Y-95242695D01*
X154134567Y-95238796D01*
X154141957Y-95235145D01*
X154149549Y-95231743D01*
X154154723Y-95229613D01*
X154162627Y-95226616D01*
X154170681Y-95223914D01*
X154178886Y-95221506D01*
X154187241Y-95219393D01*
X154195747Y-95217575D01*
X154204403Y-95216052D01*
X154213210Y-95214824D01*
X154222167Y-95213890D01*
X154231275Y-95213251D01*
X154240533Y-95212908D01*
X154246789Y-95212842D01*
X154256147Y-95212989D01*
G37*
G36*
X155003406Y-95224023D02*
G01*
X155082894Y-95224023D01*
X155082894Y-95928406D01*
X155008473Y-95928406D01*
X155008473Y-95404136D01*
X154894744Y-95739207D01*
X154816130Y-95739207D01*
X154702576Y-95404136D01*
X154702576Y-95928406D01*
X154627980Y-95928406D01*
X154627980Y-95224023D01*
X154707468Y-95224023D01*
X154855437Y-95652732D01*
X155003406Y-95224023D01*
G37*
X130864327Y-115242130D02*
X130864327Y-115753033D01*
X130864327Y-115753033D02*
X130830266Y-115855213D01*
X130830266Y-115855213D02*
X130762146Y-115923334D01*
X130762146Y-115923334D02*
X130659965Y-115957394D01*
X130659965Y-115957394D02*
X130591845Y-115957394D01*
X131136808Y-115242130D02*
X131579591Y-115242130D01*
X131579591Y-115242130D02*
X131341169Y-115514611D01*
X131341169Y-115514611D02*
X131443350Y-115514611D01*
X131443350Y-115514611D02*
X131511470Y-115548671D01*
X131511470Y-115548671D02*
X131545530Y-115582732D01*
X131545530Y-115582732D02*
X131579591Y-115650852D01*
X131579591Y-115650852D02*
X131579591Y-115821153D01*
X131579591Y-115821153D02*
X131545530Y-115889273D01*
X131545530Y-115889273D02*
X131511470Y-115923334D01*
X131511470Y-115923334D02*
X131443350Y-115957394D01*
X131443350Y-115957394D02*
X131238989Y-115957394D01*
X131238989Y-115957394D02*
X131170868Y-115923334D01*
X131170868Y-115923334D02*
X131136808Y-115889273D01*
D11*
%TO.C,J3*%
X128980000Y-114550000D02*
X128780000Y-114350000D01*
X130780000Y-110750000D02*
X130780000Y-112350000D01*
X130580000Y-112550000D02*
X130780000Y-112350000D01*
X130580000Y-114550000D02*
X130780000Y-114350000D01*
X128980000Y-110550000D02*
X130580000Y-110550000D01*
X130780000Y-112750000D02*
X130580000Y-112550000D01*
X128980000Y-112550000D02*
X128780000Y-112750000D01*
X130780000Y-112750000D02*
X130780000Y-114350000D01*
X128780000Y-112350000D02*
X128980000Y-112550000D01*
X130580000Y-114550000D02*
X128980000Y-114550000D01*
X128780000Y-112350000D02*
X128780000Y-110750000D01*
X130780000Y-110750000D02*
X130580000Y-110550000D01*
X128980000Y-110550000D02*
X128780000Y-110750000D01*
X128780000Y-112750000D02*
X128780000Y-114350000D01*
%TO.C,C33*%
X138557400Y-112353600D02*
X136857400Y-112353600D01*
X138557400Y-111553600D02*
X138557400Y-112353600D01*
X138557400Y-111553600D02*
X136857400Y-111553600D01*
X136857400Y-111553600D02*
X136857400Y-112353600D01*
%TO.C,R11*%
X172856300Y-110800000D02*
X174556300Y-110800000D01*
X172856300Y-111600000D02*
X172856300Y-110800000D01*
X172856300Y-111600000D02*
X174556300Y-111600000D01*
X174556300Y-111600000D02*
X174556300Y-110800000D01*
%TO.C,LED2*%
X168607400Y-98503600D02*
X168607400Y-95903600D01*
X169607400Y-98503600D02*
X168607400Y-98503600D01*
X169607400Y-98503600D02*
X169607400Y-95903600D01*
D12*
X168707400Y-97003600D02*
X169507400Y-97003600D01*
D11*
X169607400Y-95903600D02*
X168607400Y-95903600D01*
G36*
X169630042Y-97454400D02*
G01*
X168584758Y-97454400D01*
X169107400Y-96931758D01*
X169630042Y-97454400D01*
G37*
%TO.C,C36*%
X146107400Y-104603600D02*
X147807400Y-104603600D01*
X146107400Y-105403600D02*
X146107400Y-104603600D01*
X146107400Y-105403600D02*
X147807400Y-105403600D01*
X147807400Y-105403600D02*
X147807400Y-104603600D01*
%TO.C,C9*%
X141607400Y-111553600D02*
X143307400Y-111553600D01*
X141607400Y-112353600D02*
X141607400Y-111553600D01*
X141607400Y-112353600D02*
X143307400Y-112353600D01*
X143307400Y-112353600D02*
X143307400Y-111553600D01*
%TO.C,C17*%
X143157400Y-98653600D02*
X144857400Y-98653600D01*
X143157400Y-99453600D02*
X143157400Y-98653600D01*
X143157400Y-99453600D02*
X144857400Y-99453600D01*
X144857400Y-99453600D02*
X144857400Y-98653600D01*
%TO.C,L3*%
X135607400Y-108603600D02*
X135607400Y-109603600D01*
X135637400Y-108595600D02*
X138207400Y-108603600D01*
X138207400Y-108603600D02*
X138207400Y-109603600D01*
X138207400Y-109603600D02*
X135637400Y-109611600D01*
%TO.C,C32*%
X137357400Y-106303600D02*
X135657400Y-106303600D01*
X137357400Y-105503600D02*
X137357400Y-106303600D01*
X137357400Y-105503600D02*
X135657400Y-105503600D01*
X135657400Y-105503600D02*
X135657400Y-106303600D01*
%TO.C,R12*%
X172856300Y-98500000D02*
X174556300Y-98500000D01*
X172856300Y-99300000D02*
X172856300Y-98500000D01*
X172856300Y-99300000D02*
X174556300Y-99300000D01*
X174556300Y-99300000D02*
X174556300Y-98500000D01*
%TO.C,U4*%
X161757400Y-96103600D02*
X161757400Y-96303600D01*
X157357400Y-96103600D02*
X161757400Y-96103600D01*
X157357400Y-96103600D02*
X157357400Y-96303600D01*
X161757400Y-99103600D02*
X161757400Y-98903600D01*
X161757400Y-99103600D02*
X157357400Y-99103600D01*
X157357400Y-99103600D02*
X157357400Y-98903600D01*
X158081000Y-96603600D02*
G75*
G03*
X158081000Y-96603600I-223600J0D01*
G01*
%TO.C,RF_DIVIDER1*%
X129755000Y-106020000D02*
X131045000Y-106020000D01*
X129755000Y-106020000D02*
X129755000Y-105950000D01*
X131045000Y-106020000D02*
X131045000Y-105950000D01*
X129755000Y-105360000D02*
X129755000Y-105290000D01*
X131045000Y-105290000D02*
X131045000Y-105360000D01*
X129755000Y-104710000D02*
X129755000Y-104640000D01*
X131045000Y-104640000D02*
X131045000Y-104710000D01*
X129755000Y-103980000D02*
X129755000Y-104050000D01*
X131045000Y-103980000D02*
X131045000Y-104050000D01*
X131045000Y-103980000D02*
X129755000Y-103980000D01*
X130500000Y-104300000D02*
G75*
G03*
X130500000Y-104300000I-100000J0D01*
G01*
%TO.C,RF-SHEILD-CASE1*%
X133356300Y-102855000D02*
X133356300Y-101155000D01*
X133356300Y-108755000D02*
X133356300Y-107055000D01*
X137806300Y-96705000D02*
X139506300Y-96705000D01*
X137806300Y-113205000D02*
X139506300Y-113205000D01*
X143706300Y-96705000D02*
X145406300Y-96705000D01*
X143706300Y-113205000D02*
X145406300Y-113205000D01*
X149856300Y-102855000D02*
X149856300Y-101155000D01*
X149856300Y-108755000D02*
X149856300Y-107055000D01*
%TO.C,R1*%
X145457400Y-103103600D02*
X143757400Y-103103600D01*
X145457400Y-102303600D02*
X145457400Y-103103600D01*
X145457400Y-102303600D02*
X143757400Y-102303600D01*
X143757400Y-102303600D02*
X143757400Y-103103600D01*
%TO.C,C10*%
X148507400Y-111153600D02*
X146807400Y-111153600D01*
X148507400Y-110353600D02*
X148507400Y-111153600D01*
X148507400Y-110353600D02*
X146807400Y-110353600D01*
X146807400Y-110353600D02*
X146807400Y-111153600D01*
%TO.C,C6*%
X146607400Y-102303600D02*
X146607400Y-104003600D01*
X145807400Y-102303600D02*
X146607400Y-102303600D01*
X145807400Y-102303600D02*
X145807400Y-104003600D01*
X145807400Y-104003600D02*
X146607400Y-104003600D01*
%TO.C,L1*%
X134007400Y-101803600D02*
X134007400Y-102803600D01*
X134037400Y-101795600D02*
X136607400Y-101803600D01*
X136607400Y-101803600D02*
X136607400Y-102803600D01*
X136607400Y-102803600D02*
X134037400Y-102811600D01*
%TO.C,R4*%
X138557400Y-107553600D02*
X136857400Y-107553600D01*
X138557400Y-106753600D02*
X138557400Y-107553600D01*
X138557400Y-106753600D02*
X136857400Y-106753600D01*
X136857400Y-106753600D02*
X136857400Y-107553600D01*
%TO.C,C27*%
X156607400Y-110653600D02*
X158307400Y-110653600D01*
X156607400Y-111453600D02*
X156607400Y-110653600D01*
X156607400Y-111453600D02*
X158307400Y-111453600D01*
X158307400Y-111453600D02*
X158307400Y-110653600D01*
%TO.C,C29*%
X154657400Y-103403600D02*
X154657400Y-101703600D01*
X155457400Y-103403600D02*
X154657400Y-103403600D01*
X155457400Y-103403600D02*
X155457400Y-101703600D01*
X155457400Y-101703600D02*
X154657400Y-101703600D01*
%TO.C,C2*%
X135007400Y-99753600D02*
X135007400Y-101453600D01*
X134207400Y-99753600D02*
X135007400Y-99753600D01*
X134207400Y-99753600D02*
X134207400Y-101453600D01*
X134207400Y-101453600D02*
X135007400Y-101453600D01*
%TO.C,LED3*%
X166257400Y-98503600D02*
X166257400Y-95903600D01*
X167257400Y-98503600D02*
X166257400Y-98503600D01*
X167257400Y-98503600D02*
X167257400Y-95903600D01*
D12*
X166357400Y-97003600D02*
X167157400Y-97003600D01*
D11*
X167257400Y-95903600D02*
X166257400Y-95903600D01*
G36*
X167280042Y-97454400D02*
G01*
X166234758Y-97454400D01*
X166757400Y-96931758D01*
X167280042Y-97454400D01*
G37*
%TO.C,LED1*%
X169607400Y-99403600D02*
X169607400Y-102003600D01*
X168607400Y-99403600D02*
X169607400Y-99403600D01*
X168607400Y-99403600D02*
X168607400Y-102003600D01*
D12*
X169507400Y-100903600D02*
X168707400Y-100903600D01*
D11*
X168607400Y-102003600D02*
X169607400Y-102003600D01*
G36*
X169107400Y-100975442D02*
G01*
X168584758Y-100452800D01*
X169630042Y-100452800D01*
X169107400Y-100975442D01*
G37*
%TO.C,C24*%
X162507400Y-112703600D02*
X157907400Y-112703600D01*
X162507400Y-112703600D02*
X162507400Y-114503600D01*
X157907400Y-112703600D02*
X157907400Y-114503600D01*
X162507400Y-114503600D02*
X157907400Y-114503600D01*
%TO.C,C37*%
X161807400Y-111453600D02*
X160107400Y-111453600D01*
X161807400Y-110653600D02*
X161807400Y-111453600D01*
X161807400Y-110653600D02*
X160107400Y-110653600D01*
X160107400Y-110653600D02*
X160107400Y-111453600D01*
%TO.C,C35*%
X145707400Y-112353600D02*
X144007400Y-112353600D01*
X145707400Y-111553600D02*
X145707400Y-112353600D01*
X145707400Y-111553600D02*
X144007400Y-111553600D01*
X144007400Y-111553600D02*
X144007400Y-112353600D01*
%TO.C,C18*%
X146057400Y-111553600D02*
X147757400Y-111553600D01*
X146057400Y-112353600D02*
X146057400Y-111553600D01*
X146057400Y-112353600D02*
X147757400Y-112353600D01*
X147757400Y-112353600D02*
X147757400Y-111553600D01*
%TO.C,C11*%
X146807400Y-108053600D02*
X148507400Y-108053600D01*
X146807400Y-108853600D02*
X146807400Y-108053600D01*
X146807400Y-108853600D02*
X148507400Y-108853600D01*
X148507400Y-108853600D02*
X148507400Y-108053600D01*
%TO.C,C3*%
X132500000Y-106550000D02*
X132500000Y-108250000D01*
X131700000Y-106550000D02*
X132500000Y-106550000D01*
X131700000Y-106550000D02*
X131700000Y-108250000D01*
X131700000Y-108250000D02*
X132500000Y-108250000D01*
%TO.C,C22*%
X167907400Y-110003600D02*
X167907400Y-114603600D01*
X167907400Y-110003600D02*
X169707400Y-110003600D01*
X167907400Y-114603600D02*
X169707400Y-114603600D01*
X169707400Y-110003600D02*
X169707400Y-114603600D01*
%TO.C,C38*%
X146107400Y-105753600D02*
X147807400Y-105753600D01*
X146107400Y-106553600D02*
X146107400Y-105753600D01*
X146107400Y-106553600D02*
X147807400Y-106553600D01*
X147807400Y-106553600D02*
X147807400Y-105753600D01*
%TO.C,C1*%
X131700000Y-103400000D02*
X131700000Y-101700000D01*
X132500000Y-103400000D02*
X131700000Y-103400000D01*
X132500000Y-103400000D02*
X132500000Y-101700000D01*
X132500000Y-101700000D02*
X131700000Y-101700000D01*
%TO.C,R8*%
X153907400Y-111453600D02*
X152207400Y-111453600D01*
X153907400Y-110653600D02*
X153907400Y-111453600D01*
X153907400Y-110653600D02*
X152207400Y-110653600D01*
X152207400Y-110653600D02*
X152207400Y-111453600D01*
%TO.C,C12*%
X148507400Y-107703600D02*
X146807400Y-107703600D01*
X148507400Y-106903600D02*
X148507400Y-107703600D01*
X148507400Y-106903600D02*
X146807400Y-106903600D01*
X146807400Y-106903600D02*
X146807400Y-107703600D01*
%TO.C,U2*%
X140207400Y-110953600D02*
X140907400Y-110953600D01*
X144507400Y-110953600D02*
X145207400Y-110953600D01*
X140207400Y-110253600D02*
X140207400Y-110953600D01*
X145207400Y-110253600D02*
X145207400Y-110953600D01*
X140207400Y-106653600D02*
X140207400Y-105953600D01*
X145207400Y-106653600D02*
X145207400Y-105953600D01*
X140907400Y-105953600D02*
X140207400Y-105953600D01*
X144507400Y-105953600D02*
X145207400Y-105953600D01*
X145007400Y-110553600D02*
G75*
G03*
X145007400Y-110553600I-200000J0D01*
G01*
%TO.C,C8*%
X145457400Y-100803600D02*
X143757400Y-100803600D01*
X145457400Y-100003600D02*
X145457400Y-100803600D01*
X145457400Y-100003600D02*
X143757400Y-100003600D01*
X143757400Y-100003600D02*
X143757400Y-100803600D01*
%TO.C,J1*%
X153557400Y-96103600D02*
X155157400Y-96103600D01*
X153557400Y-96103600D02*
X153357400Y-96303600D01*
X151557400Y-96103600D02*
X153157400Y-96103600D01*
X151557400Y-96103600D02*
X151357400Y-96303600D01*
X155357400Y-96303600D02*
X155157400Y-96103600D01*
X155357400Y-96303600D02*
X155357400Y-97903600D01*
X153357400Y-96303600D02*
X153157400Y-96103600D01*
X155357400Y-97903600D02*
X155157400Y-98103600D01*
X153357400Y-97903600D02*
X153557400Y-98103600D01*
X151357400Y-97903600D02*
X151357400Y-96303600D01*
X151357400Y-97903600D02*
X151557400Y-98103600D01*
X153557400Y-98103600D02*
X155157400Y-98103600D01*
X153157400Y-98103600D02*
X153357400Y-97903600D01*
X153157400Y-98103600D02*
X151557400Y-98103600D01*
%TO.C,C30*%
X137307400Y-98253600D02*
X135607400Y-98253600D01*
X137307400Y-97453600D02*
X137307400Y-98253600D01*
X137307400Y-97453600D02*
X135607400Y-97453600D01*
X135607400Y-97453600D02*
X135607400Y-98253600D01*
%TO.C,C31*%
X137357400Y-105153600D02*
X135657400Y-105153600D01*
X137357400Y-104353600D02*
X137357400Y-105153600D01*
X137357400Y-104353600D02*
X135657400Y-104353600D01*
X135657400Y-104353600D02*
X135657400Y-105153600D01*
%TO.C,C16*%
X143757400Y-103453600D02*
X145457400Y-103453600D01*
X143757400Y-104253600D02*
X143757400Y-103453600D01*
X143757400Y-104253600D02*
X145457400Y-104253600D01*
X145457400Y-104253600D02*
X145457400Y-103453600D01*
%TO.C,TCXO1*%
X147706300Y-100850000D02*
X147306300Y-100850000D01*
X146256300Y-99700000D02*
X146256300Y-98800000D01*
X148756300Y-99700000D02*
X148756300Y-98800000D01*
X147706300Y-97650000D02*
X147306300Y-97650000D01*
X148586300Y-99670000D02*
G75*
G03*
X148586300Y-99670000I-200000J0D01*
G01*
%TO.C,U3*%
X156207400Y-108953600D02*
X156707400Y-108953600D01*
X163707400Y-108953600D02*
X164207400Y-108953600D01*
X156207400Y-108453600D02*
X156207400Y-108953600D01*
X164207400Y-108453600D02*
X164207400Y-108953600D01*
X156207400Y-101453600D02*
X156207400Y-100953600D01*
X164207400Y-101453600D02*
X164207400Y-100953600D01*
X156707400Y-100953600D02*
X156207400Y-100953600D01*
X163707400Y-100953600D02*
X164207400Y-100953600D01*
X163507400Y-108053600D02*
G75*
G03*
X163507400Y-108053600I-200000J0D01*
G01*
D12*
%TO.C,AR1*%
X167757400Y-100103600D02*
X167757400Y-99903600D01*
X165757400Y-100103600D02*
X165757400Y-99903600D01*
D11*
%TO.C,C20*%
X168407400Y-104503600D02*
X166707400Y-104503600D01*
X168407400Y-103703600D02*
X168407400Y-104503600D01*
X168407400Y-103703600D02*
X166707400Y-103703600D01*
X166707400Y-103703600D02*
X166707400Y-104503600D01*
%TO.C,U5*%
X164557400Y-114553600D02*
X164557400Y-111453600D01*
X165957400Y-114553600D02*
X164557400Y-114553600D01*
X164557400Y-111453600D02*
X165957400Y-111453600D01*
X165957400Y-111453600D02*
X165957400Y-114553600D01*
%TO.C,R5*%
X163907400Y-96953600D02*
X165607400Y-96953600D01*
X163907400Y-97753600D02*
X163907400Y-96953600D01*
X163907400Y-97753600D02*
X165607400Y-97753600D01*
X165607400Y-97753600D02*
X165607400Y-96953600D01*
%TO.C,R3*%
X148507400Y-110003600D02*
X146807400Y-110003600D01*
X148507400Y-109203600D02*
X148507400Y-110003600D01*
X148507400Y-109203600D02*
X146807400Y-109203600D01*
X146807400Y-109203600D02*
X146807400Y-110003600D01*
%TO.C,C34*%
X138857400Y-111553600D02*
X140557400Y-111553600D01*
X138857400Y-112353600D02*
X138857400Y-111553600D01*
X138857400Y-112353600D02*
X140557400Y-112353600D01*
X140557400Y-112353600D02*
X140557400Y-111553600D01*
%TO.C,C28*%
X163907400Y-95803600D02*
X165607400Y-95803600D01*
X163907400Y-96603600D02*
X163907400Y-95803600D01*
X163907400Y-96603600D02*
X165607400Y-96603600D01*
X165607400Y-96603600D02*
X165607400Y-95803600D01*
%TO.C,C4*%
X135057400Y-108203600D02*
X135057400Y-109903600D01*
X134257400Y-108203600D02*
X135057400Y-108203600D01*
X134257400Y-108203600D02*
X134257400Y-109903600D01*
X134257400Y-109903600D02*
X135057400Y-109903600D01*
%TO.C,C41*%
X156257400Y-111453600D02*
X154557400Y-111453600D01*
X156257400Y-110653600D02*
X156257400Y-111453600D01*
X156257400Y-110653600D02*
X154557400Y-110653600D01*
X154557400Y-110653600D02*
X154557400Y-111453600D01*
%TO.C,C39*%
X143157400Y-97503600D02*
X144857400Y-97503600D01*
X143157400Y-98303600D02*
X143157400Y-97503600D01*
X143157400Y-98303600D02*
X144857400Y-98303600D01*
X144857400Y-98303600D02*
X144857400Y-97503600D01*
%TO.C,U1*%
X137207400Y-104053600D02*
X137907400Y-104053600D01*
X141507400Y-104053600D02*
X142207400Y-104053600D01*
X137207400Y-103353600D02*
X137207400Y-104053600D01*
X142207400Y-103353600D02*
X142207400Y-104053600D01*
X137207400Y-99753600D02*
X137207400Y-99053600D01*
X142207400Y-99753600D02*
X142207400Y-99053600D01*
X137907400Y-99053600D02*
X137207400Y-99053600D01*
X141507400Y-99053600D02*
X142207400Y-99053600D01*
X142007400Y-103653600D02*
G75*
G03*
X142007400Y-103653600I-200000J0D01*
G01*
%TO.C,R10*%
X154657400Y-105403600D02*
X154657400Y-103703600D01*
X155457400Y-105403600D02*
X154657400Y-105403600D01*
X155457400Y-105403600D02*
X155457400Y-103703600D01*
X155457400Y-103703600D02*
X154657400Y-103703600D01*
D13*
%TO.C,F1*%
X129880000Y-110050000D02*
X129880000Y-110050000D01*
X129680000Y-110050000D02*
X129680000Y-110050000D01*
X130968000Y-112550000D02*
X128592000Y-112550000D01*
X129680000Y-110050000D02*
G75*
G03*
X129880000Y-110050000I100000J0D01*
G01*
X129880000Y-110050000D02*
G75*
G03*
X129680000Y-110050000I-100000J0D01*
G01*
D11*
%TO.C,BIAS_T1*%
X129455000Y-108308000D02*
X129455000Y-104498000D01*
X129455000Y-108308000D02*
X129328000Y-108308000D01*
X129455000Y-104498000D02*
X129328000Y-104498000D01*
X128312000Y-108308000D02*
X126788000Y-108308000D01*
X128312000Y-104498000D02*
X126788000Y-104498000D01*
X125645000Y-108308000D02*
X125772000Y-108308000D01*
X125645000Y-104498000D02*
X125772000Y-104498000D01*
X125645000Y-104498000D02*
X125645000Y-108308000D01*
X129023200Y-106657000D02*
G75*
G03*
X129023200Y-106657000I-203200J0D01*
G01*
%TO.C,R9*%
X154507400Y-113153600D02*
X156207400Y-113153600D01*
X154507400Y-113953600D02*
X154507400Y-113153600D01*
X154507400Y-113953600D02*
X156207400Y-113953600D01*
X156207400Y-113953600D02*
X156207400Y-113153600D01*
%TO.C,C40*%
X162157400Y-110653600D02*
X163857400Y-110653600D01*
X162157400Y-111453600D02*
X162157400Y-110653600D01*
X162157400Y-111453600D02*
X163857400Y-111453600D01*
X163857400Y-111453600D02*
X163857400Y-110653600D01*
%TO.C,C23*%
X171707400Y-106103600D02*
X171707400Y-107803600D01*
X170907400Y-106103600D02*
X171707400Y-106103600D01*
X170907400Y-106103600D02*
X170907400Y-107803600D01*
X170907400Y-107803600D02*
X171707400Y-107803600D01*
%TO.C,R7*%
X163907400Y-98103600D02*
X165607400Y-98103600D01*
X163907400Y-98903600D02*
X163907400Y-98103600D01*
X163907400Y-98903600D02*
X165607400Y-98903600D01*
X165607400Y-98903600D02*
X165607400Y-98103600D01*
%TO.C,C5*%
X138607400Y-104653600D02*
X140307400Y-104653600D01*
X138607400Y-105453600D02*
X138607400Y-104653600D01*
X138607400Y-105453600D02*
X140307400Y-105453600D01*
X140307400Y-105453600D02*
X140307400Y-104653600D01*
%TO.C,C19*%
X166757400Y-108803600D02*
X168457400Y-108803600D01*
X166757400Y-109603600D02*
X166757400Y-108803600D01*
X166757400Y-109603600D02*
X168457400Y-109603600D01*
X168457400Y-109603600D02*
X168457400Y-108803600D01*
%TO.C,R6*%
X164957400Y-108753600D02*
X164957400Y-107053600D01*
X165757400Y-108753600D02*
X164957400Y-108753600D01*
X165757400Y-108753600D02*
X165757400Y-107053600D01*
X165757400Y-107053600D02*
X164957400Y-107053600D01*
%TO.C,C26*%
X162157400Y-99403600D02*
X163857400Y-99403600D01*
X162157400Y-100203600D02*
X162157400Y-99403600D01*
X162157400Y-100203600D02*
X163857400Y-100203600D01*
X163857400Y-100203600D02*
X163857400Y-99403600D01*
%TO.C,XTAL1*%
X167706300Y-108350000D02*
X167406300Y-108350000D01*
X166206300Y-106950000D02*
X166206300Y-106350000D01*
X168906300Y-106950000D02*
X168906300Y-106350000D01*
X167706300Y-104950000D02*
X167406300Y-104950000D01*
X169476300Y-108570000D02*
G75*
G03*
X169476300Y-108570000I-200000J0D01*
G01*
%TO.C,C42*%
X136657400Y-99403600D02*
X134957400Y-99403600D01*
X136657400Y-98603600D02*
X136657400Y-99403600D01*
X136657400Y-98603600D02*
X134957400Y-98603600D01*
X134957400Y-98603600D02*
X134957400Y-99403600D01*
D12*
%TO.C,J2*%
X176096300Y-109490000D02*
X177536300Y-109490000D01*
X181506300Y-109490000D02*
X180276300Y-109490000D01*
X176096300Y-100550000D02*
X177536300Y-100550000D01*
X180276300Y-100550000D02*
X181506300Y-100550000D01*
X181506300Y-100550000D02*
X181506300Y-109490000D01*
D13*
X172606300Y-108420000D02*
G75*
G03*
X172606300Y-108420000I-100000J0D01*
G01*
D14*
%TO.C,R13*%
X131595400Y-105131780D02*
X131595400Y-104850620D01*
X132615400Y-105131780D02*
X132615400Y-104850620D01*
D11*
%TO.C,C13*%
X147007400Y-101153600D02*
X148707400Y-101153600D01*
X147007400Y-101953600D02*
X147007400Y-101153600D01*
X147007400Y-101953600D02*
X148707400Y-101953600D01*
X148707400Y-101953600D02*
X148707400Y-101153600D01*
%TO.C,C7*%
X143757400Y-101153600D02*
X145457400Y-101153600D01*
X143757400Y-101953600D02*
X143757400Y-101153600D01*
X143757400Y-101953600D02*
X145457400Y-101953600D01*
X145457400Y-101953600D02*
X145457400Y-101153600D01*
%TO.C,C25*%
X157757400Y-100203600D02*
X156057400Y-100203600D01*
X157757400Y-99403600D02*
X157757400Y-100203600D01*
X157757400Y-99403600D02*
X156057400Y-99403600D01*
X156057400Y-99403600D02*
X156057400Y-100203600D01*
%TO.C,C21*%
X153857400Y-113953600D02*
X152157400Y-113953600D01*
X153857400Y-113153600D02*
X153857400Y-113953600D01*
X153857400Y-113153600D02*
X152157400Y-113153600D01*
X152157400Y-113153600D02*
X152157400Y-113953600D01*
%TO.C,C14*%
X127551100Y-109053600D02*
X129251100Y-109053600D01*
X127551100Y-109853600D02*
X127551100Y-109053600D01*
X127551100Y-109853600D02*
X129251100Y-109853600D01*
X129251100Y-109853600D02*
X129251100Y-109053600D01*
%TO.C,R2*%
X135557400Y-101453600D02*
X135557400Y-99753600D01*
X136357400Y-101453600D02*
X135557400Y-101453600D01*
X136357400Y-101453600D02*
X136357400Y-99753600D01*
X136357400Y-99753600D02*
X135557400Y-99753600D01*
%TD*%
%LPC*%
D15*
%TO.C,J3*%
X129780000Y-111550000D03*
X129780000Y-113550000D03*
%TD*%
D16*
%TO.C,C33*%
X138207400Y-111953600D03*
X137207400Y-111953600D03*
%TD*%
D17*
%TO.C,R11*%
X173206300Y-111200000D03*
X174206300Y-111200000D03*
%TD*%
D18*
%TO.C,LED2*%
X169107400Y-98003600D03*
X169107400Y-96403600D03*
%TD*%
D17*
%TO.C,C36*%
X146457400Y-105003600D03*
X147457400Y-105003600D03*
%TD*%
%TO.C,C9*%
X141957400Y-111953600D03*
X142957400Y-111953600D03*
%TD*%
%TO.C,C17*%
X143507400Y-99053600D03*
X144507400Y-99053600D03*
%TD*%
D19*
%TO.C,L3*%
X136107400Y-109103600D03*
X137707400Y-109103600D03*
%TD*%
D16*
%TO.C,C32*%
X137007400Y-105903600D03*
X136007400Y-105903600D03*
%TD*%
D17*
%TO.C,R12*%
X173206300Y-98900000D03*
X174206300Y-98900000D03*
%TD*%
D20*
%TO.C,U4*%
X156607400Y-96628600D03*
X156607400Y-97278600D03*
X156607400Y-97928600D03*
X156607400Y-98578600D03*
X162507400Y-98578600D03*
X162507400Y-97928600D03*
X162507400Y-97278600D03*
X162507400Y-96628600D03*
%TD*%
D21*
%TO.C,RF_DIVIDER1*%
X129900000Y-104340000D03*
X129900000Y-105000000D03*
X129900000Y-105660000D03*
X130900000Y-105660000D03*
X130900000Y-105000000D03*
X130900000Y-104340000D03*
%TD*%
D22*
%TO.C,RF-SHEILD-CASE1*%
X135231300Y-113105000D03*
D23*
X141606300Y-113105000D03*
D22*
X147981300Y-113105000D03*
D24*
X149756300Y-111330000D03*
D25*
X149756300Y-104955000D03*
D24*
X149756300Y-98580000D03*
D22*
X147981300Y-96805000D03*
D23*
X141606300Y-96805000D03*
D22*
X135231300Y-96805000D03*
D24*
X133456300Y-98580000D03*
D25*
X133456300Y-104955000D03*
D24*
X133456300Y-111330000D03*
%TD*%
D26*
%TO.C,U$54*%
X125001100Y-113500000D03*
%TD*%
D16*
%TO.C,R1*%
X145107400Y-102703600D03*
X144107400Y-102703600D03*
%TD*%
%TO.C,C10*%
X148157400Y-110753600D03*
X147157400Y-110753600D03*
%TD*%
D27*
%TO.C,C6*%
X146207400Y-102653600D03*
X146207400Y-103653600D03*
%TD*%
D19*
%TO.C,L1*%
X134507400Y-102303600D03*
X136107400Y-102303600D03*
%TD*%
D16*
%TO.C,R4*%
X138207400Y-107153600D03*
X137207400Y-107153600D03*
%TD*%
D17*
%TO.C,C27*%
X156957400Y-111053600D03*
X157957400Y-111053600D03*
%TD*%
D28*
%TO.C,C29*%
X155057400Y-103053600D03*
X155057400Y-102053600D03*
%TD*%
D27*
%TO.C,C2*%
X134607400Y-100103600D03*
X134607400Y-101103600D03*
%TD*%
D18*
%TO.C,LED3*%
X166757400Y-98003600D03*
X166757400Y-96403600D03*
%TD*%
D29*
%TO.C,LED1*%
X169107400Y-99903600D03*
X169107400Y-101503600D03*
%TD*%
D30*
%TO.C,C24*%
X161807400Y-113603600D03*
X158607400Y-113603600D03*
%TD*%
D16*
%TO.C,C37*%
X161457400Y-111053600D03*
X160457400Y-111053600D03*
%TD*%
%TO.C,C35*%
X145357400Y-111953600D03*
X144357400Y-111953600D03*
%TD*%
D17*
%TO.C,C18*%
X146407400Y-111953600D03*
X147407400Y-111953600D03*
%TD*%
%TO.C,C11*%
X147157400Y-108453600D03*
X148157400Y-108453600D03*
%TD*%
D27*
%TO.C,C3*%
X132100000Y-106900000D03*
X132100000Y-107900000D03*
%TD*%
D31*
%TO.C,C22*%
X168807400Y-110703600D03*
X168807400Y-113903600D03*
%TD*%
D17*
%TO.C,C38*%
X146457400Y-106153600D03*
X147457400Y-106153600D03*
%TD*%
D28*
%TO.C,C1*%
X132100000Y-103050000D03*
X132100000Y-102050000D03*
%TD*%
D16*
%TO.C,R8*%
X153557400Y-111053600D03*
X152557400Y-111053600D03*
%TD*%
%TO.C,C12*%
X148157400Y-107303600D03*
X147157400Y-107303600D03*
%TD*%
D26*
%TO.C,U$58*%
X177706300Y-113500000D03*
%TD*%
D32*
%TO.C,U2*%
X145047400Y-109953600D03*
X145047400Y-109453600D03*
X145047400Y-108953600D03*
X145047400Y-108453600D03*
X145047400Y-107953600D03*
X145047400Y-107453600D03*
X145047400Y-106953600D03*
D33*
X144207400Y-106113600D03*
X143707400Y-106113600D03*
X143207400Y-106113600D03*
X142707400Y-106113600D03*
X142207400Y-106113600D03*
X141707400Y-106113600D03*
X141207400Y-106113600D03*
D32*
X140367400Y-106953600D03*
X140367400Y-107453600D03*
X140367400Y-107953600D03*
X140367400Y-108453600D03*
X140367400Y-108953600D03*
X140367400Y-109453600D03*
X140367400Y-109953600D03*
D33*
X141207400Y-110793600D03*
X141707400Y-110793600D03*
X142207400Y-110793600D03*
X142707400Y-110793600D03*
X143207400Y-110793600D03*
X143707400Y-110793600D03*
X144207400Y-110793600D03*
D34*
X142707400Y-108453600D03*
%TD*%
D16*
%TO.C,C8*%
X145107400Y-100403600D03*
X144107400Y-100403600D03*
%TD*%
D15*
%TO.C,J1*%
X152357400Y-97103600D03*
X154357400Y-97103600D03*
%TD*%
D16*
%TO.C,C30*%
X136957400Y-97853600D03*
X135957400Y-97853600D03*
%TD*%
%TO.C,C31*%
X137007400Y-104753600D03*
X136007400Y-104753600D03*
%TD*%
D17*
%TO.C,C16*%
X144107400Y-103853600D03*
X145107400Y-103853600D03*
%TD*%
D35*
%TO.C,TCXO1*%
X148406300Y-100450000D03*
X148406300Y-98050000D03*
X146606300Y-98050000D03*
X146606300Y-100450000D03*
%TD*%
D36*
%TO.C,U3*%
X160207400Y-104953600D03*
D37*
X164207400Y-108203600D03*
X164207400Y-107703600D03*
X164207400Y-107203600D03*
X164207400Y-106703600D03*
X164207400Y-106203600D03*
X164207400Y-105703600D03*
X164207400Y-105203600D03*
X164207400Y-104703600D03*
X164207400Y-104203600D03*
X164207400Y-103703600D03*
X164207400Y-103203600D03*
X164207400Y-102703600D03*
X164207400Y-102203600D03*
X164207400Y-101703600D03*
D38*
X163457400Y-100953600D03*
X162957400Y-100953600D03*
X162457400Y-100953600D03*
X161957400Y-100953600D03*
X161457400Y-100953600D03*
X160957400Y-100953600D03*
X160457400Y-100953600D03*
X159957400Y-100953600D03*
X159457400Y-100953600D03*
X158957400Y-100953600D03*
X158457400Y-100953600D03*
X157957400Y-100953600D03*
X157457400Y-100953600D03*
X156957400Y-100953600D03*
D39*
X156207400Y-101703600D03*
X156207400Y-102203600D03*
X156207400Y-102703600D03*
X156207400Y-103203600D03*
X156207400Y-103703600D03*
X156207400Y-104203600D03*
X156207400Y-104703600D03*
X156207400Y-105203600D03*
X156207400Y-105703600D03*
X156207400Y-106203600D03*
X156207400Y-106703600D03*
X156207400Y-107203600D03*
X156207400Y-107703600D03*
X156207400Y-108203600D03*
D40*
X156957400Y-108953600D03*
X157457400Y-108953600D03*
X157957400Y-108953600D03*
X158457400Y-108953600D03*
X158957400Y-108953600D03*
X159457400Y-108953600D03*
X159957400Y-108953600D03*
X160457400Y-108953600D03*
X160957400Y-108953600D03*
X161457400Y-108953600D03*
X161957400Y-108953600D03*
X162457400Y-108953600D03*
X162957400Y-108953600D03*
X163457400Y-108953600D03*
%TD*%
D41*
%TO.C,AR1*%
X167557400Y-99503600D03*
X167557400Y-100503600D03*
D42*
X167007400Y-99503600D03*
X167007400Y-100503600D03*
X166507400Y-99503600D03*
X166507400Y-100503600D03*
D41*
X165957400Y-99503600D03*
X165957400Y-100503600D03*
%TD*%
D16*
%TO.C,C20*%
X168057400Y-104103600D03*
X167057400Y-104103600D03*
%TD*%
D43*
%TO.C,U5*%
X166757400Y-113953600D03*
X166757400Y-113003600D03*
X166757400Y-112053600D03*
X163757400Y-112053600D03*
X163757400Y-113953600D03*
%TD*%
D17*
%TO.C,R5*%
X164257400Y-97353600D03*
X165257400Y-97353600D03*
%TD*%
D16*
%TO.C,R3*%
X148157400Y-109603600D03*
X147157400Y-109603600D03*
%TD*%
D17*
%TO.C,C34*%
X139207400Y-111953600D03*
X140207400Y-111953600D03*
%TD*%
%TO.C,C28*%
X164257400Y-96203600D03*
X165257400Y-96203600D03*
%TD*%
D27*
%TO.C,C4*%
X134657400Y-108553600D03*
X134657400Y-109553600D03*
%TD*%
D16*
%TO.C,C41*%
X155907400Y-111053600D03*
X154907400Y-111053600D03*
%TD*%
D17*
%TO.C,C39*%
X143507400Y-97903600D03*
X144507400Y-97903600D03*
%TD*%
D32*
%TO.C,U1*%
X142047400Y-103053600D03*
X142047400Y-102553600D03*
X142047400Y-102053600D03*
X142047400Y-101553600D03*
X142047400Y-101053600D03*
X142047400Y-100553600D03*
X142047400Y-100053600D03*
D33*
X141207400Y-99213600D03*
X140707400Y-99213600D03*
X140207400Y-99213600D03*
X139707400Y-99213600D03*
X139207400Y-99213600D03*
X138707400Y-99213600D03*
X138207400Y-99213600D03*
D32*
X137367400Y-100053600D03*
X137367400Y-100553600D03*
X137367400Y-101053600D03*
X137367400Y-101553600D03*
X137367400Y-102053600D03*
X137367400Y-102553600D03*
X137367400Y-103053600D03*
D33*
X138207400Y-103893600D03*
X138707400Y-103893600D03*
X139207400Y-103893600D03*
X139707400Y-103893600D03*
X140207400Y-103893600D03*
X140707400Y-103893600D03*
X141207400Y-103893600D03*
D34*
X139707400Y-101553600D03*
%TD*%
D28*
%TO.C,R10*%
X155057400Y-105053600D03*
X155057400Y-104053600D03*
%TD*%
D44*
%TO.C,F1*%
X129780000Y-111050000D03*
X129780000Y-114050000D03*
%TD*%
D45*
%TO.C,BIAS_T1*%
X128820000Y-107800000D03*
X126280000Y-107800000D03*
X126280000Y-105006000D03*
X128820000Y-105006000D03*
%TD*%
D17*
%TO.C,R9*%
X154857400Y-113553600D03*
X155857400Y-113553600D03*
%TD*%
%TO.C,C40*%
X162507400Y-111053600D03*
X163507400Y-111053600D03*
%TD*%
D27*
%TO.C,C23*%
X171307400Y-106453600D03*
X171307400Y-107453600D03*
%TD*%
D26*
%TO.C,U$53*%
X125001100Y-96450000D03*
%TD*%
D17*
%TO.C,R7*%
X164257400Y-98503600D03*
X165257400Y-98503600D03*
%TD*%
%TO.C,C5*%
X138957400Y-105053600D03*
X139957400Y-105053600D03*
%TD*%
%TO.C,C19*%
X167107400Y-109203600D03*
X168107400Y-109203600D03*
%TD*%
D28*
%TO.C,R6*%
X165357400Y-108403600D03*
X165357400Y-107403600D03*
%TD*%
D17*
%TO.C,C26*%
X162507400Y-99803600D03*
X163507400Y-99803600D03*
%TD*%
D46*
%TO.C,XTAL1*%
X168356300Y-107750000D03*
X168356300Y-105550000D03*
X166756300Y-105550000D03*
X166756300Y-107750000D03*
%TD*%
D16*
%TO.C,C42*%
X136307400Y-99003600D03*
X135307400Y-99003600D03*
%TD*%
D47*
%TO.C,J2*%
X175256300Y-107910000D03*
X175256300Y-102130000D03*
D48*
X173811300Y-108270000D03*
X173811300Y-107470000D03*
D49*
X173811300Y-106270000D03*
X173811300Y-105270000D03*
X173811300Y-104770000D03*
X173811300Y-103770000D03*
D48*
X173811300Y-101770000D03*
X173811300Y-102570000D03*
D49*
X173811300Y-103270000D03*
X173811300Y-104270000D03*
X173811300Y-105770000D03*
X173811300Y-106770000D03*
D50*
X174726300Y-109340000D03*
X174726300Y-100700000D03*
X178906300Y-109340000D03*
X178906300Y-100700000D03*
%TD*%
D26*
%TO.C,U$55*%
X177706300Y-96450000D03*
%TD*%
D51*
%TO.C,R13*%
X132105400Y-105766200D03*
X132105400Y-104216200D03*
%TD*%
D52*
%TO.C,J4*%
X123401100Y-105003600D03*
X123401100Y-107753600D03*
X123401100Y-102253600D03*
%TD*%
D17*
%TO.C,C13*%
X147357400Y-101553600D03*
X148357400Y-101553600D03*
%TD*%
%TO.C,C7*%
X144107400Y-101553600D03*
X145107400Y-101553600D03*
%TD*%
D16*
%TO.C,C25*%
X157407400Y-99803600D03*
X156407400Y-99803600D03*
%TD*%
%TO.C,C21*%
X153507400Y-113553600D03*
X152507400Y-113553600D03*
%TD*%
D17*
%TO.C,C14*%
X127901100Y-109453600D03*
X128901100Y-109453600D03*
%TD*%
D28*
%TO.C,R2*%
X135957400Y-101103600D03*
X135957400Y-100103600D03*
%TD*%
%LPD*%
M02*
